<svg width="1920" height="1080" viewBox="0 0 1920 1080" fill="none" xmlns="http://www.w3.org/2000/svg">
<path d="M5.34058e-05 0H1920V1075H5.34058e-05V0Z" fill="url(#paint0_linear_295_638)"/>
<path d="M-11.2253 303.478L-35.9824 451.421L9.67181 459.061L16.4172 418.753L34.4388 406.025L64.8614 468.297L123.663 478.137L71.5181 379.704L142.93 329.275L82.3948 319.145L25.5077 364.43L34.4289 311.118L-11.2253 303.478ZM104.629 345.144L97.1845 350.582L96.8955 350.533C95.86 350.509 94.969 350.508 94.1021 350.363C91.5016 349.928 89.7685 348.747 86.7592 347.203C85.9407 346.769 85.0981 346.48 84.0867 346.311C82.353 346.02 80.5468 346.164 78.8367 346.62C78.0659 346.788 75.5368 347.702 74.8621 348.183C73.007 349.506 71.3682 351.311 70.9814 353.623L70.9089 354.056C70.7632 355.814 71.268 357.235 71.7486 358.801C72.1814 359.764 72.2292 360.367 72.1325 360.944C72.0116 361.667 71.626 362.196 70.7343 363.087C70.0356 363.712 69.529 364.964 69.2395 365.807C68.7571 366.915 68.4192 368.046 68.2258 369.202C68.1049 369.924 68.1527 370.526 68.0318 371.249L59.9607 376.879L61.524 379.962C60.0786 380.611 58.97 381.911 57.8856 383.066C56.4638 384.462 55.0421 385.858 53.5 387.085C50.946 389.034 49.1864 391.562 48.3897 394.547C48.293 395.125 48.0519 395.679 47.9793 396.112C47.5925 398.424 48.1456 399.556 47.7346 402.012C47.4929 403.457 46.8654 405.431 45.6112 408.489L41.8595 400.732L41.932 400.298C42.4156 397.409 39.2619 395.842 39.697 393.241C39.7696 392.808 39.9866 392.398 40.2036 391.989C42.1808 388.161 49.8174 384.241 50.854 382.484C51.4567 381.545 52.5653 380.245 52.7587 379.089C52.8071 378.8 52.8313 378.656 52.7351 378.343C52.4474 376.512 50.3044 376.005 48.8596 375.764C48.5949 375.571 48.1856 375.354 47.7522 375.281C47.1985 375.04 46.6206 374.943 45.8982 374.822C40.986 374 34.1698 375.682 29.9063 377.196C26.4377 378.398 22.0297 379.888 18.6573 381.403L30.6563 371.826C31.6193 372.284 32.462 372.574 33.4733 372.743C35.0625 373.009 36.5798 372.818 38.0977 371.735C41.3021 369.449 44.3125 369.21 48.0688 369.839C53.7034 370.782 57.172 369.58 62.0145 366.38C63.5324 365.298 64.9541 363.902 65.2443 362.168C65.3168 361.735 65.3893 361.301 65.3174 360.844C65.0302 358.122 62.7917 356.411 62.5523 354.292C62.4803 353.834 62.4326 353.232 62.5293 352.654C63.037 349.62 65.8811 345.937 66.9183 343.289L66.9909 342.856L72.123 338.813C72.3394 339.295 72.3872 339.897 72.6036 340.379C73.2764 342.571 74.0466 343.294 75.3469 343.511C76.7916 343.753 78.839 343.056 81.6808 342.937C82.4273 342.914 83.0052 343.011 83.7276 343.131C87.484 343.76 90.8057 346.098 95.7179 346.92L96.7292 347.089C99.2095 347.356 100.174 346.032 100.56 343.721C100.996 341.12 100.589 337.339 101.217 333.582C101.338 332.86 101.459 332.138 101.724 331.44L107.215 332.358C106.154 334.26 105.454 336.668 105.067 338.979C104.777 340.713 104.631 342.471 104.654 344.109C104.582 344.542 104.678 344.855 104.629 345.144ZM17.7842 317.393L22.8409 318.239C23.0331 318.865 23.0809 319.467 22.9842 320.045C22.4281 323.368 18.1157 326.062 17.6563 328.807C17.608 329.096 17.5838 329.241 17.6799 329.554C17.7996 330.614 18.5939 331.192 19.3883 331.771L21.6751 333.193L20.4904 340.272C18.6848 339.525 18.0344 339.861 15.2899 338.511C13.9177 337.836 12.5696 337.016 11.0288 336.461C9.77685 335.955 8.50074 335.593 7.20047 335.375C6.33361 335.23 5.58706 335.253 4.86468 335.133C1.951 334.794 -0.601793 334.96 -2.9871 336.789C-4.33632 337.751 -5.85478 339.725 -7.39683 340.952C-7.75831 341.337 -8.11979 341.723 -8.64992 342.228L-5.50693 323.446C-3.58215 326.144 -1.07947 328.94 2.02646 329.905C2.43571 330.122 3.01361 330.219 3.44703 330.291C9.37052 331.282 14.5032 326.349 17.2518 321.462C17.5171 320.764 17.7583 320.21 17.855 319.632C17.9759 318.91 17.9523 318.163 17.7842 317.393ZM14.1803 377.98L13.0681 384.626C13.0198 384.915 9.9121 386.623 8.41548 392.016C7.90835 394.159 7.18421 396.712 6.67708 398.854C6.26607 401.311 6.14461 402.924 7.39536 405.213C8.18909 406.682 8.47688 408.512 8.21093 410.102C7.99334 411.402 7.34232 412.63 6.571 413.689C5.63103 414.868 3.63021 417.949 3.2192 420.405C3.07414 421.272 3.24221 422.043 3.6031 422.549C3.98818 422.91 4.39743 423.127 4.83085 423.2L6.56456 423.49L4.94471 433.17C4.43933 432.64 3.90978 432.254 3.33188 432.158C0.8758 431.746 -2.04023 434.972 -5.94165 435.21C-6.39925 435.282 -6.83268 435.209 -7.26611 435.137C-12.0338 434.339 -19.2788 428.819 -22.5522 426.192L-22.6725 426.024L-21.4395 418.655C-15.0602 422.248 -12.7291 429.618 -8.53928 430.319C-8.10585 430.392 -7.8169 430.44 -7.50377 430.344C-5.26411 430.273 -4.42026 428.781 -4.10596 426.903C-3.62242 424.013 -4.60723 420.135 -4.31711 418.402L-4.29293 418.257C-3.61657 415.103 3.3477 408.1 4.48402 401.309C4.67743 400.154 4.70219 399.118 4.58248 398.058C4.31888 396.083 2.9956 394.228 3.28572 392.495L3.38243 391.917C4.13015 390.111 6.97248 389.101 8.10645 385.875L8.17898 385.442C8.4691 383.708 7.07329 382.286 5.74942 381.322C4.9551 380.744 2.64408 379.466 1.77723 379.321C-8.64918 377.725 -8.48639 386.515 -14.2666 387.33C-14.8687 387.377 -15.6152 387.401 -16.2415 387.593L-15.2744 381.814C-12.8897 380.876 -10.1918 379.843 -8.64918 377.725C-7.87787 376.665 -6.93731 374.595 -6.69554 373.15L-6.59883 372.572C-6.06636 368.503 -8.88158 364.913 -12.1072 362.888L-11.3577 358.409C-7.98703 359.567 -5.65359 363.374 -4.0903 366.457C-1.49267 371.348 -1.37237 371.516 3.66009 372.507C8.57226 373.329 9.72572 377.086 14.1803 377.98ZM78.3363 411.737L85.576 425.276C80.8791 426.718 80.7594 425.658 77.3392 426.571C74.8584 427.196 72.5214 428.735 70.4976 430.179C67.8233 431.959 65.4622 433.643 62.6918 435.11C61.5596 435.664 60.5477 436.385 59.5599 436.963L56.5778 430.82C56.8668 430.868 57.1315 431.061 57.4205 431.109L58.4318 431.279C61.1768 431.738 64.1636 430.753 66.6209 429.382C68.7409 428.251 72.6199 425.484 74.7876 424.956C76.6422 424.524 79.4845 423.514 79.8713 421.202L79.8955 421.058C79.8477 420.456 79.6313 419.974 79.4149 419.492C78.7173 418.336 78.4313 413.832 78.3363 411.737ZM94.8119 442.862L97.5299 447.921C97.626 448.234 97.1914 449.943 99.0206 451.438L99.5502 451.823L103.615 459.484C102.917 459.219 101.905 459.05 101.039 458.904C96.9933 458.228 91.5026 458.2 88.3955 459.017C85.4329 459.857 84.0353 461.109 81.8434 461.782L81.2414 461.829L72.1394 460.306C75.5596 459.393 78.8843 457.276 81.3652 456.652C83.2198 456.22 85.1946 455.956 86.7845 455.331C89.9883 453.936 91.459 451.361 92.5688 448.279C93.172 446.449 93.7994 444.475 94.8119 442.862Z" fill="#151515"/>
<path d="M192.167 454.846C166.162 450.495 161.576 429.083 164.864 409.434L164.961 408.856C168.225 389.352 181.096 371.01 205.513 375.096C229.929 379.182 236.128 400.715 233.009 420.243C229.696 440.037 218.462 459.247 192.167 454.846ZM262.392 377.782L262.537 377.807C263.379 378.987 264.052 380.288 264.726 381.589C263.016 382.045 261.618 383.297 260.389 384.428C258.269 386.449 254.271 386.374 253.21 388.276C253.017 388.541 252.969 388.83 252.921 389.119C252.727 390.275 253.063 391.816 252.894 392.827L252.846 393.116C252.412 393.935 251.112 393.717 250.509 394.656C250.316 394.921 250.244 395.354 250.171 395.788C250.026 396.654 249.953 397.979 249.976 398.725L249.952 398.87C249.541 401.326 244.001 404.26 243.444 407.583L243.396 407.872C243.298 410.232 245.393 411.028 247.415 411.367C251.461 412.044 256.639 411.277 260.974 411.111C261.865 411.111 262.611 411.088 263.334 411.209C264.778 411.45 265.717 412.053 267.499 412.945C268.317 413.379 269.714 413.91 270.869 414.103C271.447 414.2 271.736 414.249 272.194 414.177L272.12 417.283L271.951 417.403C270.12 418.582 268.963 420.171 268.624 422.193C268.504 422.916 268.551 423.518 268.575 424.264L270.159 432.55C268.638 438.979 266.273 445.118 263.235 450.847L262.729 451.208C261.886 451.81 261.091 452.122 260.176 452.266C258.514 452.434 257.912 453.372 257.718 454.528C257.476 455.973 257.957 457.539 258.342 458.791C256.389 461.583 254.34 464.062 252.027 466.349L251.208 466.806C249.907 467.479 249.907 468.37 249.545 468.755C246.027 472.028 242.268 474.964 238.173 477.249C238.752 475.563 239.62 473.926 240.753 472.482C242.103 470.629 243.596 469.691 245.548 468.68C247.162 467.911 247.741 466.226 248.007 464.636C248.176 463.625 248.201 462.589 248.346 461.723C248.515 460.711 248.804 459.869 249.335 459.363C250.371 458.497 251.431 457.486 251.624 456.33L251.673 456.041C251.842 454.139 249.676 452.885 248.304 452.21C247.894 451.993 247.341 451.752 246.763 451.655C245.463 451.438 243.945 451.629 242.693 452.014C238.67 452.975 234.455 455.091 230.529 456.365C225.832 457.807 225.592 456.578 222.147 457.636C225.858 454.989 229.087 451.668 231.835 447.672C232.244 447.889 232.822 447.986 233.255 448.058C235.422 448.421 237.855 448.085 239.445 447.46C240.914 446.667 242.528 446.788 244.141 446.909C246.645 447.032 250.257 447.636 252.882 447.927C261.43 449.209 261.12 445.741 264.155 443.575C265.504 442.613 266.18 441.241 266.421 439.796C266.808 437.484 266.064 434.835 264.909 432.859C263.369 430.522 263.25 428.572 263.637 426.26C263.806 425.249 264.168 423.973 264.53 422.697L264.651 421.974C265.207 418.651 262.825 416.025 260.08 415.565C259.068 415.396 257.985 415.66 256.997 416.238C253.985 418.259 245.846 418.085 242.33 417.793C242.888 411.797 242.844 405.849 241.691 400.309L241.908 399.9C243.644 396.626 246.03 393.906 247.887 390.801C248.296 390.127 248.562 389.429 248.683 388.707C249.19 385.673 247.242 382.228 243.775 381.647C243.341 381.575 243.028 381.671 242.595 381.598C241.246 381.67 240.09 381.476 239.223 381.331C236.478 380.872 234.865 379.859 231.736 378.148L230.195 377.593C228.92 376.34 227.644 375.086 226.2 373.954C227.091 373.954 227.982 373.955 228.849 374.1C232.605 374.728 235.493 376.994 240.406 377.816L241.706 378.034C244.186 378.3 245.15 376.976 245.537 374.665C245.972 372.064 245.565 368.283 246.194 364.527C246.412 363.226 246.774 361.95 247.28 360.698C248.724 361.831 250.289 363.133 251.709 364.41C250.817 366.191 250.358 368.045 250.044 369.924C249.753 371.657 249.584 373.56 249.607 375.197C249.629 377.726 250.905 378.979 252.638 379.269C254.228 379.535 256.227 379.127 257.841 378.357C259.455 377.588 260.755 377.805 262.392 377.782ZM187.09 485.186L185.79 484.969C188.223 483.742 190.343 481.721 190.803 478.976C191.383 475.508 196.877 470.19 197.457 466.722C197.53 466.289 197.602 465.855 197.386 465.374C197.17 464.892 196.905 464.699 196.52 464.338C203.286 464.727 209.38 463.816 214.631 461.725C212.294 463.264 210.102 464.828 207.644 466.199C204.537 467.907 199.405 471.058 197.139 473.947C198.654 478.21 201.54 483.149 204.404 486.45C198.745 486.542 193.013 486.178 187.09 485.186ZM221.906 348.135L219.667 348.206C214.947 348.01 210.971 350.464 208.392 354.339L207.597 355.543L207.476 356.265C207.065 358.721 208.653 360.769 210.651 362.143C214.093 364.65 215.418 363.832 216.811 368.818C214.572 367.998 212.309 367.322 209.733 366.742L209.059 366.332C208.264 365.754 207.446 365.32 206.483 364.862C205.929 364.621 205.231 364.355 204.653 364.259C202.775 363.944 200.92 364.377 199.138 365.266L198.367 365.434C187.048 365.62 177.702 369.996 170.544 377.264C169.632 373.844 167.201 371.507 163.758 370.782C160.892 370.154 158.63 368.587 155.981 367.55C154.729 367.043 153.02 366.609 151.431 366.343C149.119 365.956 146.759 365.858 144.904 366.29C146.375 364.606 147.989 362.945 149.435 361.405C149.604 361.284 153.336 362.057 157.721 358.039C160.854 355.295 162.445 351.997 162.445 351.997C164.252 350.963 166.011 350.217 167.793 349.328C168.01 349.809 167.913 350.387 167.816 350.965C167.309 353.999 163.068 357.151 162.609 359.896C162.44 360.908 162.872 361.871 164.365 362.715C166.122 363.752 167.855 364.933 169.564 366.258C170.503 366.861 171.394 367.753 172.332 368.355C172.862 368.741 173.584 368.862 174.162 368.959C176.907 369.418 179.846 367.83 181.052 365.062C181.872 362.823 181.969 363.136 184.473 363.258C186.833 363.356 189.217 363.309 191.625 363.118C195.72 362.615 199.405 361.004 202.032 357.731C203.936 355.227 204.998 352.435 205.915 349.618C206.325 348.053 207.025 346.536 207.7 345.164L211.023 345.72C214.779 346.348 218.367 347.097 221.906 348.135ZM131.909 388.919L132.776 389.064C136.653 389.861 139.058 394.125 140.886 397.401C143.484 402.292 143.604 402.46 148.637 403.451C152.104 404.031 153.548 406.055 156.099 407.67C155.447 411.571 155.107 415.376 155.08 419.085L154.695 419.614C154.212 420.721 153.73 421.829 153.512 423.129C152.885 425.104 152.137 427.8 151.654 429.799C151.219 432.399 151.097 434.013 152.348 436.301C153.142 437.771 153.454 439.457 153.188 441.046C152.97 442.346 152.319 443.574 151.548 444.633C150.584 445.957 148.583 449.038 148.196 451.35C148.051 452.217 148.219 452.987 148.58 453.493C148.965 453.855 149.374 454.072 149.808 454.144C150.819 454.313 152.239 454.7 153.684 454.941C156.285 455.377 158.934 455.523 160.5 454.151C161.536 453.285 161.802 451.696 164.404 449.458C165.246 450.638 166.257 451.699 167.292 452.615C164.112 453.865 161.245 455.91 159.028 458.509C156.787 461.253 155.822 463.468 155.532 465.202C154.879 469.102 157.189 471.271 156.85 474.185C155.358 473.341 154.034 472.377 152.71 471.413C152.35 469.125 151.054 463.561 148.309 463.102C147.008 462.884 145.539 463.678 144.407 464.231C143.011 462.809 141.639 461.243 140.292 459.532C140.533 458.979 140.774 458.425 140.871 457.847C141.354 454.957 140.321 451.369 140.66 449.346L140.684 449.201C141.119 446.601 147.071 440.319 148.929 434.541C149.219 433.698 149.34 432.976 149.461 432.254C150.138 428.208 148.308 426.714 148.142 424.161C148.19 423.872 148.07 423.704 148.118 423.415C148.481 421.248 151.732 420.455 153.059 416.964L153.131 416.531C153.422 414.797 152.026 413.375 150.726 412.266C149.667 411.495 148.15 410.796 146.73 410.41C143.407 409.853 140.541 410.116 138.083 412.379C137.071 413.1 136.324 414.015 135.577 414.93C131.721 419.334 131.433 417.504 126.664 419.379C126.52 417.573 126.69 415.67 126.691 413.888C129.702 412.758 134.231 411.437 136.303 408.813C137.099 407.61 138.039 405.539 138.281 404.095L138.378 403.517C138.838 398.99 135.349 394.99 131.521 393.012L130.703 392.578C131.065 391.302 131.427 390.026 131.909 388.919ZM185.591 494.144C238.18 502.944 272.663 469.951 279.769 430.148L279.938 429.137C286.539 389.695 267.567 345.974 211.944 336.666C156.321 327.357 125.448 363.629 118.799 403.359L118.63 404.371C112.584 444.054 133.146 485.367 185.591 494.144Z" fill="#151515"/>
<path d="M258.747 500.742L307.725 508.938L319.561 489.68L378.652 499.569L383.574 521.631L432.407 529.803L394.751 371.415L345.918 363.244L258.747 500.742ZM411.344 517.218L395.74 514.607C398.367 511.334 398.105 507.577 401.021 503.461C402.54 501.487 404.034 500.549 406.154 499.418C407.768 498.649 408.347 496.963 408.613 495.374C408.782 494.363 408.807 493.327 408.952 492.46C409.121 491.449 409.41 490.606 409.94 490.101C410.832 489.211 412.061 488.08 412.254 486.924L412.303 486.635C412.448 484.877 410.282 483.623 408.91 482.948C408.356 482.707 407.947 482.49 407.369 482.393C401.59 481.426 392.169 488.018 386.414 487.798C381.983 487.65 378.562 490.345 378.249 490.441L374.492 489.813C375.986 488.875 378.66 487.094 380.346 486.782C381.599 486.398 383.02 485.893 384.056 485.027C384.755 484.401 385.164 483.727 385.285 483.005C385.382 482.427 385.334 481.825 384.998 481.174C383.843 479.199 383.681 468.627 383.9 465.544L383.973 465.111C384.263 463.377 385.444 460.753 385.855 458.297C386.315 455.552 385.811 453.24 382.054 452.611L379.887 452.249C376.275 451.644 377.481 449.767 377.578 447.407C377.701 444.011 375.053 442.974 374.932 442.805L370.73 424.428L370.875 423.561C371.093 422.261 370.564 420.984 370.011 419.852L369.842 419.972L368.257 413.469L368.474 413.06C369.101 411.086 370.572 408.51 371.609 406.752C372.428 405.404 372.791 404.128 372.984 402.973C373.54 399.65 371.35 397.649 367.089 395.6C366.535 395.358 365.837 395.093 365.259 394.996C362.08 394.464 358.804 396.293 356.034 397.76C352.589 399.708 349.433 401.705 345.795 403.027C342.64 404.133 339.653 406.009 337.7 408.801C336.929 409.86 336.229 411.377 335.892 412.509L335.698 413.664C335.456 415.109 335.335 416.723 335.358 418.36C335.285 419.685 335.38 420.889 335.211 421.9C334.969 423.345 334.294 424.717 332.897 425.968C332.174 426.739 331.258 427.773 331.089 428.785C331.04 429.074 330.992 429.363 331.088 429.676C331.569 431.242 333.904 432.375 335.276 433.05C336.504 433.701 337.756 434.208 339.056 434.425C340.645 434.691 342.162 434.5 343.68 433.417C343.849 433.297 343.849 433.297 343.993 433.321L341.559 437.22C339.391 437.749 337.536 438.181 335.489 438.878C331.707 440.176 326.842 441.738 323.276 443.518C318.434 445.826 315.471 448.449 314.118 453.867C313.491 455.841 312.767 458.394 312.26 460.536C311.825 463.137 311.703 464.75 312.954 467.039C313.748 468.509 314.06 470.194 313.794 471.784C313.576 473.084 312.925 474.312 312.154 475.371C311.19 476.695 309.189 479.776 308.802 482.087C308.657 482.954 308.825 483.725 309.186 484.231C309.571 484.592 309.98 484.809 310.414 484.882L311.858 485.124L306.121 494.56L305.639 494.777C303.712 495.642 301.905 496.677 299.641 496.892C299.183 496.964 298.75 496.891 298.317 496.819C293.404 495.997 286.039 490.309 282.79 487.537L282.645 487.513C282.067 487.416 281.514 487.175 280.936 487.078C280.069 486.933 279.033 486.908 278.118 487.052L282.771 479.662C290.114 482.822 292.42 491.228 297.043 492.001C297.332 492.05 297.766 492.122 298.079 492.026C300.319 491.955 301.162 490.463 301.477 488.585C301.96 485.695 300.975 481.817 301.266 480.084L301.29 479.939C301.725 477.339 307.701 470.913 309.535 465.279C309.825 464.436 309.946 463.714 310.067 462.991C310.744 458.946 308.939 457.307 308.747 454.899C308.796 454.61 308.676 454.441 308.724 454.152C309.087 451.985 312.338 451.193 313.665 447.702L313.737 447.268C314.028 445.535 312.632 444.113 311.332 443.004C310.538 442.426 308.203 441.292 307.215 440.979L311.217 434.816C314.419 436.095 316.031 438.889 319.474 439.614L320.485 439.783C323.23 440.243 325.278 439.546 326.339 436.753L326.412 436.319C326.678 434.73 325.235 431.815 325.791 428.492C326.057 426.903 326.829 424.953 328.756 423.196C330.515 421.56 332.058 419.442 332.469 416.986C332.542 416.552 332.638 415.974 332.566 415.517C332.496 413.277 331.581 411.639 331.462 409.688C331.295 408.026 330.935 406.629 329.972 405.28L333.612 399.503C333.901 399.551 334.166 399.744 334.599 399.817C335.755 400.01 336.984 399.77 337.947 399.337C339.681 398.736 340.935 397.461 341.658 395.8C342.478 393.561 342.575 393.874 345.079 393.996C347.439 394.094 349.823 394.047 352.231 393.856C356.326 393.353 360.011 391.742 362.662 388.324C364.542 385.965 365.604 383.172 366.521 380.355C366.931 378.79 367.606 377.418 368.257 376.19L383.716 378.777C382.657 378.897 381.452 378.993 380.272 378.944C375.553 378.748 371.457 381.033 368.998 385.077L368.203 386.281L368.082 387.003C367.671 389.459 369.259 391.507 371.257 392.881C372.051 393.46 372.87 393.894 373.832 394.352C374.651 394.786 375.301 395.34 375.926 396.039C377.033 397.412 377.73 400.351 378.186 402.061C378.739 404.084 379.485 404.952 380.785 405.169C381.363 405.266 382.109 405.242 383.025 405.098C385.915 404.691 387.432 404.499 389.166 404.789C390.466 405.007 391.862 405.538 393.813 406.31L394.797 410.187L392.342 408.885C391.523 408.451 390.681 408.162 389.669 407.993C387.936 407.702 386.129 407.846 384.419 408.302C383.624 408.615 381.119 409.384 380.445 409.865C378.59 411.188 376.951 412.993 376.54 415.449L376.467 415.883C376.346 417.496 376.851 418.917 377.331 420.483C377.764 421.446 377.812 422.049 377.715 422.626C377.594 423.349 377.209 423.878 376.317 424.769C375.425 425.659 374.268 428.139 373.833 430.74C373.252 434.207 373.683 437.844 376.38 439.483C380.953 442.328 378.326 445.601 380.974 446.638L381.408 446.711C384.153 447.17 390.344 443.899 394.294 443.372C398.533 442.893 399.908 439.113 400.825 435.405L403.971 448.556C402.358 448.434 400.745 448.313 399.155 448.047L397.133 447.708C394.388 447.249 391.955 448.476 390.508 450.907C389.713 452.111 389.134 453.796 388.916 455.096C388.36 458.419 388.43 462.441 389.511 465.741C390.088 467.62 390.232 468.535 390.087 469.402C389.966 470.124 389.556 470.798 389.362 471.954C389.266 472.532 389.265 473.423 389.24 474.458C389.383 477.156 391.405 478.385 393.861 478.796C396.173 479.183 398.774 478.727 400.051 478.198C401.352 477.525 402.7 477.453 404.025 477.526C406.096 477.576 408.985 478.059 411.008 478.398L415.379 496.655C413.717 496.822 411.14 497.134 410.392 498.939C409.499 501.612 407.329 505.704 404.848 507.22C403.86 507.797 403.258 508.736 403.113 509.603C402.871 511.048 403.52 512.493 404.988 513.481C406.866 514.687 409.972 515.652 411.344 517.218ZM323.781 481.327C325.926 479.161 328.552 477.669 331.61 478.033C336.546 478.71 341.364 477.437 342.716 472.019C343.585 468.6 344.452 467.854 346.068 465.303L352.713 466.415C351.821 469.087 350.494 471.687 349.602 474.36C349.288 475.347 348.974 476.334 348.805 477.346C348.297 480.38 348.873 483.149 351.232 485.92L346.608 485.147C346.055 484.014 345.405 483.46 344.442 483.002C343.504 482.399 342.083 482.013 340.783 481.795L339.627 481.602C337.46 481.239 333.51 481.767 331.342 482.295L330.716 482.487L323.781 481.327ZM369.671 460.044L340.921 455.233L361.099 422.519L369.671 460.044Z" fill="#151515"/>
<path d="M462.076 382.682L437.319 530.625L551.021 549.652L557.476 511.077L489.429 499.69L507.73 390.322L462.076 382.682ZM538.368 528.524C538.921 530.547 540.822 531.608 542.701 531.922C543.134 531.995 543.567 532.067 544.025 531.995C544.314 532.044 544.627 531.948 544.916 531.996L543.949 537.775L543.491 537.847L543.058 537.774C540.313 537.315 541.761 532.211 532.659 530.687C531.937 530.567 531.07 530.421 530.034 530.397C517.705 529.522 517.679 533.23 512.838 533.757L511.923 533.901L503.254 532.45C507.228 531.778 510.625 529.228 513.395 528.652C515.25 528.22 517.225 527.956 518.839 527.186C522.018 525.936 523.513 523.216 524.623 520.134C525.082 518.28 525.805 516.619 526.673 514.982L532.886 516.022C532.355 516.527 531.825 517.032 531.319 517.393C530.332 517.971 529.729 518.909 529.584 519.776C529.342 521.221 529.991 522.666 531.46 523.655C533.747 525.077 537.864 526.212 538.368 528.524ZM490.508 396.5L494.553 397.176C494.19 399.344 495.129 400.837 496.693 402.139L495.871 407.051C494.523 406.231 493.175 405.412 491.73 405.17L491.297 405.097C488.215 404.879 484.962 406.562 482.481 408.078C479.06 409.882 475.904 411.878 472.267 413.2C469.593 414.09 467.136 415.461 465.304 417.531L466.924 407.851C466.924 407.851 467.647 407.081 468.129 405.973C468.95 403.734 469.046 404.047 471.55 404.169C473.91 404.267 476.294 404.22 478.703 404.029C483.832 403.551 487.808 401.097 490.508 396.5ZM490.286 440.425L487.433 457.473L485.53 459.085C482.639 461.275 480.638 464.356 480.057 467.823C479.985 468.257 480.033 468.859 479.96 469.292C479.912 469.581 479.839 470.015 479.911 470.472C479.983 471.821 479.934 473.001 479.74 474.157C478.918 479.069 476.074 482.751 475.301 487.375C475.204 487.952 475.083 488.675 475.107 489.421C475.032 493.419 477.51 496.359 480.543 498.648L479.794 503.127C478.301 502.283 477.097 501.488 475.774 500.524C471.513 497.583 476.067 493.444 466.532 491.848L466.098 491.776C465.232 491.63 462.534 491.773 461.643 491.773C458.464 492.132 455.357 492.948 452.442 494.391L453.313 489.19C454.782 488.397 456.324 488.06 458.081 488.206C463.018 488.884 467.811 487.755 469.187 482.193C470.515 476.92 472.659 476.536 473.865 472.876L473.962 472.298C474.47 469.264 471.316 467.697 471.775 464.952C471.848 464.519 471.896 464.23 472.113 463.82C474.235 460.017 481.847 456.241 482.908 454.339C483.511 453.4 484.595 452.245 484.813 450.945C484.861 450.656 484.885 450.511 484.789 450.198C484.477 448.512 482.358 447.861 480.914 447.619C480.625 447.571 480.215 447.354 479.782 447.281C479.084 447.016 478.506 446.919 477.784 446.798C472.727 445.952 466.2 447.682 461.96 449.052C461.31 449.388 460.539 449.556 459.913 449.749L461.049 442.958C461.314 443.151 461.458 443.175 461.723 443.368C462.951 444.019 464.083 444.357 465.383 444.575C466.972 444.84 468.634 444.673 470.152 443.59C473.332 441.449 476.367 441.066 480.123 441.694C483.879 442.323 486.745 442.06 490.286 440.425ZM484.486 507.922L491.277 509.059C489.108 510.478 485.88 512.908 484.217 514.858C486.26 520.398 490.758 528.131 495.741 531.193L480.86 528.703L480.885 528.558C480.475 528.341 479.897 528.245 479.464 528.172L478.549 528.316L469.591 526.817C473.397 526.266 477.059 523.908 477.736 519.863C478.292 516.54 483.617 511.342 484.486 507.922Z" fill="#151515"/>
<path d="M557.234 550.692L606.211 558.888L618.048 539.63L677.138 549.518L682.06 571.58L730.893 579.752L693.237 421.365L644.404 413.193L557.234 550.692ZM709.83 567.168L694.226 564.556C696.853 561.283 696.591 557.526 699.508 553.41C701.026 551.436 702.52 550.498 704.64 549.368C706.254 548.598 706.833 546.913 707.099 545.324C707.268 544.312 707.293 543.277 707.438 542.41C707.607 541.399 707.897 540.556 708.427 540.05C709.318 539.16 710.547 538.029 710.741 536.873L710.789 536.584C710.935 534.826 708.768 533.573 707.396 532.897C706.842 532.656 706.433 532.439 705.855 532.343C700.076 531.376 690.656 537.968 684.9 537.747C680.469 537.6 677.048 540.295 676.735 540.391L672.978 539.762C674.472 538.824 677.146 537.044 678.832 536.732C680.085 536.347 681.506 535.843 682.542 534.976C683.241 534.351 683.651 533.677 683.772 532.954C683.868 532.376 683.82 531.774 683.484 531.124C682.329 529.148 682.168 518.576 682.386 515.494L682.459 515.06C682.749 513.327 683.931 510.703 684.342 508.247C684.801 505.501 684.297 503.189 680.54 502.561L678.373 502.198C674.761 501.594 675.967 499.716 676.065 497.356C676.187 493.961 673.539 492.923 673.419 492.755L669.216 474.377L669.362 473.511C669.579 472.21 669.05 470.934 668.497 469.801L668.328 469.922L666.743 463.419L666.96 463.009C667.588 461.035 669.058 458.459 670.095 456.702C670.915 455.354 671.277 454.078 671.47 452.922C672.026 449.599 669.836 447.599 665.575 445.549C665.021 445.308 664.323 445.043 663.745 444.946C660.567 444.414 657.29 446.242 654.52 447.709C651.075 449.658 647.919 451.654 644.282 452.976C641.126 454.082 638.139 455.958 636.186 458.751C635.415 459.81 634.716 461.326 634.378 462.458L634.184 463.614C633.943 465.059 633.821 466.672 633.844 468.31C633.771 469.634 633.867 470.838 633.697 471.85C633.456 473.294 632.78 474.667 631.383 475.918C630.66 476.688 629.744 477.723 629.575 478.734C629.526 479.023 629.478 479.312 629.574 479.625C630.055 481.191 632.39 482.324 633.762 483C634.99 483.651 636.242 484.157 637.542 484.375C639.131 484.641 640.649 484.449 642.167 483.366C642.335 483.246 642.335 483.246 642.48 483.27L640.045 487.17C637.877 487.698 636.023 488.13 633.975 488.827C630.193 490.125 625.328 491.688 621.763 493.467C616.921 495.776 613.957 498.399 612.605 503.816C611.977 505.791 611.253 508.343 610.746 510.486C610.311 513.086 610.189 514.7 611.44 516.988C612.234 518.458 612.546 520.144 612.28 521.733C612.062 523.033 611.411 524.261 610.64 525.32C609.676 526.644 607.675 529.725 607.288 532.037C607.143 532.904 607.311 533.675 607.672 534.18C608.057 534.542 608.466 534.759 608.9 534.831L610.344 535.073L604.607 544.51L604.125 544.726C602.198 545.592 600.391 546.626 598.127 546.841C597.67 546.913 597.236 546.841 596.803 546.768C591.891 545.946 584.525 540.258 581.276 537.486L581.132 537.462C580.554 537.366 580 537.124 579.422 537.028C578.555 536.883 577.52 536.858 576.604 537.002L581.257 529.612C588.6 532.771 590.906 541.177 595.53 541.951C595.819 541.999 596.252 542.072 596.565 541.976C598.805 541.905 599.649 540.412 599.963 538.534C600.446 535.645 599.462 531.767 599.752 530.033L599.776 529.889C600.211 527.288 606.188 520.862 608.022 515.228C608.311 514.386 608.432 513.663 608.553 512.941C609.23 508.896 607.425 507.257 607.234 504.848C607.282 504.559 607.162 504.391 607.21 504.102C607.573 501.935 610.824 501.142 612.151 497.651L612.224 497.218C612.514 495.484 611.118 494.062 609.818 492.954C609.024 492.375 606.689 491.242 605.702 490.928L609.703 484.766C612.905 486.044 614.517 488.839 617.96 489.564L618.971 489.733C621.717 490.192 623.764 489.495 624.825 486.702L624.898 486.269C625.164 484.68 623.721 481.765 624.277 478.442C624.543 476.853 625.315 474.902 627.242 473.146C629.002 471.509 630.544 469.391 630.955 466.935C631.028 466.502 631.124 465.924 631.052 465.466C630.982 463.226 630.068 461.588 629.949 459.638C629.781 457.976 629.421 456.579 628.458 455.23L632.099 449.452C632.388 449.501 632.652 449.694 633.086 449.766C634.241 449.959 635.47 449.719 636.433 449.287C638.168 448.686 639.421 447.41 640.144 445.749C640.965 443.51 641.061 443.823 643.565 443.945C645.925 444.043 648.309 443.996 650.718 443.805C654.812 443.302 658.497 441.691 661.149 438.273C663.029 435.915 664.09 433.122 665.007 430.305C665.417 428.74 666.093 427.368 666.744 426.14L682.203 428.727C681.143 428.846 679.939 428.942 678.759 428.893C674.039 428.697 669.943 430.982 667.484 435.027L666.689 436.23L666.568 436.952C666.157 439.409 667.745 441.457 669.743 442.831C670.537 443.409 671.356 443.843 672.319 444.301C673.137 444.735 673.787 445.29 674.413 445.988C675.52 447.362 676.216 450.3 676.672 452.01C677.225 454.034 677.971 454.901 679.271 455.119C679.849 455.215 680.596 455.192 681.511 455.048C684.401 454.64 685.918 454.449 687.652 454.739C688.952 454.956 690.349 455.487 692.299 456.259L693.284 460.137L690.828 458.835C690.01 458.401 689.167 458.111 688.156 457.942C686.422 457.652 684.616 457.795 682.906 458.252C682.111 458.564 679.606 459.333 678.931 459.814C677.076 461.138 675.437 462.943 675.026 465.399L674.954 465.832C674.832 467.446 675.337 468.867 675.817 470.432C676.25 471.396 676.298 471.998 676.201 472.576C676.08 473.298 675.695 473.828 674.803 474.718C673.912 475.609 672.754 478.088 672.319 480.689C671.739 484.156 672.17 487.793 674.866 489.432C679.439 492.277 676.812 495.55 679.461 496.588L679.894 496.66C682.639 497.12 688.83 493.849 692.78 493.321C697.019 492.842 698.394 489.062 699.312 485.354L702.458 498.505C700.844 498.384 699.231 498.262 697.642 497.996L695.619 497.658C692.874 497.199 690.441 498.425 688.994 500.856C688.199 502.06 687.62 503.745 687.402 505.046C686.846 508.369 686.916 512.39 687.997 515.69C688.574 517.569 688.718 518.484 688.573 519.351C688.452 520.073 688.042 520.747 687.849 521.903C687.752 522.481 687.751 523.372 687.727 524.408C687.869 527.105 689.891 528.334 692.347 528.745C694.659 529.132 697.26 528.676 698.537 528.148C699.838 527.474 701.186 527.403 702.511 527.476C704.582 527.525 707.471 528.009 709.494 528.347L713.865 546.604C712.203 546.772 709.626 547.083 708.878 548.889C707.986 551.561 705.816 555.654 703.334 557.169C702.346 557.747 701.744 558.685 701.599 559.552C701.357 560.997 702.006 562.442 703.475 563.431C705.352 564.636 708.458 565.601 709.83 567.168ZM622.268 531.276C624.412 529.11 627.038 527.619 630.096 527.982C635.033 528.66 639.85 527.386 641.202 521.969C642.071 518.55 642.939 517.804 644.554 515.252L651.2 516.364C650.307 519.037 648.981 521.637 648.088 524.309C647.774 525.297 647.46 526.284 647.291 527.295C646.783 530.329 647.36 533.099 649.718 535.87L645.095 535.096C644.541 533.964 643.892 533.41 642.929 532.951C641.99 532.349 640.569 531.962 639.269 531.745L638.113 531.551C635.946 531.189 631.996 531.716 629.829 532.244L629.202 532.437L622.268 531.276ZM668.157 509.994L639.407 505.183L659.585 472.469L668.157 509.994Z" fill="#151515"/>
<path d="M875.924 491.443L907.275 496.689C914.355 497.874 916.952 503.655 916.081 508.857C915.283 513.624 911.452 517.884 905.359 517.013L872.564 511.525L875.924 491.443ZM954.45 498.791C954.666 500.164 954.882 501.537 954.929 503.03C951.991 502.836 949.992 504.135 947.871 506.156C945.751 508.178 941.898 508.127 940.692 510.005C940.499 510.269 940.451 510.558 940.403 510.847C940.209 512.003 940.545 513.544 940.376 514.556L940.328 514.845C939.894 515.663 938.738 515.47 937.991 516.384C937.798 516.649 937.725 517.083 937.653 517.516C937.484 518.527 937.459 519.563 937.458 520.454L937.434 520.598C936.999 523.199 931.482 525.989 930.951 529.167C930.854 529.745 930.902 530.347 931.238 530.998C931.767 532.274 933.308 532.829 935.042 533.119C937.787 533.579 941.255 533.268 942.892 533.245C939.447 536.084 935.833 538.153 932.509 539.379C932.774 539.572 933.207 539.644 933.496 539.693C931.136 539.595 928.487 539.449 926.031 539.038L924.442 538.772C921.119 538.216 918.662 539.587 917.143 542.451C915.337 541.704 913.363 541.076 911.34 540.738L904.405 539.577C904.575 538.566 904.599 537.53 904.191 536.422C903.686 535.001 902.362 534.037 900.99 533.362C899.882 532.88 898.751 532.542 897.739 532.372C896.439 532.155 895.259 532.106 894.127 532.659C892.2 533.525 890.513 535.619 889.091 537.015L882.734 535.951C882.927 535.686 883.264 535.445 883.457 535.181C883.915 534.218 885 533.062 885.217 531.762C885.266 531.473 885.29 531.329 885.194 531.016C884.882 529.33 882.763 528.678 881.318 528.436C881.053 528.243 880.62 528.171 880.355 527.978C879.801 527.737 879.224 527.64 878.501 527.519C873.589 526.697 866.893 528.547 862.509 529.893C858.728 531.191 853.862 532.753 850.297 534.533C845.455 536.841 842.491 539.464 840.994 544.858C840.487 547.001 839.763 549.553 839.28 551.551L839.111 552.563C838.772 554.585 838.964 556.103 839.974 558.054C840.744 559.668 840.911 561.33 840.645 562.919C840.428 564.219 839.921 565.471 839.15 566.53C838.21 567.71 836.209 570.791 835.822 573.102C835.677 573.969 835.701 574.716 836.206 575.246C836.447 575.583 836.856 575.8 837.289 575.873C838.301 576.042 839.577 576.404 841.022 576.646C844.056 577.154 847.595 577.3 848.873 574.989C849.958 572.943 851.742 571.162 853.862 570.032L854.199 569.791L876.159 573.466L876.279 573.635C878.227 578.862 884.943 582.214 889.879 583.782L891.035 583.976C893.78 584.435 896.622 583.425 899.079 582.054L905.488 578.374C913.747 579.608 921.455 576.145 925.361 569.669C927.986 569.069 927.529 568.25 931.623 568.638C934.272 568.784 937.739 569.364 940.364 569.655C949.057 570.961 948.601 567.469 951.637 565.304C952.986 564.341 953.662 562.969 953.927 561.38C954.314 559.068 953.545 556.563 952.391 554.588C951.693 553.431 951.164 552.155 950.973 550.637C954.053 554.42 955.832 558.877 956.599 564.055L956.406 564.32C954.164 567.954 952.041 573.54 947.658 573.995C946.141 574.186 945.393 575.101 945.2 576.257C944.789 578.713 946.424 582.254 947.218 583.723C949.819 583.268 952.42 582.812 955.046 582.211C954.394 584.33 953.453 586.401 952.417 588.158C949.479 587.963 946.276 587.576 943.29 587.67C941.508 587.669 938.209 587.86 937.413 589.954C936.375 592.603 934.205 596.695 931.724 598.211C930.881 598.812 930.302 599.606 930.133 600.618C930.06 601.051 929.988 601.485 930.204 601.966C928.374 602.254 926.423 602.373 924.497 602.348C924.714 601.939 924.955 601.385 925.027 600.951C925.703 598.688 926.668 596.473 928.018 594.62C929.416 592.478 930.909 591.539 933.174 590.433C934.788 589.663 935.223 587.954 935.513 586.22L935.948 583.62C936.117 582.608 936.431 581.621 936.961 581.116C937.852 580.225 939.081 579.094 939.299 577.794C939.469 575.892 937.302 574.638 935.93 573.963C935.376 573.722 934.967 573.505 934.389 573.408C928.61 572.441 919.19 579.033 913.434 578.813C909.437 578.738 906.136 580.71 902.956 582.852C900.426 584.656 897.897 586.46 895.126 587.928C892.018 589.635 887.031 592.811 884.621 595.675L884.934 596.47L880.889 595.793C881.925 594.036 883.395 592.351 884.288 590.57C884.529 590.016 884.939 589.342 885.06 588.619C885.205 587.753 885.061 586.837 884.266 586.259C883.207 585.488 882.268 584.885 881.161 584.402C879.115 583.317 878.031 582.691 876.178 581.341C873.121 579.196 874.929 576.379 871.992 574.402C870.548 573.27 868.381 572.907 866.647 572.617L864.432 572.543C857.737 572.611 850.969 574.894 846.654 580.262C844.967 582.356 843.545 584.643 843.11 587.243C842.989 587.966 843.012 588.712 843.036 589.459L839.135 588.806C838.173 586.566 837.356 585.241 835.911 584.999C835.188 584.878 834.273 585.022 833.141 585.575L829.6 587.21L822.232 585.977L822.788 582.654C823.197 582.871 823.63 582.944 824.064 583.016C824.353 583.065 824.642 583.113 825.099 583.041C827.194 582.946 828.038 581.454 828.328 579.72C828.836 576.686 827.875 572.664 828.141 571.074C828.745 568.354 834.698 562.072 836.556 556.294C836.845 555.451 836.966 554.729 837.063 554.151C837.764 549.961 835.79 548.442 835.623 545.89L835.72 545.312C836.083 543.145 839.359 542.208 840.541 538.692L840.638 538.115C840.928 536.381 839.676 534.983 838.328 534.164C837.125 533.368 835.632 532.524 834.356 532.162L833.923 532.09C833.056 531.945 831.731 531.871 831.274 531.943L832.555 524.286C833.518 524.744 835.107 525.01 836.263 525.204C840.862 526.122 842.329 529.783 846.47 530.773L847.048 530.87C849.938 531.354 851.985 530.657 853.36 527.768L853.432 527.334C853.722 525.601 852.111 522.806 852.691 519.339C852.957 517.749 853.849 515.968 855.632 514.187C857.536 512.575 858.91 510.577 859.321 508.121C859.417 507.543 859.49 507.109 859.442 506.507C859.516 504.292 858.602 502.654 858.459 500.847C858.004 496.464 855.381 493.5 851.24 492.51C847.243 491.545 845.269 489.135 839.635 488.192L838.624 488.023L839.47 482.966C843.805 481.909 847.564 478.083 849.855 474.159C850.096 473.605 850.337 473.052 850.434 472.474C850.942 469.44 848.198 466.307 846.057 464.018C845.286 463.295 845.094 462.669 845.191 462.091C845.312 461.369 845.866 460.719 846.565 460.093C847.649 458.938 849.167 457.855 850.516 456.893L854.417 457.546C853.764 461.446 853.977 467.274 855.299 470.912C855.492 471.538 855.539 472.14 855.443 472.718C855.177 474.307 854.068 475.607 853.297 476.666C852.14 478.255 850.357 480.035 850.091 481.625C849.921 482.636 850.354 483.6 851.847 484.443C853.749 485.504 855.482 486.685 857.191 488.011C858.25 488.782 859.405 489.867 860.633 490.518C860.898 490.711 861.331 490.783 861.764 490.856C863.643 491.17 865.714 490.328 867.136 488.933L865.516 498.613C865.492 498.757 864.215 500.177 863.274 502.247C863.009 502.946 862.719 503.788 862.574 504.655C862.308 506.244 862.307 508.026 862.234 509.351C862.137 510.82 862.232 512.024 862.039 513.18C861.821 514.48 861.315 515.732 859.917 516.983C859.074 517.585 858.158 518.62 857.989 519.631C857.916 520.064 858.012 520.378 858.108 520.691C858.565 522.401 860.78 523.366 862.128 524.185C863.355 524.836 864.632 525.198 865.787 525.392C867.521 525.682 869.183 525.514 870.701 524.432C873.881 522.291 876.916 521.907 880.672 522.536C882.117 522.778 883.152 522.802 884.477 522.875L884.525 522.586L900.562 525.27C900.801 527.39 901.498 529.437 903.4 530.498C907.974 533.342 905.202 536.592 907.85 537.629L908.284 537.701C911.173 538.185 917.196 535.034 921.146 534.507C926.011 533.836 927.049 529.406 928.015 525.409C928.885 521.098 933.223 516.478 935.368 512.53C935.778 511.856 936.044 511.157 936.164 510.435C936.672 507.401 934.724 503.956 931.401 503.4C930.968 503.327 930.654 503.424 930.221 503.351C928.896 503.278 927.861 503.253 926.85 503.084C926.127 502.963 925.405 502.842 924.707 502.577C924.371 501.035 923.866 499.614 923.192 498.313C924.733 498.868 926.443 499.303 928.032 499.569L929.188 499.762C931.668 500.029 932.632 498.705 933.019 496.393C933.454 493.793 933.192 490.036 933.82 486.279C934.11 484.546 934.545 482.836 935.413 481.199C936.932 478.334 938.787 477.011 941.822 476.628C943.146 477.592 944.277 478.821 945.408 480.05C944.589 480.507 943.745 481.108 942.926 481.565C939.77 483.562 938.154 487.896 937.477 491.941C937.187 493.675 937.041 495.433 937.089 496.926C937.111 499.454 938.531 500.732 940.265 501.022C941.854 501.288 943.708 500.855 945.322 500.086C948.526 498.691 950.741 500.547 954.45 498.791ZM896.46 464.581L918.564 468.28C915.337 468.928 910.544 470.057 907.293 469.958C902.573 469.763 898.453 472.192 895.874 476.068L895.223 477.296L895.102 478.018C894.691 480.474 896.135 482.498 898.133 483.872C899.071 484.474 899.89 484.908 900.708 485.342C901.527 485.776 902.032 486.307 902.682 486.861L883.9 483.718C889.32 481.506 891.756 476.715 893.397 471.346C894.072 469.083 895.375 466.627 896.46 464.581ZM914.955 610.554C945.584 615.679 961.971 597.628 965.283 577.835C967.991 561.654 961.958 544.456 947.754 537.92C956.644 532.724 961.851 523.793 963.543 513.68C967.194 491.864 954.448 465.077 927.72 460.604L836.556 445.348L811.799 593.291L914.955 610.554ZM909.841 549.695C917.209 550.928 919.855 556.421 919.033 561.333C918.211 566.245 913.753 570.697 906.529 569.488L864.053 562.38L867.365 542.587L909.841 549.695Z" fill="#151515"/>
<path d="M1051.8 598.699C1025.79 594.347 1021.2 572.935 1024.49 553.287L1024.59 552.709C1027.85 533.204 1040.73 514.863 1065.14 518.948C1089.56 523.034 1095.76 544.568 1092.64 564.096C1089.33 583.889 1078.09 603.099 1051.8 598.699ZM1122.02 521.635L1122.17 521.659C1123.01 522.84 1123.68 524.14 1124.35 525.441C1122.64 525.898 1121.25 527.149 1120.02 528.28C1117.9 530.302 1113.9 530.227 1112.84 532.129C1112.65 532.393 1112.6 532.682 1112.55 532.971C1112.36 534.127 1112.69 535.668 1112.52 536.68L1112.47 536.969C1112.04 537.787 1110.74 537.57 1110.14 538.508C1109.94 538.773 1109.87 539.207 1109.8 539.64C1109.65 540.507 1109.58 541.831 1109.61 542.578L1109.58 542.722C1109.17 545.179 1103.63 548.113 1103.07 551.436L1103.02 551.725C1102.93 554.085 1105.02 554.881 1107.04 555.219C1111.09 555.896 1116.27 555.129 1120.6 554.963C1121.49 554.964 1122.24 554.94 1122.96 555.061C1124.41 555.303 1125.35 555.906 1127.13 556.798C1127.95 557.232 1129.34 557.763 1130.5 557.956C1131.08 558.053 1131.37 558.101 1131.82 558.029L1131.75 561.136L1131.58 561.256C1129.75 562.435 1128.59 564.023 1128.25 566.046C1128.13 566.768 1128.18 567.37 1128.2 568.117L1129.79 576.402C1128.27 582.831 1125.9 588.97 1122.86 594.7L1122.36 595.061C1121.51 595.662 1120.72 595.975 1119.8 596.119C1118.14 596.286 1117.54 597.225 1117.35 598.381C1117.11 599.826 1117.59 601.391 1117.97 602.644C1116.02 605.436 1113.97 607.915 1111.66 610.201L1110.84 610.658C1109.54 611.332 1109.54 612.223 1109.17 612.608C1105.66 615.881 1101.9 618.816 1097.8 621.101C1098.38 619.416 1099.25 617.779 1100.38 616.335C1101.73 614.481 1103.22 613.543 1105.18 612.533C1106.79 611.763 1107.37 610.078 1107.64 608.489C1107.8 607.478 1107.83 606.442 1107.97 605.575C1108.14 604.564 1108.43 603.721 1108.96 603.216C1110 602.349 1111.06 601.339 1111.25 600.183L1111.3 599.894C1111.47 597.992 1109.3 596.738 1107.93 596.063C1107.52 595.846 1106.97 595.605 1106.39 595.508C1105.09 595.29 1103.57 595.482 1102.32 595.866C1098.3 596.827 1094.08 598.943 1090.16 600.217C1085.46 601.659 1085.22 600.431 1081.78 601.488C1085.49 598.841 1088.72 595.52 1091.46 591.525C1091.87 591.742 1092.45 591.838 1092.88 591.911C1095.05 592.273 1097.48 591.938 1099.07 591.313C1100.54 590.519 1102.16 590.64 1103.77 590.762C1106.27 590.884 1109.89 591.488 1112.51 591.779C1121.06 593.061 1120.75 589.593 1123.78 587.428C1125.13 586.465 1125.81 585.093 1126.05 583.648C1126.44 581.337 1125.69 578.687 1124.54 576.712C1123 574.375 1122.88 572.424 1123.27 570.113C1123.43 569.101 1123.8 567.825 1124.16 566.549L1124.28 565.827C1124.84 562.504 1122.45 559.877 1119.71 559.418C1118.7 559.249 1117.61 559.513 1116.63 560.09C1113.61 562.111 1105.47 561.937 1101.96 561.646C1102.52 555.65 1102.47 549.702 1101.32 544.162L1101.54 543.753C1103.27 540.479 1105.66 537.759 1107.52 534.654C1107.93 533.98 1108.19 533.281 1108.31 532.559C1108.82 529.525 1106.87 526.08 1103.4 525.5C1102.97 525.427 1102.66 525.523 1102.22 525.451C1100.87 525.522 1099.72 525.329 1098.85 525.184C1096.11 524.724 1094.49 523.712 1091.36 522L1089.82 521.445C1088.55 520.192 1087.27 518.939 1085.83 517.806C1086.72 517.807 1087.61 517.807 1088.48 517.952C1092.23 518.581 1095.12 520.847 1100.03 521.669L1101.33 521.886C1103.81 522.153 1104.78 520.829 1105.17 518.517C1105.6 515.917 1105.19 512.136 1105.82 508.379C1106.04 507.079 1106.4 505.803 1106.91 504.551C1108.35 505.684 1109.92 506.985 1111.34 508.262C1110.45 510.044 1109.99 511.898 1109.67 513.776C1109.38 515.51 1109.21 517.412 1109.24 519.05C1109.26 521.578 1110.53 522.831 1112.27 523.122C1113.86 523.388 1115.86 522.979 1117.47 522.21C1119.08 521.44 1120.38 521.658 1122.02 521.635ZM1046.72 629.039L1045.42 628.821C1047.85 627.595 1049.97 625.573 1050.43 622.828C1051.01 619.361 1056.51 614.042 1057.09 610.575C1057.16 610.141 1057.23 609.708 1057.01 609.226C1056.8 608.744 1056.53 608.552 1056.15 608.19C1062.92 608.58 1069.01 607.669 1074.26 605.577C1071.92 607.117 1069.73 608.681 1067.27 610.052C1064.17 611.759 1059.03 614.911 1056.77 617.799C1058.28 622.063 1061.17 627.001 1064.03 630.302C1058.37 630.395 1052.64 630.03 1046.72 629.039ZM1081.53 491.988L1079.3 492.058C1074.58 491.863 1070.6 494.316 1068.02 498.192L1067.23 499.395L1067.1 500.118C1066.69 502.574 1068.28 504.622 1070.28 505.996C1073.72 508.503 1075.05 507.685 1076.44 512.671C1074.2 511.85 1071.94 511.175 1069.36 510.595L1068.69 510.185C1067.89 509.607 1067.07 509.172 1066.11 508.714C1065.56 508.473 1064.86 508.208 1064.28 508.111C1062.4 507.797 1060.55 508.229 1058.77 509.119L1058 509.287C1046.68 509.472 1037.33 513.849 1030.17 521.117C1029.26 517.697 1026.83 515.359 1023.39 514.634C1020.52 514.006 1018.26 512.44 1015.61 511.402C1014.36 510.896 1012.65 510.461 1011.06 510.195C1008.75 509.808 1006.39 509.711 1004.53 510.143C1006 508.458 1007.62 506.797 1009.06 505.257C1009.23 505.137 1012.96 505.91 1017.35 501.891C1020.48 499.148 1022.07 495.85 1022.07 495.85C1023.88 494.815 1025.64 494.07 1027.42 493.18C1027.64 493.662 1027.54 494.24 1027.45 494.818C1026.94 497.852 1022.7 501.004 1022.24 503.749C1022.07 504.76 1022.5 505.724 1023.99 506.567C1025.75 507.604 1027.48 508.785 1029.19 510.111C1030.13 510.714 1031.02 511.605 1031.96 512.208C1032.49 512.593 1033.21 512.714 1033.79 512.811C1036.54 513.27 1039.47 511.683 1040.68 508.914C1041.5 506.675 1041.6 506.988 1044.1 507.11C1046.46 507.208 1048.85 507.162 1051.25 506.971C1055.35 506.468 1059.03 504.857 1061.66 501.583C1063.57 499.08 1064.63 496.287 1065.54 493.47C1065.95 491.905 1066.65 490.388 1067.33 489.016L1070.65 489.572C1074.41 490.201 1078 490.95 1081.53 491.988ZM991.538 532.771L992.405 532.916C996.282 533.714 998.687 537.978 1000.52 541.254C1003.11 546.144 1003.23 546.313 1008.27 547.304C1011.73 547.884 1013.18 549.908 1015.73 551.523C1015.08 555.424 1014.74 559.228 1014.71 562.937L1014.32 563.467C1013.84 564.574 1013.36 565.681 1013.14 566.982C1012.51 568.956 1011.77 571.653 1011.28 573.651C1010.85 576.252 1010.73 577.865 1011.98 580.154C1012.77 581.623 1013.08 583.309 1012.82 584.898C1012.6 586.199 1011.95 587.426 1011.18 588.486C1010.21 589.809 1008.21 592.891 1007.82 595.202C1007.68 596.069 1007.85 596.84 1008.21 597.346C1008.59 597.707 1009 597.924 1009.44 597.997C1010.45 598.166 1011.87 598.552 1013.31 598.794C1015.91 599.229 1018.56 599.375 1020.13 598.004C1021.16 597.138 1021.43 595.548 1024.03 593.31C1024.88 594.491 1025.89 595.551 1026.92 596.467C1023.74 597.717 1020.87 599.762 1018.66 602.362C1016.42 605.105 1015.45 607.32 1015.16 609.054C1014.51 612.955 1016.82 615.124 1016.48 618.038C1014.99 617.194 1013.66 616.23 1012.34 615.265C1011.98 612.977 1010.68 607.414 1007.94 606.954C1006.64 606.737 1005.17 607.53 1004.04 608.084C1002.64 606.662 1001.27 605.096 999.92 603.385C1000.16 602.831 1000.4 602.277 1000.5 601.7C1000.98 598.81 999.95 595.221 1000.29 593.198L1000.31 593.054C1000.75 590.453 1006.7 584.172 1008.56 578.394C1008.85 577.551 1008.97 576.828 1009.09 576.106C1009.77 572.061 1007.94 570.567 1007.77 568.014C1007.82 567.725 1007.7 567.556 1007.75 567.267C1008.11 565.1 1011.36 564.307 1012.69 560.816L1012.76 560.383C1013.05 558.649 1011.65 557.228 1010.35 556.119C1009.3 555.348 1007.78 554.648 1006.36 554.262C1003.04 553.706 1000.17 553.969 997.712 556.231C996.7 556.953 995.953 557.867 995.206 558.782C991.35 563.187 991.062 561.356 986.292 563.231C986.149 561.425 986.319 559.523 986.32 557.741C989.331 556.611 993.859 555.289 995.932 552.666C996.728 551.462 997.668 549.392 997.91 547.947L998.007 547.369C998.467 542.842 994.978 538.842 991.15 536.865L990.332 536.431C990.694 535.155 991.056 533.879 991.538 532.771ZM1045.22 637.996C1097.81 646.797 1132.29 613.803 1139.4 574L1139.57 572.989C1146.17 533.547 1127.2 489.826 1071.57 480.518C1015.95 471.21 985.077 507.481 978.428 547.212L978.259 548.223C972.212 587.906 992.775 629.22 1045.22 637.996Z" fill="#151515"/>
<path d="M1178.62 654.676L1224.28 662.316L1242.58 552.948L1296.61 561.991L1303.07 523.416L1149.2 497.667L1142.75 536.242L1196.92 545.308L1178.62 654.676ZM1284.12 550.543L1279.45 550.059C1280.22 549 1280.99 547.941 1281.64 546.713C1281.88 546.159 1282.13 545.605 1282.22 545.027C1282.73 541.993 1279.99 538.861 1277.82 536.716C1277.2 536.018 1276.88 535.223 1276.98 534.645C1277.1 533.922 1277.65 533.272 1278.35 532.647C1279.58 531.516 1281.27 530.313 1282.67 529.061L1286.28 529.666C1285.63 533.567 1285.77 539.828 1287.21 543.634C1287.42 544.116 1287.47 544.718 1287.38 545.296C1287.06 547.174 1285.25 549.099 1284.12 550.543ZM1188.93 647.194L1190.17 639.825C1190.99 641.15 1193.9 645.054 1193.61 646.787L1193.56 647.076C1193.37 647.341 1193 647.726 1192.69 647.822L1188.93 647.194ZM1219.26 638.159C1217.67 637.002 1216.44 635.46 1216.78 633.437L1216.88 632.859C1217.31 631.15 1218.83 630.958 1220.52 630.646L1219.26 638.159ZM1221.31 625.878C1218.45 623.468 1213.25 620.816 1209.88 619.658C1209.59 619.609 1209.33 619.417 1209.04 619.368C1204.27 618.57 1198.24 625.285 1193.04 624.415L1192.75 624.367L1193.72 618.588L1196.8 617.915C1199.12 617.411 1203.43 616.499 1203.89 613.754L1203.94 613.465C1204.25 611.587 1202.49 609.659 1201.24 608.261C1199.22 606.141 1198.45 604.527 1198.84 601.324L1199.03 600.168C1199.44 597.712 1200.22 594.871 1201.04 592.632C1201.3 591.934 1201.57 591.236 1201.69 590.513C1202.05 588.346 1201.52 586.178 1199.4 584.636L1200.85 575.967C1201.6 575.944 1202.32 576.065 1202.9 576.161L1204.92 576.5C1206.22 576.717 1207.67 576.959 1209.47 576.816C1215.5 576.338 1213.21 569.57 1218.34 568.2C1220.82 567.576 1221.71 566.685 1221.96 565.241C1222.08 564.518 1222.05 563.772 1221.93 562.712C1221.69 560.593 1221.5 559.075 1221.55 557.004C1221.53 553.585 1219.6 552.668 1217.15 552.257C1215.41 551.967 1213.49 551.942 1211.75 551.652C1210.89 551.507 1210.05 551.217 1209.35 550.952C1207.54 550.204 1207.08 549.385 1205.5 548.228L1206.08 544.761C1207.18 545.243 1208.31 545.581 1209.62 545.798C1211.9 546.33 1214.94 546.838 1217.34 547.537C1220.31 548.479 1220.79 549.153 1223.24 550.455C1227.62 552.674 1228.2 556.334 1227.45 560.813L1227.11 562.836C1226.58 566.014 1227.83 567.412 1230.99 568.088L1230.14 573.145C1228.91 573.385 1227.68 573.625 1226.38 573.407L1225.23 573.214C1220.17 572.368 1219.76 577.497 1214.67 579.468C1212.75 580.334 1210.8 581.344 1209.11 582.547C1208.77 582.788 1207.74 583.654 1207.52 584.063C1207.28 584.617 1207.06 585.026 1206.96 585.604C1206.5 588.349 1209.13 590.422 1209.78 592.758C1209.97 593.384 1210.04 593.842 1209.94 594.42C1209.53 596.876 1206.02 597.476 1205.32 601.666C1205.24 602.099 1205.15 602.677 1205.19 603.279C1205.29 607.156 1208.54 609.037 1211.52 610.724C1216.99 613.57 1218.22 614.221 1222.55 618.51L1221.31 625.878ZM1245.35 544.353C1244.66 543.197 1244.05 542.353 1243.5 541.221C1241.89 537.536 1239.63 534.187 1236.98 531.367C1236.33 530.813 1233.93 528.331 1233.23 528.066C1232.67 527.824 1232.12 527.583 1231.4 527.462C1227.79 526.858 1222.56 528.805 1217.36 527.935L1215.33 527.596C1212.3 527.089 1210.04 528.195 1207.63 530.168C1206.04 531.684 1203.65 534.404 1201.87 535.294C1201.07 535.606 1200.57 535.967 1200.13 536.786L1196.67 536.205C1196.88 535.796 1196.98 535.218 1197.08 534.64C1197.54 531.895 1196.6 528.62 1194.87 526.547C1193.73 525.318 1193.52 523.946 1193.76 522.501C1193.91 521.634 1194.17 520.936 1194.46 520.093C1195.21 518.287 1196.1 516.506 1196.7 514.676L1203.06 515.74C1201.49 518.003 1198.77 519.181 1198.36 521.637L1198.34 521.781C1198 523.804 1200.98 525.492 1204.59 526.096C1207.77 526.628 1211.55 526.221 1213.89 524.681C1216.25 522.997 1218.08 522.709 1220.11 523.048C1221.98 523.362 1223.91 524.279 1226.37 524.69L1226.8 524.762C1229.4 525.197 1230.44 524.331 1230.8 522.164C1230.87 521.731 1230.97 521.153 1230.94 520.406L1242.79 522.389C1241.71 523.544 1241.37 524.675 1240.72 525.903C1240.5 526.312 1240.43 526.746 1240.36 527.179C1240.14 528.48 1240.5 529.877 1240.91 530.985C1242.23 533.731 1244.88 535.659 1247.67 536.721C1251.57 538.264 1254.65 542.938 1257.06 546.311L1245.35 544.353ZM1164.63 509.309C1163.16 510.103 1161.72 510.752 1160.25 511.546C1158.63 512.315 1157.79 513.808 1157.5 515.541C1156.85 519.442 1159.15 524.284 1162.91 525.804C1164.45 526.359 1166.11 527.082 1166.91 528.552C1167.36 529.371 1167.48 530.431 1167.77 531.37L1159.1 529.919C1158.36 527.27 1156.7 524.764 1154.02 523.871L1156.01 512.024L1156.25 511.471C1157.19 510.291 1157.94 509.377 1159.14 508.39L1164.63 509.309Z" fill="#151515"/>
<path d="M1402.22 616.052L1402.32 615.474C1406.41 591.057 1427.99 580.114 1451.04 583.525L1452.34 583.743C1464.9 585.846 1477.66 592.14 1487.58 603.007L1508 569.739C1494.55 553.379 1472.37 546.549 1450.85 542.947C1410.08 536.273 1365.59 554.522 1356.67 607.834L1356.38 609.568C1347.46 662.879 1383.58 694.619 1424.3 701.581C1445.83 705.183 1469.02 705.945 1487.06 694.855L1478.58 656.752C1465.67 663.8 1451.56 665.596 1438.99 663.493L1437.69 663.275C1414.67 658.829 1398.07 640.901 1402.22 616.052ZM1484.58 588.099C1483.25 587.134 1482.05 586.339 1480.73 585.375C1480.75 583.448 1480.78 581.522 1481.09 579.643C1481.38 577.91 1481.96 576.224 1482.83 574.587C1486.3 568.039 1491.62 570.86 1494.73 569.153L1496.68 570.816C1494.25 572.042 1492.66 573.558 1490.32 575.098C1487.16 577.095 1485.55 581.428 1484.89 585.329C1484.75 586.196 1484.58 587.207 1484.58 588.099ZM1476.82 559.027C1470.97 560.275 1460.18 563.519 1454.56 563.323C1451.17 563.2 1447.99 564.45 1445.36 566.833C1444.62 567.747 1442.98 569.552 1442.49 570.66L1442.4 571.238C1442.25 572.104 1442.37 573.164 1442.69 573.959C1440.16 573.981 1437.77 574.028 1435.48 574.388C1438.3 571.741 1439.75 568.418 1440.81 564.734C1441.75 561.773 1443.66 558.379 1445.03 555.49C1445.27 554.936 1445.73 553.973 1445.85 553.251C1446.02 552.239 1445.85 551.469 1444.84 551.299L1450.21 552.049C1451.46 554.338 1452.28 558.336 1454.25 558.964L1454.54 559.012C1456.13 559.278 1457.75 557.617 1458.66 556.582C1459.41 555.668 1460.57 554.97 1461.67 554.561L1462.13 554.49C1467.14 555.625 1472.08 557.193 1476.82 559.027ZM1444.41 551.227C1443.37 551.202 1442.6 551.37 1441.59 551.201C1441.16 551.128 1440.73 551.056 1440.32 550.839C1441.64 550.912 1443.11 551.009 1444.41 551.227ZM1401.54 558.014C1401.63 560.109 1401.97 562.541 1402.69 564.444C1402.88 565.071 1402.93 565.673 1402.83 566.251C1402.33 569.285 1397.94 572.412 1397.51 575.013C1397.34 576.024 1397.77 576.988 1399.26 577.832C1401.16 578.893 1402.9 580.074 1404.46 581.375C1406.17 582.701 1407.3 583.93 1409.04 584.22C1409.61 584.316 1410.22 584.269 1410.82 584.221C1408.6 585.929 1406.48 587.951 1404.48 590.141C1403.23 587.852 1401.23 586.478 1398.66 585.899C1394.51 584.909 1392.4 582.475 1386.33 581.46L1384.74 581.194C1381.95 581.023 1379.25 581.166 1376.89 582.85C1375.51 583.957 1374.02 585.786 1372.6 587.182C1374.65 582.921 1377.11 578.877 1379.95 575.194C1380.63 575.604 1381.18 575.845 1381.88 576.11C1382.29 576.327 1382.86 576.424 1383.3 576.497C1389.22 577.488 1394.38 572.41 1397.1 567.668C1397.51 566.994 1397.75 566.44 1397.85 565.862C1398.16 563.984 1397.39 562.37 1396.31 560.852C1397.97 559.793 1399.61 558.879 1401.54 558.014ZM1366.66 604.011L1367.67 604.181C1371.53 605.122 1374.1 609.266 1375.78 612.518C1378.36 617.553 1378.62 617.746 1383.68 618.592C1387.84 619.438 1389.14 622.328 1392.61 623.8C1392.68 626.039 1392.87 628.448 1393.26 630.591C1390.53 632.66 1389.26 634.971 1388.41 638.246C1387.76 640.365 1387.03 642.917 1386.7 644.94L1386.5 646.095C1386.19 647.974 1386.24 649.467 1387.25 651.418C1388.04 652.888 1388.35 654.573 1388.06 656.307C1387.87 657.463 1387.19 658.835 1386.42 659.894C1385.63 661.098 1383.63 664.179 1383.24 666.491C1383.09 667.358 1383.12 668.104 1383.62 668.634C1383.84 669.116 1384.27 669.189 1384.71 669.261C1385.72 669.43 1387.14 669.817 1388.58 670.058C1391.62 670.566 1395.01 670.689 1396.12 668.498C1398.03 665.104 1401.81 662.024 1405.88 662.556C1408.07 662.774 1410.16 662.679 1412.21 661.982C1415.92 664.682 1419.99 666.996 1424.44 668.781L1424.68 669.119C1427.28 673.118 1432.77 675.819 1437.27 677.315L1438.28 677.484C1442.33 678.161 1446.62 675.611 1449.92 673.639L1450.28 673.254C1452.49 673.327 1454.61 673.088 1456.73 672.848C1454.52 673.666 1452.37 674.941 1450.35 676.384C1447.7 678.02 1445.31 679.849 1442.54 681.316C1439.43 683.024 1434.45 686.199 1432.01 689.208C1432.66 690.653 1433.41 692.412 1434.2 693.881C1431.43 693.566 1428.69 693.107 1426.09 692.672C1427.44 689.927 1430.02 686.943 1431.68 684.102C1431.94 683.404 1432.35 682.73 1432.48 682.008C1432.62 681.141 1432.48 680.226 1431.68 679.647L1428.43 677.767C1426.53 676.706 1425.45 676.079 1423.59 674.729C1420.39 672.56 1422.35 669.767 1419.41 667.791C1417.94 666.802 1415.8 666.295 1414.06 666.005L1411.85 665.932C1405.15 665.999 1398.22 668.403 1394.05 673.795C1392.77 675.215 1391.76 676.827 1391.03 678.489C1385.21 674.246 1380.11 669.234 1375.87 663.476C1376.55 662.103 1377.34 660.9 1378.28 659.72C1380.28 656.639 1382.79 653.197 1383.83 649.658C1384.12 648.815 1384.41 647.972 1384.53 647.25C1385.18 643.349 1383.21 641.831 1383.02 639.422C1383.06 639.134 1382.94 638.965 1382.99 638.676C1383.35 636.509 1386.63 635.572 1387.96 632.081L1388.03 631.647C1388.32 629.914 1387.07 628.516 1385.74 627.552C1384.54 626.756 1383.05 625.913 1381.63 625.526C1373.1 624.1 1371.68 629.951 1368.14 632.477C1366.79 633.44 1366.07 633.319 1364.52 633.655L1364.09 628.236C1366.62 627.323 1369.66 626.048 1371.2 623.93C1372.14 622.751 1373.15 620.247 1373.42 618.658C1373.88 614.131 1370.25 610.106 1366.4 608.274L1365.72 607.864C1366.08 606.588 1366.3 605.287 1366.66 604.011ZM1473.53 691.403C1474.25 689.741 1474.95 688.225 1476.04 687.069L1476.73 690.008C1475.75 690.585 1474.64 690.994 1473.53 691.403ZM1467.16 670.881C1465.26 671.602 1462.75 672.371 1460.68 672.321C1462.97 671.962 1464.99 671.409 1467.16 670.881ZM1415.52 580.997C1415.71 580.732 1415.9 580.468 1415.95 580.179C1416.94 577.819 1416.84 578.397 1420.53 578.568C1418.77 579.313 1417.15 580.083 1415.52 580.997Z" fill="#151515"/>
<path d="M1521.37 559.947L1496.61 707.89L1610.31 726.917L1616.77 688.342L1548.72 676.955L1567.02 567.587L1521.37 559.947ZM1597.66 705.789C1598.21 707.812 1600.12 708.873 1601.99 709.187C1602.43 709.26 1602.86 709.332 1603.32 709.26C1603.61 709.309 1603.92 709.213 1604.21 709.261L1603.24 715.04L1602.79 715.112L1602.35 715.039C1599.61 714.58 1601.05 709.476 1591.95 707.952C1591.23 707.832 1590.36 707.686 1589.33 707.662C1577 706.787 1576.97 710.495 1572.13 711.022L1571.22 711.166L1562.55 709.715C1566.52 709.043 1569.92 706.493 1572.69 705.917C1574.54 705.485 1576.52 705.221 1578.13 704.451C1581.31 703.201 1582.81 700.481 1583.92 697.399C1584.38 695.545 1585.1 693.884 1585.97 692.247L1592.18 693.287C1591.65 693.792 1591.12 694.297 1590.61 694.658C1589.63 695.236 1589.02 696.174 1588.88 697.041C1588.64 698.486 1589.29 699.931 1590.75 700.92C1593.04 702.342 1597.16 703.477 1597.66 705.789ZM1549.8 573.765L1553.85 574.441C1553.48 576.609 1554.42 578.102 1555.99 579.404L1555.16 584.316C1553.82 583.496 1552.47 582.677 1551.02 582.435L1550.59 582.362C1547.51 582.143 1544.26 583.827 1541.77 585.343C1538.35 587.146 1535.2 589.143 1531.56 590.465C1528.89 591.355 1526.43 592.726 1524.6 594.795L1526.22 585.116C1526.22 585.116 1526.94 584.345 1527.42 583.238C1528.24 580.999 1528.34 581.312 1530.84 581.434C1533.2 581.532 1535.59 581.485 1538 581.294C1543.13 580.816 1547.1 578.362 1549.8 573.765ZM1549.58 617.69L1546.73 634.738L1544.82 636.35C1541.93 638.54 1539.93 641.621 1539.35 645.088C1539.28 645.522 1539.33 646.124 1539.25 646.557C1539.21 646.846 1539.13 647.279 1539.21 647.737C1539.28 649.086 1539.23 650.266 1539.03 651.422C1538.21 656.334 1535.37 660.016 1534.59 664.64C1534.5 665.217 1534.38 665.94 1534.4 666.686C1534.33 670.684 1536.8 673.624 1539.84 675.913L1539.09 680.392C1537.59 679.548 1536.39 678.753 1535.07 677.789C1530.81 674.848 1535.36 670.709 1525.83 669.113L1525.39 669.04C1524.53 668.895 1521.83 669.038 1520.94 669.038C1517.76 669.397 1514.65 670.213 1511.74 671.656L1512.61 666.455C1514.08 665.662 1515.62 665.325 1517.38 665.471C1522.31 666.149 1527.1 665.02 1528.48 659.458C1529.81 654.185 1531.95 653.801 1533.16 650.141L1533.26 649.563C1533.76 646.529 1530.61 644.962 1531.07 642.217C1531.14 641.784 1531.19 641.495 1531.41 641.085C1533.53 637.282 1541.14 633.506 1542.2 631.604C1542.8 630.665 1543.89 629.51 1544.11 628.21C1544.15 627.921 1544.18 627.777 1544.08 627.463C1543.77 625.777 1541.65 625.126 1540.21 624.884C1539.92 624.836 1539.51 624.619 1539.08 624.546C1538.38 624.281 1537.8 624.184 1537.08 624.063C1532.02 623.217 1525.49 624.947 1521.25 626.316C1520.6 626.653 1519.83 626.821 1519.21 627.013L1520.34 620.223C1520.61 620.416 1520.75 620.44 1521.02 620.633C1522.24 621.284 1523.38 621.622 1524.68 621.84C1526.27 622.105 1527.93 621.938 1529.45 620.855C1532.63 618.714 1535.66 618.331 1539.42 618.959C1543.17 619.588 1546.04 619.325 1549.58 617.69ZM1543.78 685.187L1550.57 686.324C1548.4 687.743 1545.17 690.173 1543.51 692.123C1545.55 697.663 1550.05 705.396 1555.04 708.458L1540.15 705.968L1540.18 705.823C1539.77 705.606 1539.19 705.51 1538.76 705.437L1537.84 705.581L1528.89 704.082C1532.69 703.531 1536.35 701.173 1537.03 697.128C1537.59 693.805 1542.91 688.606 1543.78 685.187Z" fill="#151515"/>
<path d="M1683.62 587.098L1637.82 579.433L1623.02 667.852C1615.65 711.917 1650.43 739.273 1688.83 745.849L1689.27 745.921C1727.55 752.328 1769.46 737.955 1776.89 693.601L1791.68 605.182L1745.88 597.518L1731.09 685.937C1728.65 700.529 1711.98 705.166 1696.38 702.555C1680.77 699.943 1666.4 689.964 1668.82 675.516L1683.62 587.098ZM1752.45 722.483C1749.49 725.106 1746.43 727.416 1742.96 729.509C1744.04 728.353 1744.86 727.005 1745.15 725.272C1745.73 721.804 1751.39 716.366 1751.95 713.043C1752.09 712.176 1751.93 711.405 1751.13 710.826C1750.07 710.055 1749.13 709.453 1748.03 708.97C1745.98 707.885 1744.9 707.258 1743.04 705.909C1739.34 703.209 1742.76 699.623 1736.09 697.764C1737.92 694.803 1739.39 691.337 1740.05 687.436L1743.82 664.898L1747.89 661.866C1748.56 661.385 1749.91 660.422 1750.32 659.748C1750.78 658.785 1751.87 657.63 1752.08 656.33C1752.13 656.041 1752.16 655.896 1752.06 655.583C1751.89 653.921 1749.63 653.246 1748.18 653.004C1747.63 652.763 1746.5 652.425 1745.92 652.328L1746.82 646.983L1747.54 647.103C1753.17 648.046 1756.62 646.989 1761.34 643.621C1762.86 642.538 1764.42 641.166 1764.74 639.288C1764.79 638.999 1764.86 638.566 1764.76 638.253C1764.62 636.446 1763.42 634.76 1762.48 633.266C1761.9 632.278 1761.8 631.074 1761.97 630.063C1762.1 629.341 1762.38 628.498 1762.65 627.8C1763.4 625.994 1764.48 623.948 1765.35 622.311C1766.17 620.963 1766.68 619.711 1766.87 618.555C1767.43 615.232 1765.24 613.232 1760.98 611.182C1760.28 610.917 1759.72 610.676 1759 610.555C1756.83 610.192 1754.64 610.865 1752.69 611.875L1753.37 607.83L1768.39 610.344L1769.67 611.597C1770.9 613.139 1771.47 615.909 1771.9 617.764C1772.58 619.956 1773.49 620.703 1774.65 620.896C1776.09 621.138 1777.8 620.681 1779.92 620.442L1779.37 623.765C1778.14 624.005 1776.91 624.245 1775.78 624.798L1774.16 625.568C1772.31 626.891 1770.84 628.576 1770.43 631.032L1770.35 631.465C1770.23 633.079 1770.59 634.476 1771.22 636.065C1771.51 637.005 1771.7 637.631 1771.6 638.209C1771.48 638.931 1770.95 639.437 1770.06 640.327C1769.17 641.218 1768.15 643.721 1767.72 646.322C1767.14 649.789 1767.4 653.546 1770.24 655.21C1771.88 656.078 1772.87 657.283 1773.15 659.113L1773.3 660.028L1772.06 667.397C1769.22 665.733 1774.48 660.968 1767.86 657.93C1766.6 657.423 1765.64 656.965 1764.63 656.796C1759.43 655.925 1757.72 660.837 1752.8 664.47C1750.42 666.299 1748.66 668.826 1747.86 671.812C1747.59 672.51 1747.45 673.377 1747.33 674.099C1747.21 674.821 1747.11 675.399 1747.18 675.857C1747.25 677.206 1747.18 678.53 1746.96 679.83C1746.19 684.454 1743.49 688.16 1742.72 692.784C1742.62 693.362 1742.5 694.084 1742.52 694.83C1742.35 702.079 1750.94 706.636 1756.89 708.374C1757.18 708.422 1757.59 708.639 1757.88 708.688C1759.61 708.978 1761.3 708.666 1763.03 708.065C1761.95 710.111 1760.88 712.013 1759.68 713.891L1759.03 714.227C1756.72 715.622 1753.32 718.173 1751.61 720.411L1752.45 722.483ZM1643.97 597.692C1646.69 598.295 1649.44 598.755 1652.28 599.527C1655.24 600.468 1655.72 601.143 1658.18 602.445C1662.41 604.639 1663.3 608.204 1662.6 612.394C1662.48 613.116 1662.24 613.67 1662.12 614.392L1662.02 614.97C1661.39 618.727 1663.9 619.74 1666.93 620.247L1668.81 620.562L1668.2 624.174L1668.06 624.149C1666.01 624.846 1663.77 625.808 1661.46 625.421L1660.3 625.228C1655.1 624.358 1654.69 629.487 1649.61 631.458C1647.68 632.324 1645.73 633.334 1644.04 634.537C1643.7 634.778 1642.67 635.644 1642.45 636.053C1642.21 636.607 1641.99 637.016 1641.92 637.449C1641.44 640.339 1644.09 642.267 1644.85 644.772C1645.05 645.399 1644.97 645.832 1644.9 646.265C1644.47 648.866 1640.95 649.466 1640.25 653.655C1640.18 654.089 1640.08 654.667 1640.13 655.269C1640.29 661.386 1648.53 662.764 1653.87 667.222C1656.35 669.271 1657.84 671.006 1660.01 673.151L1659.86 674.018C1659.16 678.207 1659.4 682.109 1660.43 685.698L1660.41 686.733C1660.26 689.382 1662.04 690.274 1662.4 690.78C1662.96 691.912 1663.65 693.069 1664.38 694.081C1662.88 693.237 1661.2 692.658 1659.46 692.368C1657.44 692.029 1655.49 691.257 1653.93 689.956C1652.46 688.967 1651.4 687.305 1651.71 685.427L1651.81 684.849C1652.63 681.719 1657.21 683.673 1658.22 681.169L1658.27 680.88C1658.66 678.568 1652.4 675.144 1650.9 674.301C1649 673.24 1646.93 672.299 1644.81 671.648L1644.09 671.527C1640.19 670.874 1635.49 674.989 1631.13 676.19C1631.32 674.143 1631.52 672.096 1631.88 669.929C1634.03 669.545 1638.53 668.368 1638.99 665.623L1639.01 665.479C1639.18 663.576 1637.43 661.649 1636.32 660.275C1635.43 659.384 1634.68 658.516 1634.13 657.384L1634.06 656.927L1638.84 628.32C1640.72 628.635 1642.46 628.925 1644.41 628.806C1650.43 628.328 1648.14 621.559 1653.28 620.19C1655.76 619.566 1656.65 618.675 1656.89 617.23C1657.01 616.508 1656.99 615.762 1656.87 614.702C1656.63 612.582 1656.44 611.065 1656.49 608.994C1656.46 605.575 1654.68 604.682 1652.23 604.271C1650.64 604.005 1648.85 604.004 1647.12 603.714C1645.68 603.472 1644.4 603.11 1643.2 602.315L1643.97 597.692ZM1645.34 714.658C1646.04 714.924 1646.61 715.02 1647.34 715.141L1648.35 715.31C1653.12 716.108 1655.21 713.34 1656.73 708.693C1657.51 705.852 1663.55 703.448 1666.23 701.668C1667.36 701.115 1668.37 700.393 1668.56 699.237L1668.61 698.948C1669.89 700.201 1671.45 701.503 1672.9 702.635C1668.58 702.657 1668.61 706.076 1665.88 708.146C1664.85 709.012 1664.22 710.095 1663.98 711.54C1663.59 713.851 1664.31 716.645 1665.18 718.573C1666.79 722.258 1668.52 722.548 1670.35 724.934C1671.34 726.138 1671.31 727.174 1671.14 728.185L1670.9 729.63C1670.81 730.208 1670.83 730.954 1671.02 731.581C1670.35 731.171 1669.65 730.905 1668.95 730.64L1668.71 730.303C1668.4 729.508 1667.65 728.64 1667.05 727.797C1665.15 724.954 1664.57 723.075 1663.25 720.329C1662.24 718.378 1660.92 715.632 1658.8 714.98L1658.66 714.956C1656.78 714.642 1655.04 718.807 1649.33 718.297L1649.04 718.249C1647.74 717.14 1646.47 715.887 1645.34 714.658ZM1687.01 736.335C1690.69 735.615 1695.87 733.066 1699.68 731.623C1702.71 730.349 1704.98 728.352 1706.23 725.294C1706.67 724.476 1706.84 723.464 1707.01 722.453C1707.59 718.986 1706.89 715.156 1705.47 712.097C1706.97 712.05 1708.46 712.003 1709.98 711.811C1709.49 715.591 1711.8 717.76 1711.29 720.794L1711.25 721.083C1710.86 722.504 1710.38 724.502 1709.99 726.814C1709.26 731.148 1709.14 736.326 1712.54 738.23C1710.75 738.229 1708.95 738.373 1707.16 738.371C1706.88 738.323 1706.11 737.6 1704.52 737.334C1703.79 737.213 1702.9 737.213 1701.84 737.332C1700.93 737.476 1700.37 738.126 1700.37 738.126C1697 737.859 1693.66 737.447 1690.33 736.891L1687.01 736.335ZM1724.72 736.408C1726.34 735.639 1727.83 734.7 1729.44 733.931C1734.17 731.454 1733.9 733.043 1737.75 732.202C1733.59 734.03 1729.2 735.376 1724.72 736.408ZM1696.78 711.682C1695.67 712.09 1694.59 712.355 1693.38 712.45C1692.93 712.522 1692.49 712.45 1691.91 712.353C1688.88 711.845 1684.96 709.555 1682.72 707.844C1686.59 709.532 1690.86 710.691 1695.05 711.392L1696.78 711.682Z" fill="#151515"/>
<path d="M1855.47 655.362L1886.82 660.609C1893.9 661.793 1896.49 667.575 1895.62 672.776C1894.83 677.544 1890.99 681.803 1884.9 680.932L1852.11 675.444L1855.47 655.362ZM1933.99 662.711C1934.21 664.084 1934.43 665.456 1934.47 666.949C1931.53 666.755 1929.53 668.054 1927.41 670.075C1925.29 672.097 1921.44 672.046 1920.24 673.924C1920.04 674.189 1919.99 674.478 1919.95 674.767C1919.75 675.922 1920.09 677.464 1919.92 678.475L1919.87 678.764C1919.44 679.583 1918.28 679.389 1917.53 680.304C1917.34 680.569 1917.27 681.002 1917.2 681.435C1917.03 682.447 1917 683.482 1917 684.373L1916.98 684.518C1916.54 687.118 1911.03 689.908 1910.49 693.087C1910.4 693.665 1910.44 694.267 1910.78 694.917C1911.31 696.194 1912.85 696.749 1914.59 697.039C1917.33 697.498 1920.8 697.187 1922.44 697.164C1918.99 700.004 1915.38 702.072 1912.05 703.298C1912.32 703.491 1912.75 703.564 1913.04 703.612C1910.68 703.514 1908.03 703.368 1905.57 702.957L1903.99 702.691C1900.66 702.135 1898.21 703.506 1896.69 706.371C1894.88 705.623 1892.91 704.996 1890.88 704.657L1883.95 703.497C1884.12 702.485 1884.14 701.45 1883.73 700.342C1883.23 698.921 1881.91 697.956 1880.53 697.281C1879.43 696.799 1878.29 696.461 1877.28 696.292C1875.98 696.074 1874.8 696.025 1873.67 696.578C1871.74 697.444 1870.06 699.538 1868.63 700.934L1862.28 699.87C1862.47 699.605 1862.81 699.365 1863 699.1C1863.46 698.137 1864.54 696.982 1864.76 695.681C1864.81 695.393 1864.83 695.248 1864.74 694.935C1864.43 693.249 1862.31 692.597 1860.86 692.356C1860.6 692.163 1860.16 692.09 1859.9 691.897C1859.34 691.656 1858.77 691.56 1858.04 691.439C1853.13 690.617 1846.44 692.467 1842.05 693.812C1838.27 695.11 1833.41 696.672 1829.84 698.452C1825 700.761 1822.03 703.384 1820.54 708.777C1820.03 710.92 1819.31 713.472 1818.82 715.471L1818.65 716.482C1818.32 718.505 1818.51 720.022 1819.52 721.973C1820.29 723.587 1820.45 725.249 1820.19 726.838C1819.97 728.138 1819.46 729.39 1818.69 730.45C1817.75 731.629 1815.75 734.71 1815.37 737.022C1815.22 737.889 1815.24 738.635 1815.75 739.165C1815.99 739.503 1816.4 739.72 1816.83 739.792C1817.84 739.961 1819.12 740.323 1820.56 740.565C1823.6 741.073 1827.14 741.22 1828.42 738.909C1829.5 736.862 1831.28 735.082 1833.4 733.951L1833.74 733.71L1855.7 737.385L1855.82 737.554C1857.77 742.781 1864.49 746.133 1869.42 747.701L1870.58 747.895C1873.32 748.354 1876.17 747.345 1878.62 745.974L1885.03 742.293C1893.29 743.527 1901 740.064 1904.9 733.589C1907.53 732.988 1907.07 732.169 1911.17 732.557C1913.82 732.703 1917.28 733.284 1919.91 733.574C1928.6 734.881 1928.14 731.388 1931.18 729.223C1932.53 728.261 1933.2 726.888 1933.47 725.299C1933.86 722.988 1933.09 720.483 1931.93 718.507C1931.24 717.351 1930.71 716.074 1930.52 714.557C1933.6 718.34 1935.37 722.796 1936.14 727.974L1935.95 728.239C1933.71 731.874 1931.58 737.459 1927.2 737.914C1925.68 738.106 1924.94 739.02 1924.74 740.176C1924.33 742.632 1925.97 746.173 1926.76 747.643C1929.36 747.187 1931.96 746.731 1934.59 746.131C1933.94 748.25 1933 750.32 1931.96 752.077C1929.02 751.883 1925.82 751.495 1922.83 751.59C1921.05 751.588 1917.75 751.779 1916.96 753.874C1915.92 756.522 1913.75 760.614 1911.27 762.13C1910.42 762.731 1909.85 763.526 1909.68 764.537C1909.6 764.97 1909.53 765.404 1909.75 765.886C1907.92 766.173 1905.97 766.293 1904.04 766.267C1904.26 765.858 1904.5 765.304 1904.57 764.871C1905.25 762.608 1906.21 760.393 1907.56 758.539C1908.96 756.397 1910.45 755.459 1912.72 754.352C1914.33 753.583 1914.77 751.873 1915.06 750.14L1915.49 747.539C1915.66 746.528 1915.97 745.541 1916.5 745.035C1917.4 744.145 1918.62 743.014 1918.84 741.713C1919.01 739.811 1916.85 738.557 1915.47 737.882C1914.92 737.641 1914.51 737.424 1913.93 737.327C1908.15 736.36 1898.73 742.952 1892.98 742.732C1888.98 742.657 1885.68 744.63 1882.5 746.771C1879.97 748.575 1877.44 750.38 1874.67 751.847C1871.56 753.555 1866.57 756.73 1864.16 759.594L1864.48 760.389L1860.43 759.712C1861.47 757.955 1862.94 756.27 1863.83 754.489C1864.07 753.935 1864.48 753.261 1864.6 752.539C1864.75 751.672 1864.6 750.757 1863.81 750.178C1862.75 749.407 1861.81 748.804 1860.7 748.322C1858.66 747.237 1857.57 746.61 1855.72 745.26C1852.66 743.115 1854.47 740.298 1851.54 738.322C1850.09 737.189 1847.92 736.826 1846.19 736.536L1843.98 736.463C1837.28 736.53 1830.51 738.814 1826.2 744.181C1824.51 746.275 1823.09 748.562 1822.65 751.163C1822.53 751.885 1822.56 752.631 1822.58 753.378L1818.68 752.725C1817.72 750.485 1816.9 749.16 1815.45 748.918C1814.73 748.797 1813.82 748.941 1812.68 749.494L1809.14 751.13L1801.77 749.897L1802.33 746.574C1802.74 746.791 1803.17 746.863 1803.61 746.936C1803.9 746.984 1804.18 747.032 1804.64 746.96C1806.74 746.865 1807.58 745.373 1807.87 743.639C1808.38 740.605 1807.42 736.583 1807.68 734.994C1808.29 732.273 1814.24 725.991 1816.1 720.213C1816.39 719.37 1816.51 718.648 1816.61 718.07C1817.31 713.88 1815.33 712.362 1815.17 709.809L1815.26 709.231C1815.63 707.064 1818.9 706.127 1820.08 702.612L1820.18 702.034C1820.47 700.3 1819.22 698.903 1817.87 698.083C1816.67 697.287 1815.18 696.444 1813.9 696.081L1813.47 696.009C1812.6 695.864 1811.27 695.791 1810.82 695.863L1812.1 688.206C1813.06 688.664 1814.65 688.93 1815.81 689.123C1820.41 690.041 1821.87 693.703 1826.01 694.693L1826.59 694.789C1829.48 695.273 1831.53 694.576 1832.9 691.687L1832.98 691.254C1833.27 689.52 1831.65 686.725 1832.23 683.258C1832.5 681.669 1833.39 679.887 1835.18 678.106C1837.08 676.494 1838.45 674.496 1838.86 672.04C1838.96 671.462 1839.03 671.029 1838.99 670.427C1839.06 668.211 1838.15 666.573 1838 664.767C1837.55 660.384 1834.92 657.42 1830.78 656.43C1826.79 655.464 1824.81 653.054 1819.18 652.111L1818.17 651.942L1819.01 646.886C1823.35 645.829 1827.11 642.002 1829.4 638.078C1829.64 637.525 1829.88 636.971 1829.98 636.393C1830.48 633.359 1827.74 630.227 1825.6 627.937C1824.83 627.214 1824.64 626.588 1824.73 626.01C1824.86 625.288 1825.41 624.638 1826.11 624.012C1827.19 622.857 1828.71 621.775 1830.06 620.812L1833.96 621.465C1833.31 625.366 1833.52 631.194 1834.84 634.831C1835.04 635.457 1835.08 636.059 1834.99 636.637C1834.72 638.226 1833.61 639.526 1832.84 640.585C1831.68 642.174 1829.9 643.955 1829.63 645.544C1829.46 646.555 1829.9 647.519 1831.39 648.363C1833.29 649.424 1835.03 650.605 1836.73 651.93C1837.79 652.702 1838.95 653.786 1840.18 654.437C1840.44 654.63 1840.87 654.702 1841.31 654.775C1843.19 655.089 1845.26 654.248 1846.68 652.852L1845.06 662.532C1845.04 662.676 1843.76 664.096 1842.82 666.167C1842.55 666.865 1842.26 667.708 1842.12 668.574C1841.85 670.164 1841.85 671.946 1841.78 673.27C1841.68 674.739 1841.78 675.943 1841.58 677.099C1841.36 678.399 1840.86 679.651 1839.46 680.903C1838.62 681.504 1837.7 682.539 1837.53 683.55C1837.46 683.984 1837.56 684.297 1837.65 684.61C1838.11 686.32 1840.32 687.285 1841.67 688.105C1842.9 688.756 1844.17 689.118 1845.33 689.311C1847.06 689.601 1848.73 689.434 1850.24 688.351C1853.42 686.21 1856.46 685.827 1860.22 686.455C1861.66 686.697 1862.7 686.722 1864.02 686.795L1864.07 686.506L1880.1 689.189C1880.34 691.309 1881.04 693.356 1882.94 694.417C1887.52 697.262 1884.75 700.511 1887.39 701.548L1887.83 701.621C1890.72 702.104 1896.74 698.954 1900.69 698.426C1905.55 697.755 1906.59 693.325 1907.56 689.328C1908.43 685.018 1912.77 680.397 1914.91 676.449C1915.32 675.775 1915.59 675.077 1915.71 674.354C1916.22 671.32 1914.27 667.875 1910.94 667.319C1910.51 667.247 1910.2 667.343 1909.76 667.27C1908.44 667.197 1907.4 667.172 1906.39 667.003C1905.67 666.882 1904.95 666.761 1904.25 666.496C1903.91 664.955 1903.41 663.533 1902.74 662.233C1904.28 662.788 1905.99 663.222 1907.58 663.488L1908.73 663.681C1911.21 663.948 1912.18 662.624 1912.56 660.313C1913 657.712 1912.74 653.955 1913.36 650.199C1913.65 648.465 1914.09 646.755 1914.96 645.118C1916.48 642.254 1918.33 640.93 1921.37 640.547C1922.69 641.511 1923.82 642.74 1924.95 643.969C1924.13 644.426 1923.29 645.028 1922.47 645.485C1919.31 647.481 1917.7 651.815 1917.02 655.86C1916.73 657.594 1916.58 659.352 1916.63 660.845C1916.65 663.374 1918.07 664.651 1919.81 664.941C1921.4 665.207 1923.25 664.775 1924.87 664.005C1928.07 662.61 1930.28 664.466 1933.99 662.711ZM1876 628.5L1898.11 632.199C1894.88 632.848 1890.09 633.976 1886.84 633.878C1882.12 633.682 1878 636.112 1875.42 639.987L1874.77 641.215L1874.65 641.937C1874.23 644.393 1875.68 646.417 1877.68 647.791C1878.61 648.394 1879.43 648.828 1880.25 649.262C1881.07 649.696 1881.58 650.226 1882.23 650.78L1863.44 647.637C1868.86 645.425 1871.3 640.635 1872.94 635.265C1873.62 633.002 1874.92 630.547 1876 628.5ZM1894.5 774.473C1925.13 779.598 1941.51 761.548 1944.83 741.755C1947.53 725.573 1941.5 708.375 1927.3 701.839C1936.19 696.644 1941.39 687.713 1943.09 677.599C1946.74 655.784 1933.99 628.996 1907.26 624.523L1816.1 609.268L1791.34 757.211L1894.5 774.473ZM1889.38 713.615C1896.75 714.848 1899.4 720.34 1898.58 725.252C1897.75 730.164 1893.3 734.617 1886.07 733.408L1843.6 726.3L1846.91 706.507L1889.38 713.615Z" fill="#151515"/>
<path d="M5.34058e-05 -11H1920V460L5.34058e-05 145.5V-11Z" fill="#151515"/>
<path d="M5.34058e-05 640L1920 965.078V1075H5.34058e-05V640Z" fill="#151515"/>
<path d="M5.34058e-05 1070H1920V1080H5.34058e-05V1070Z" fill="white"/>
<defs>
<linearGradient id="paint0_linear_295_638" x1="1148.75" y1="218.11" x2="949.416" y2="993.165" gradientUnits="userSpaceOnUse">
<stop stop-color="#08A53F"/>
<stop offset="1" stop-color="#62EA10"/>
</linearGradient>
</defs>
</svg>
