<svg width="49" height="49" viewBox="0 0 49 49" fill="none" xmlns="http://www.w3.org/2000/svg">
<path d="M40.635 8.9859C37.575 7.6059 34.295 6.5859 30.865 6.0059C30.8344 6.00004 30.8028 6.00382 30.7745 6.01671C30.7462 6.02961 30.7226 6.051 30.707 6.0779C30.287 6.8159 29.819 7.7779 29.491 8.5379C25.8532 7.99437 22.1548 7.99437 18.517 8.5379C18.1516 7.69562 17.7397 6.87435 17.283 6.0779C17.2675 6.05067 17.2441 6.0288 17.2158 6.01522C17.1876 6.00164 17.1559 5.99699 17.125 6.0019C13.697 6.5819 10.417 7.6019 7.35496 8.9839C7.32862 8.99495 7.30629 9.01379 7.29096 9.0379C1.06696 18.1879 -0.639039 27.1119 0.198961 35.9239C0.201293 35.9455 0.207992 35.9664 0.218651 35.9853C0.22931 36.0042 0.243705 36.0207 0.260961 36.0339C3.89375 38.6787 7.94563 40.6935 12.247 41.9939C12.2769 42.0031 12.309 42.0031 12.339 41.9938C12.369 41.9846 12.3954 41.9665 12.415 41.9419C13.3406 40.704 14.1608 39.3908 14.867 38.0159C14.8768 37.9971 14.8824 37.9764 14.8835 37.9552C14.8846 37.9341 14.8812 37.9129 14.8734 37.8932C14.8656 37.8735 14.8537 37.8556 14.8385 37.8409C14.8232 37.8262 14.805 37.815 14.785 37.8079C13.493 37.3214 12.2411 36.7342 11.041 36.0519C11.0194 36.0396 11.0012 36.0221 10.9881 36.0011C10.9749 35.98 10.9672 35.956 10.9656 35.9312C10.964 35.9064 10.9686 35.8816 10.979 35.8591C10.9893 35.8365 11.0051 35.8169 11.025 35.8019C11.277 35.6159 11.529 35.4219 11.769 35.2279C11.7906 35.2105 11.8166 35.1993 11.8441 35.1958C11.8717 35.1923 11.8997 35.1965 11.925 35.2079C19.779 38.7359 28.285 38.7359 36.047 35.2079C36.0723 35.1958 36.1006 35.1911 36.1285 35.1942C36.1565 35.1974 36.183 35.2084 36.205 35.2259C36.445 35.4219 36.695 35.6159 36.949 35.8019C36.969 35.8165 36.985 35.8359 36.9957 35.8583C37.0064 35.8807 37.0114 35.9054 37.0102 35.9301C37.009 35.9549 37.0017 35.979 36.9889 36.0002C36.9761 36.0215 36.9583 36.0392 36.937 36.0519C35.741 36.7399 34.497 37.3219 33.191 37.8059C33.1709 37.8132 33.1526 37.8247 33.1374 37.8396C33.1221 37.8545 33.1102 37.8725 33.1024 37.8923C33.0947 37.9122 33.0912 37.9335 33.0924 37.9548C33.0935 37.9761 33.0991 37.997 33.109 38.0159C33.829 39.3899 34.653 40.6979 35.559 41.9399C35.5778 41.9654 35.604 41.9844 35.6341 41.9945C35.6642 42.0045 35.6966 42.005 35.727 41.9959C40.0357 40.6992 44.0942 38.6835 47.731 36.0339C47.7487 36.0215 47.7636 36.0054 47.7746 35.9868C47.7857 35.9682 47.7926 35.9474 47.795 35.9259C48.795 25.7379 46.119 16.8859 40.697 9.0419C40.6837 9.01641 40.6617 8.99654 40.635 8.9859ZM16.041 30.5579C13.677 30.5579 11.727 28.4199 11.727 25.7979C11.727 23.1739 13.639 21.0379 16.041 21.0379C18.461 21.0379 20.393 23.1919 20.355 25.7979C20.355 28.4219 18.443 30.5579 16.041 30.5579ZM31.991 30.5579C29.625 30.5579 27.677 28.4199 27.677 25.7979C27.677 23.1739 29.587 21.0379 31.991 21.0379C34.411 21.0379 36.343 23.1919 36.305 25.7979C36.305 28.4219 34.413 30.5579 31.991 30.5579Z" fill="#62EA10"/>
</svg>
