<svg width="338" height="80" viewBox="0 0 338 80" fill="none" xmlns="http://www.w3.org/2000/svg">
<mask id="path-1-inside-1_103_63" fill="white">
<path d="M74.3937 18.9859C72.4912 14.773 69.1108 12.9667 64.5612 13.4779C60.238 13.9661 56.7897 16.3008 53.599 19.0806C52.7072 19.8531 52.0646 20.0771 50.8925 19.5344C43.6476 16.1802 36.3376 16.1802 29.0955 19.5286C28.0678 20.0025 27.4308 19.9795 26.5475 19.1898C23.7815 16.7086 20.721 14.6696 17.0717 13.7334C11.8992 12.4383 7.68649 14.2992 5.54048 19.1639C2.29317 26.5472 2.70085 33.8931 6.29074 41.0409C7.78558 44.0247 10.1722 45.8138 13.6743 45.4921C14.7473 45.3945 15.1239 45.8253 15.373 46.8677C18.1787 58.6419 27.5894 66.3181 39.5509 66.6569C45.3166 66.8202 50.9605 64.9555 55.5252 61.3789C60.0899 57.8023 63.2944 52.7342 64.5952 47.0343C64.833 46.0205 65.0765 45.3629 66.3363 45.4893C69.7337 45.8281 72.1345 44.1022 73.6208 41.196C77.3353 33.942 77.7231 26.4725 74.3937 18.9859ZM66.9337 24.2498C64.7594 24.1809 62.6615 24.4479 60.7731 25.6512L60.071 26.0504C60.4136 26.2629 60.742 26.1509 61.0732 26.0274C62.9011 25.7966 64.7568 25.985 66.5033 26.5788C67.1064 26.7999 67.6868 27.133 67.4518 27.9141C67.2168 28.6953 66.5826 28.6637 65.9456 28.4655C63.8355 27.757 61.5509 27.7955 59.4651 28.5747C57.8259 29.195 58.1203 27.3656 57.4097 26.797C56.8435 26.3261 57.254 25.6483 57.7693 25.2233C60.4645 23.0236 63.5646 22.0931 66.9931 22.2281C67.6839 22.2539 68.4087 22.4348 68.3209 23.3768C68.236 24.1895 67.599 24.2814 66.9337 24.2498ZM12.5136 27.8194C12.3182 26.9378 13.1138 26.7453 13.7479 26.507C15.4381 25.8809 17.2048 25.9728 18.9771 25.7718C17.3039 24.4566 15.4042 24.2498 13.4507 24.2498C12.6806 24.2498 11.6529 24.4135 11.6982 23.2188C11.7378 22.0701 12.7797 22.2166 13.5328 22.2137C16.4867 22.1459 19.3792 23.0741 21.7572 24.8529C22.4339 25.3583 23.2747 25.9039 22.516 26.9435C21.9129 27.7677 21.8025 29.2409 20.0472 28.4713C18.2098 27.6586 16.228 27.8251 14.3 28.4081C13.5837 28.6206 12.7429 28.859 12.5136 27.8194ZM22.1394 41.1472C22.3206 39.8003 23.1502 38.9934 24.5006 39.0508C25.8511 39.1082 26.6155 39.9812 26.6976 41.3338C26.774 42.5658 25.5651 43.6915 24.3194 43.6312C23.0737 43.5709 21.9724 42.405 22.1394 41.1472ZM32.2381 50.1616C32.1786 49.3633 32.2381 48.5534 32.2381 47.7465C32.2381 44.4296 32.6713 41.1845 34.1633 38.1807C35.3722 35.7425 37.1869 34.0827 40.0209 34.0999C42.7841 34.0999 44.5705 35.777 45.7171 38.1204C47.7273 42.2528 48.2199 46.6782 47.6083 51.1839C47.178 54.3773 44.9697 56.3244 41.7762 56.7006C40.8039 56.8063 39.8243 56.8246 38.8488 56.7551C34.9135 56.5197 32.5467 54.1418 32.2381 50.1616ZM53.2961 41.2908C53.4008 39.9324 54.2021 39.1829 55.561 39.0192C56.852 39.1456 57.6985 39.8377 57.8457 41.2017C57.9816 42.4624 56.8888 43.614 55.6176 43.6485C54.3464 43.6829 53.1998 42.5371 53.2961 41.2908Z"/>
<path d="M45.87 48.5245V47.5395C45.8514 44.8787 45.3285 42.2463 44.3299 39.7858C43.5003 37.8359 42.3707 36.1071 39.9727 36.0956C37.5748 36.0841 36.3885 37.7698 35.5873 39.7571C34.2114 43.1515 33.8886 46.7297 34.2227 50.3538C34.3756 52.0166 35.072 53.4582 36.6773 54.2508C41.5327 56.6401 45.8502 53.955 45.87 48.5245Z"/>
</mask>
<path d="M74.3937 18.9859C72.4912 14.773 69.1108 12.9667 64.5612 13.4779C60.238 13.9661 56.7897 16.3008 53.599 19.0806C52.7072 19.8531 52.0646 20.0771 50.8925 19.5344C43.6476 16.1802 36.3376 16.1802 29.0955 19.5286C28.0678 20.0025 27.4308 19.9795 26.5475 19.1898C23.7815 16.7086 20.721 14.6696 17.0717 13.7334C11.8992 12.4383 7.68649 14.2992 5.54048 19.1639C2.29317 26.5472 2.70085 33.8931 6.29074 41.0409C7.78558 44.0247 10.1722 45.8138 13.6743 45.4921C14.7473 45.3945 15.1239 45.8253 15.373 46.8677C18.1787 58.6419 27.5894 66.3181 39.5509 66.6569C45.3166 66.8202 50.9605 64.9555 55.5252 61.3789C60.0899 57.8023 63.2944 52.7342 64.5952 47.0343C64.833 46.0205 65.0765 45.3629 66.3363 45.4893C69.7337 45.8281 72.1345 44.1022 73.6208 41.196C77.3353 33.942 77.7231 26.4725 74.3937 18.9859ZM66.9337 24.2498C64.7594 24.1809 62.6615 24.4479 60.7731 25.6512L60.071 26.0504C60.4136 26.2629 60.742 26.1509 61.0732 26.0274C62.9011 25.7966 64.7568 25.985 66.5033 26.5788C67.1064 26.7999 67.6868 27.133 67.4518 27.9141C67.2168 28.6953 66.5826 28.6637 65.9456 28.4655C63.8355 27.757 61.5509 27.7955 59.4651 28.5747C57.8259 29.195 58.1203 27.3656 57.4097 26.797C56.8435 26.3261 57.254 25.6483 57.7693 25.2233C60.4645 23.0236 63.5646 22.0931 66.9931 22.2281C67.6839 22.2539 68.4087 22.4348 68.3209 23.3768C68.236 24.1895 67.599 24.2814 66.9337 24.2498ZM12.5136 27.8194C12.3182 26.9378 13.1138 26.7453 13.7479 26.507C15.4381 25.8809 17.2048 25.9728 18.9771 25.7718C17.3039 24.4566 15.4042 24.2498 13.4507 24.2498C12.6806 24.2498 11.6529 24.4135 11.6982 23.2188C11.7378 22.0701 12.7797 22.2166 13.5328 22.2137C16.4867 22.1459 19.3792 23.0741 21.7572 24.8529C22.4339 25.3583 23.2747 25.9039 22.516 26.9435C21.9129 27.7677 21.8025 29.2409 20.0472 28.4713C18.2098 27.6586 16.228 27.8251 14.3 28.4081C13.5837 28.6206 12.7429 28.859 12.5136 27.8194ZM22.1394 41.1472C22.3206 39.8003 23.1502 38.9934 24.5006 39.0508C25.8511 39.1082 26.6155 39.9812 26.6976 41.3338C26.774 42.5658 25.5651 43.6915 24.3194 43.6312C23.0737 43.5709 21.9724 42.405 22.1394 41.1472ZM32.2381 50.1616C32.1786 49.3633 32.2381 48.5534 32.2381 47.7465C32.2381 44.4296 32.6713 41.1845 34.1633 38.1807C35.3722 35.7425 37.1869 34.0827 40.0209 34.0999C42.7841 34.0999 44.5705 35.777 45.7171 38.1204C47.7273 42.2528 48.2199 46.6782 47.6083 51.1839C47.178 54.3773 44.9697 56.3244 41.7762 56.7006C40.8039 56.8063 39.8243 56.8246 38.8488 56.7551C34.9135 56.5197 32.5467 54.1418 32.2381 50.1616ZM53.2961 41.2908C53.4008 39.9324 54.2021 39.1829 55.561 39.0192C56.852 39.1456 57.6985 39.8377 57.8457 41.2017C57.9816 42.4624 56.8888 43.614 55.6176 43.6485C54.3464 43.6829 53.1998 42.5371 53.2961 41.2908Z" fill="url(#paint0_linear_103_63)"/>
<path d="M45.87 48.5245V47.5395C45.8514 44.8787 45.3285 42.2463 44.3299 39.7858C43.5003 37.8359 42.3707 36.1071 39.9727 36.0956C37.5748 36.0841 36.3885 37.7698 35.5873 39.7571C34.2114 43.1515 33.8886 46.7297 34.2227 50.3538C34.3756 52.0166 35.072 53.4582 36.6773 54.2508C41.5327 56.6401 45.8502 53.955 45.87 48.5245Z" fill="url(#paint1_linear_103_63)"/>
<path d="M74.3937 18.9859L75.3075 18.5795L75.3051 18.5743L74.3937 18.9859ZM64.5612 13.4779L64.4495 12.4841L64.449 12.4842L64.5612 13.4779ZM53.599 19.0806L54.2538 19.8365L54.2559 19.8346L53.599 19.0806ZM50.8925 19.5344L51.3127 18.627L51.3126 18.6269L50.8925 19.5344ZM29.0955 19.5286L29.5142 20.4368L29.5152 20.4363L29.0955 19.5286ZM26.5475 19.1898L25.8798 19.9342L25.881 19.9353L26.5475 19.1898ZM17.0717 13.7334L17.3202 12.7648L17.3146 12.7634L17.0717 13.7334ZM5.54048 19.1639L4.62555 18.7603L4.62511 18.7613L5.54048 19.1639ZM6.29074 41.0409L7.18481 40.593L7.18436 40.5921L6.29074 41.0409ZM13.6743 45.4921L13.5837 44.4963L13.5829 44.4963L13.6743 45.4921ZM15.373 46.8677L16.3458 46.6359L16.3456 46.6353L15.373 46.8677ZM39.5509 66.6569L39.5226 67.6565H39.5226L39.5509 66.6569ZM64.5952 47.0343L63.6216 46.8059L63.6202 46.8118L64.5952 47.0343ZM66.3363 45.4893L66.2365 46.4843L66.2371 46.4843L66.3363 45.4893ZM73.6208 41.196L72.7307 40.7402L72.7305 40.7407L73.6208 41.196ZM66.9337 24.2498L66.9811 23.2509L66.9732 23.2505L66.9654 23.2503L66.9337 24.2498ZM60.7731 25.6512L61.2674 26.5205L61.2893 26.5081L61.3105 26.4946L60.7731 25.6512ZM60.071 26.0504L59.5768 25.1811L58.1136 26.0129L59.5439 26.9002L60.071 26.0504ZM61.0732 26.0274L60.9479 25.0353L60.8327 25.0498L60.7239 25.0904L61.0732 26.0274ZM66.5033 26.5788L66.8476 25.6399L66.8365 25.6358L66.8252 25.632L66.5033 26.5788ZM65.9456 28.4655L65.6273 29.4135L65.6379 29.4171L65.6486 29.4204L65.9456 28.4655ZM59.4651 28.5747L59.1152 27.6379L59.1112 27.6394L59.4651 28.5747ZM57.4097 26.797L56.7703 27.5659L56.7776 27.5719L56.785 27.5778L57.4097 26.797ZM57.7693 25.2233L57.137 24.4486L57.133 24.4519L57.7693 25.2233ZM66.9931 22.2281L66.9538 23.2273L66.9557 23.2274L66.9931 22.2281ZM68.3209 23.3768L69.3156 23.4807L69.3166 23.4696L68.3209 23.3768ZM12.5136 27.8194L13.4901 27.604L13.4899 27.6031L12.5136 27.8194ZM13.7479 26.507L13.4006 25.5692L13.3961 25.5709L13.7479 26.507ZM18.9771 25.7718L19.0898 26.7655L21.51 26.4909L19.5951 24.9856L18.9771 25.7718ZM11.6982 23.2188L12.6975 23.2567L12.6976 23.2533L11.6982 23.2188ZM13.5328 22.2137L13.5366 23.2137L13.5462 23.2137L13.5557 23.2135L13.5328 22.2137ZM21.7572 24.8529L21.1583 25.6536L21.1588 25.654L21.7572 24.8529ZM22.516 26.9435L23.323 27.534L23.3237 27.533L22.516 26.9435ZM20.0472 28.4713L19.6427 29.3858L19.6457 29.3871L20.0472 28.4713ZM14.3 28.4081L14.5845 29.3668L14.5894 29.3653L14.3 28.4081ZM22.1394 41.1472L21.1484 41.0138L21.1481 41.0155L22.1394 41.1472ZM26.6976 41.3338L25.6994 41.3944L25.6995 41.3958L26.6976 41.3338ZM32.2381 50.1616L31.2409 50.2359L31.2411 50.2389L32.2381 50.1616ZM34.1633 38.1807L35.0589 38.6255L35.0592 38.6249L34.1633 38.1807ZM40.0209 34.0999L40.0148 35.0999H40.0209V34.0999ZM45.7171 38.1204L46.6164 37.6829L46.6154 37.6808L45.7171 38.1204ZM47.6083 51.1839L46.6174 51.0495L46.6173 51.0504L47.6083 51.1839ZM41.7762 56.7006L41.8843 57.6948L41.8932 57.6937L41.7762 56.7006ZM38.8488 56.7551L38.9198 55.7576L38.9085 55.7569L38.8488 56.7551ZM53.2961 41.2908L54.2931 41.3678L54.2931 41.3677L53.2961 41.2908ZM55.561 39.0192L55.6584 38.024L55.5498 38.0133L55.4414 38.0264L55.561 39.0192ZM57.8457 41.2017L58.84 41.0946L58.84 41.0944L57.8457 41.2017ZM45.87 48.5245L46.87 48.5282V48.5245H45.87ZM45.87 47.5395H46.87L46.87 47.5325L45.87 47.5395ZM44.3299 39.7858L45.2564 39.4097L45.2533 39.402L45.25 39.3943L44.3299 39.7858ZM35.5873 39.7571L36.5141 40.1327L36.5148 40.131L35.5873 39.7571ZM34.2227 50.3538L35.2185 50.2623L35.2185 50.262L34.2227 50.3538ZM36.6773 54.2508L36.2346 55.1475L36.2358 55.1481L36.6773 54.2508ZM75.3051 18.5743C74.2826 16.3101 72.8286 14.6229 70.9544 13.5855C69.0832 12.5496 66.8826 12.2107 64.4495 12.4841L64.6728 14.4716C66.7894 14.2338 68.5538 14.5425 69.9858 15.3352C71.4149 16.1264 72.6024 17.4488 73.4823 19.3975L75.3051 18.5743ZM64.449 12.4842C59.8185 13.0071 56.179 15.5066 52.9421 18.3267L54.2559 19.8346C57.4004 17.095 60.6576 14.925 64.6734 14.4715L64.449 12.4842ZM52.9443 18.3248C52.5338 18.6804 52.3114 18.7884 52.1525 18.8206C52.0197 18.8475 51.7919 18.8489 51.3127 18.627L50.4723 20.4418C51.1651 20.7626 51.8447 20.9234 52.5492 20.7809C53.2276 20.6436 53.7725 20.2534 54.2538 19.8365L52.9443 18.3248ZM51.3126 18.6269C43.8013 15.1494 36.1842 15.1494 28.6759 18.621L29.5152 20.4363C36.4909 17.211 43.4939 17.211 50.4723 20.4418L51.3126 18.6269ZM28.6768 18.6205C28.2217 18.8303 28.0072 18.8539 27.8803 18.8394C27.7693 18.8268 27.5763 18.7682 27.214 18.4443L25.881 19.9353C26.402 20.4011 26.9692 20.7488 27.6545 20.8267C28.3238 20.9027 28.9416 20.7008 29.5142 20.4368L28.6768 18.6205ZM27.2153 18.4454C24.383 15.9048 21.1825 13.7556 17.3202 12.7648L16.8232 14.7021C20.2596 15.5836 23.18 17.5124 25.8798 19.9342L27.2153 18.4454ZM17.3146 12.7634C14.5572 12.073 11.9691 12.204 9.75092 13.2313C7.52683 14.2613 5.77971 16.144 4.62555 18.7603L6.45542 19.5675C7.44726 17.3191 8.8795 15.839 10.5914 15.0461C12.3092 14.2506 14.4137 14.0988 16.8288 14.7035L17.3146 12.7634ZM4.62511 18.7613C1.24957 26.4361 1.68288 34.0944 5.39711 41.4897L7.18436 40.5921C3.71883 33.6919 3.33678 26.6582 6.45586 19.5665L4.62511 18.7613ZM5.39666 41.4888C6.20169 43.0957 7.27979 44.4471 8.69153 45.3488C10.1158 46.2585 11.8131 46.6673 13.7658 46.4879L13.5829 44.4963C12.0334 44.6386 10.7864 44.3137 9.76809 43.6633C8.73726 43.0049 7.87462 41.9699 7.18481 40.593L5.39666 41.4888ZM13.765 46.488C13.9675 46.4696 14.0807 46.482 14.137 46.4947C14.1629 46.5006 14.1742 46.5059 14.1761 46.5068C14.1773 46.5074 14.1773 46.5075 14.1767 46.5071C14.1761 46.5067 14.1758 46.5064 14.1761 46.5067C14.1855 46.5149 14.2844 46.6145 14.4004 47.1002L16.3456 46.6353C16.2125 46.0784 15.9986 45.4415 15.4892 44.9981C14.9357 44.5163 14.2474 44.4359 13.5837 44.4963L13.765 46.488ZM14.4003 47.0995C17.3097 59.3091 27.104 67.3047 39.5226 67.6565L39.5792 65.6573C28.0747 65.3314 19.0477 57.9746 16.3458 46.6359L14.4003 47.0995ZM39.5226 67.6565C45.5229 67.8265 51.3947 65.8857 56.142 62.1661L54.9085 60.5917C50.5263 64.0252 45.1103 65.814 39.5792 65.6573L39.5226 67.6565ZM56.142 62.1661C60.889 58.4467 64.2188 53.1785 65.5701 47.2567L63.6202 46.8118C62.3701 52.29 59.2909 57.158 54.9085 60.5917L56.142 62.1661ZM65.5687 47.2627C65.627 47.0142 65.6748 46.8367 65.7265 46.699C65.7774 46.5636 65.8147 46.5154 65.8254 46.5036C65.829 46.4996 65.8287 46.5006 65.826 46.5023C65.8235 46.5039 65.8284 46.5 65.8475 46.4944C65.8904 46.4818 66.0044 46.461 66.2365 46.4843L66.4361 44.4943C65.6238 44.4128 64.8773 44.568 64.3396 45.1648C63.8929 45.6606 63.7313 46.338 63.6216 46.8059L65.5687 47.2627ZM66.2371 46.4843C68.138 46.6739 69.811 46.2864 71.223 45.4089C72.6239 44.5383 73.7068 43.2241 74.5111 41.6513L72.7305 40.7407C72.0485 42.0741 71.1878 43.076 70.1674 43.7102C69.158 44.3375 67.932 44.6435 66.4356 44.4942L66.2371 46.4843ZM74.5109 41.6518C78.3552 34.1443 78.7666 26.358 75.3074 18.5795L73.48 19.3922C76.6797 26.5871 76.3154 33.7396 72.7307 40.7402L74.5109 41.6518ZM66.9654 23.2503C64.696 23.1784 62.3654 23.4509 60.2358 24.8079L61.3105 26.4946C62.9576 25.445 64.8228 25.1834 66.902 25.2493L66.9654 23.2503ZM60.2789 24.7819L59.5768 25.1811L60.5652 26.9197L61.2674 26.5205L60.2789 24.7819ZM59.5439 26.9002C60.349 27.3996 61.135 27.0716 61.4225 26.9644L60.7239 25.0904C60.6416 25.1211 60.5873 25.1404 60.5406 25.1543C60.519 25.1607 60.5031 25.1647 60.4919 25.1671C60.4864 25.1682 60.4823 25.169 60.4795 25.1694C60.4782 25.1696 60.4771 25.1698 60.4765 25.1699C60.4761 25.1699 60.4759 25.17 60.4757 25.17C60.4755 25.17 60.4754 25.17 60.4754 25.17C60.4765 25.1699 60.4971 25.1681 60.5287 25.1747C60.562 25.1816 60.5865 25.1934 60.5982 25.2006L59.5439 26.9002ZM61.1985 27.0195C62.8757 26.8077 64.5784 26.9806 66.1815 27.5256L66.8252 25.632C64.9352 24.9894 62.9266 24.7854 60.9479 25.0353L61.1985 27.0195ZM66.1591 27.5177C66.2861 27.5642 66.3834 27.6066 66.4571 27.6471C66.5321 27.6883 66.5554 27.713 66.5545 27.712C66.547 27.7038 66.5209 27.6689 66.5095 27.6154C66.4988 27.5654 66.5141 27.5598 66.4942 27.6261L68.4094 28.2022C68.5069 27.8779 68.5378 27.5377 68.4656 27.1987C68.3926 26.8562 68.2277 26.5777 68.0291 26.3609C67.6635 25.9619 67.1665 25.7568 66.8476 25.6399L66.1591 27.5177ZM66.4942 27.6261C66.4716 27.7012 66.4593 27.6915 66.4952 27.6552C66.5361 27.6138 66.5854 27.5921 66.6135 27.5853C66.6305 27.5812 66.6117 27.5892 66.5377 27.5802C66.465 27.5713 66.368 27.5497 66.2426 27.5107L65.6486 29.4204C66.0025 29.5305 66.5411 29.661 67.0854 29.5288C67.7463 29.3683 68.2049 28.8819 68.4094 28.2022L66.4942 27.6261ZM66.2639 27.5175C63.9363 26.736 61.4157 26.7785 59.1152 27.6379L59.8151 29.5114C61.686 28.8125 63.7347 28.778 65.6273 29.4135L66.2639 27.5175ZM59.1112 27.6394C58.8284 27.7464 58.8323 27.6698 58.9515 27.7216C59.0615 27.7696 59.059 27.8387 58.9878 27.693C58.9552 27.6262 58.9213 27.5421 58.8771 27.4235C58.8385 27.3199 58.7829 27.1645 58.727 27.0264C58.6202 26.7628 58.4269 26.3302 58.0345 26.0162L56.785 27.5778C56.7479 27.5482 56.7842 27.5575 56.8733 27.7774C56.9153 27.881 56.9493 27.9778 57.0032 28.1223C57.0515 28.2519 57.1131 28.4118 57.1906 28.5704C57.3395 28.8755 57.6152 29.3212 58.1533 29.5555C58.7005 29.7936 59.2822 29.7131 59.8191 29.5099L59.1112 27.6394ZM58.0492 26.0282C58.0469 26.0263 58.0611 26.0377 58.0795 26.0659C58.0985 26.0951 58.1158 26.133 58.1264 26.1765C58.1481 26.2659 58.1285 26.3213 58.1301 26.3166C58.133 26.3082 58.1507 26.2664 58.2041 26.198C58.2555 26.1321 58.3249 26.0613 58.4056 25.9947L57.133 24.4519C56.8009 24.7258 56.4172 25.1447 56.2378 25.6693C56.1431 25.946 56.0949 26.2858 56.1828 26.648C56.2728 27.0193 56.4855 27.329 56.7703 27.5659L58.0492 26.0282ZM58.4016 25.998C60.8924 23.9651 63.7484 23.1011 66.9538 23.2273L67.0325 21.2289C63.3808 21.0851 60.0366 22.082 57.137 24.4486L58.4016 25.998ZM66.9557 23.2274C67.0956 23.2326 67.2073 23.2449 67.2935 23.2635C67.3817 23.2825 67.4099 23.3012 67.4053 23.2982C67.3901 23.2883 67.3547 23.2567 67.3334 23.2087C67.3154 23.1681 67.3352 23.1772 67.3252 23.284L69.3166 23.4696C69.3505 23.1054 69.3127 22.7387 69.1619 22.3984C69.0078 22.0508 68.7645 21.7957 68.4927 21.6196C67.9948 21.2971 67.4048 21.2428 67.0305 21.2288L66.9557 23.2274ZM67.3264 23.2728C67.3184 23.349 67.3048 23.3431 67.3313 23.3037C67.3608 23.2596 67.399 23.2347 67.4147 23.2272C67.4207 23.2243 67.3941 23.2378 67.3107 23.2469C67.2284 23.2559 67.1212 23.2576 66.9811 23.2509L66.8862 25.2487C67.2381 25.2654 67.7818 25.2678 68.2752 25.0326C68.8757 24.7464 69.2408 24.1954 69.3155 23.4807L67.3264 23.2728ZM13.4899 27.6031C13.4746 27.5339 13.4958 27.5644 13.4661 27.6403C13.4375 27.7135 13.3962 27.7394 13.4152 27.7253C13.4428 27.7049 13.5057 27.6682 13.6367 27.615C13.6989 27.5897 13.7668 27.5644 13.8461 27.5356C13.9195 27.509 14.0135 27.4755 14.0998 27.4431L13.3961 25.5709C13.1906 25.6482 12.6252 25.8213 12.2242 26.1186C11.9895 26.2926 11.7463 26.5468 11.6036 26.9115C11.4599 27.2789 11.4549 27.6641 11.5373 28.0357L13.4899 27.6031ZM14.0953 27.4447C14.8207 27.176 15.585 27.0529 16.4233 26.9758C16.8445 26.9371 17.2673 26.9112 17.7166 26.8812C18.1593 26.8517 18.6219 26.8185 19.0898 26.7655L18.8644 24.7782C18.4461 24.8256 18.0233 24.8563 17.5834 24.8857C17.1502 24.9146 16.6934 24.9426 16.2401 24.9842C15.3295 25.068 14.3654 25.2119 13.4006 25.5693L14.0953 27.4447ZM19.5951 24.9856C17.6475 23.4547 15.4591 23.2498 13.4507 23.2498V25.2498C15.3492 25.2498 16.9602 25.4584 18.3591 26.558L19.5951 24.9856ZM13.4507 23.2498C13.3409 23.2498 13.2261 23.2527 13.1314 23.2547C13.0306 23.2568 12.9437 23.2582 12.8619 23.2568C12.6882 23.254 12.6027 23.239 12.5665 23.2277C12.5479 23.2219 12.6187 23.2424 12.6761 23.3283C12.7267 23.4041 12.6913 23.4194 12.6975 23.2567L10.6989 23.1809C10.6824 23.6156 10.7585 24.0584 11.0132 24.4395C11.2746 24.8308 11.6419 25.0343 11.9709 25.1369C12.2822 25.2341 12.5952 25.2528 12.8293 25.2566C13.0078 25.2595 13.3615 25.2498 13.4507 25.2498V23.2498ZM12.6976 23.2533C12.7023 23.1182 12.7311 23.1323 12.685 23.1916C12.6384 23.2514 12.5936 23.2569 12.634 23.2448C12.6865 23.2291 12.784 23.2141 12.9566 23.2102C13.0388 23.2083 13.1257 23.2091 13.2246 23.2105C13.3175 23.2119 13.4303 23.2141 13.5366 23.2137L13.529 21.2137C13.4273 21.2141 13.1036 21.2064 12.9114 21.2107C12.6756 21.216 12.369 21.2367 12.0619 21.3284C11.7427 21.4237 11.383 21.608 11.1064 21.9636C10.8302 22.3185 10.714 22.7452 10.6988 23.1844L12.6976 23.2533ZM13.5557 23.2135C16.2846 23.1508 18.9585 24.0082 21.1583 25.6536L22.3562 24.0521C19.8 22.1401 16.6887 21.141 13.5098 21.214L13.5557 23.2135ZM21.1588 25.654C21.3496 25.7965 21.4888 25.8962 21.6185 26.007C21.7451 26.1151 21.7994 26.1827 21.8199 26.2166C21.8304 26.2339 21.8127 26.2067 21.8162 26.1654C21.8185 26.1378 21.824 26.1953 21.7082 26.354L23.3237 27.533C23.5873 27.1719 23.7722 26.7714 23.8091 26.3333C23.8472 25.8815 23.7193 25.4914 23.5298 25.1791C23.3504 24.8835 23.115 24.655 22.9174 24.4862C22.7228 24.32 22.5032 24.1619 22.3557 24.0517L21.1588 25.654ZM21.7089 26.353C21.4984 26.6407 21.3372 26.9758 21.2306 27.1863C21.1027 27.4388 21.0265 27.5705 20.9553 27.6533C20.9269 27.6864 20.9137 27.6936 20.9167 27.6917C20.9231 27.6878 20.931 27.6857 20.9303 27.6858C20.9221 27.6871 20.7887 27.7045 20.4488 27.5554L19.6457 29.3871C20.1834 29.6229 20.722 29.7447 21.2471 29.6605C21.802 29.5715 22.1975 29.2764 22.4721 28.9569C22.7233 28.6645 22.8975 28.3215 23.0148 28.09C23.1533 27.8165 23.232 27.6584 23.323 27.534L21.7089 26.353ZM20.4517 27.5567C18.3082 26.6086 16.0556 26.8325 14.0106 27.4509L14.5894 29.3653C16.4004 28.8177 18.1114 28.7085 19.6427 29.3858L20.4517 27.5567ZM14.0156 27.4494C13.8313 27.5041 13.6881 27.5452 13.5581 27.5707C13.426 27.5967 13.3675 27.5935 13.3564 27.592C13.3555 27.5919 13.3739 27.5943 13.403 27.6075C13.434 27.6215 13.4651 27.6424 13.4907 27.6676C13.5435 27.7197 13.5188 27.7343 13.4901 27.604L11.5371 28.0348C11.623 28.4243 11.7894 28.7989 12.0867 29.092C12.3927 29.3936 12.757 29.5298 13.092 29.5745C13.674 29.6521 14.2839 29.456 14.5845 29.3668L14.0156 27.4494ZM23.1305 41.2805C23.1984 40.776 23.3724 40.4778 23.5546 40.312C23.7263 40.1557 23.9995 40.0304 24.4581 40.0499L24.5431 38.0517C23.6513 38.0138 22.8344 38.2632 22.2085 38.8328C21.593 39.3928 21.2617 40.1715 21.1484 41.0138L23.1305 41.2805ZM24.4581 40.0499C24.917 40.0694 25.1828 40.2175 25.3455 40.3909C25.5176 40.5743 25.6687 40.888 25.6994 41.3944L27.6957 41.2733C27.6444 40.427 27.3722 39.628 26.804 39.0224C26.2263 38.4067 25.4347 38.0896 24.5431 38.0517L24.4581 40.0499ZM25.6995 41.3958C25.7159 41.6606 25.5939 41.9765 25.3139 42.2437C25.0335 42.5113 24.6781 42.6474 24.3678 42.6324L24.2711 44.6301C25.2065 44.6754 26.0783 44.2788 26.6947 43.6906C27.3115 43.102 27.7557 42.2391 27.6956 41.2719L25.6995 41.3958ZM24.3678 42.6324C23.6325 42.5968 23.0502 41.8854 23.1307 41.2788L21.1481 41.0155C20.8946 42.9246 22.5149 44.5451 24.2711 44.6301L24.3678 42.6324ZM33.2353 50.0873C33.1791 49.3323 33.2381 48.6582 33.2381 47.7465L31.2381 47.7465C31.2381 48.4486 31.1782 49.3942 31.2409 50.2359L33.2353 50.0873ZM33.2381 47.7465C33.2381 44.5108 33.662 41.4378 35.0589 38.6255L33.2677 37.7358C31.6805 40.9312 31.2381 44.3484 31.2381 47.7465L33.2381 47.7465ZM35.0592 38.6249C36.1657 36.3932 37.6943 35.0858 40.0148 35.0999L40.027 33.0999C36.6795 33.0796 34.5786 35.0919 33.2674 37.7364L35.0592 38.6249ZM40.0209 35.0999C42.2673 35.0999 43.7713 36.4188 44.8189 38.5599L46.6154 37.6808C45.3698 35.1352 43.3009 33.0999 40.0209 33.0999V35.0999ZM44.8179 38.5578C46.728 42.4846 47.207 46.7056 46.6174 51.0495L48.5993 51.3184C49.2328 46.6508 48.7265 42.021 46.6164 37.6829L44.8179 38.5578ZM46.6173 51.0504C46.43 52.4407 45.8668 53.5059 45.0481 54.2658C44.2244 55.0304 43.0834 55.5397 41.6592 55.7074L41.8932 57.6937C43.6626 57.4853 45.2224 56.8329 46.4088 55.7316C47.6003 54.6256 48.3564 53.1206 48.5994 51.3175L46.6173 51.0504ZM41.6681 55.7064C40.7553 55.8057 39.8356 55.8229 38.9198 55.7577L38.7778 57.7526C39.813 57.8263 40.8525 57.8069 41.8843 57.6947L41.6681 55.7064ZM38.9085 55.7569C37.1327 55.6507 35.8058 55.0702 34.8903 54.1553C33.9729 53.2385 33.3753 51.8927 33.2351 50.0843L31.2411 50.2389C31.4095 52.4108 32.1496 54.244 33.4766 55.57C34.8054 56.8979 36.6297 57.6241 38.7891 57.7534L38.9085 55.7569ZM54.2931 41.3677C54.3311 40.8748 54.4837 40.5931 54.6601 40.4193C54.8435 40.2386 55.1539 40.0755 55.6806 40.012L55.4414 38.0264C54.6091 38.1266 53.8394 38.4202 53.2564 38.9947C52.6662 39.5762 52.3658 40.3484 52.2991 41.2139L54.2931 41.3677ZM55.4636 40.0145C55.9587 40.0629 56.2669 40.2094 56.456 40.383C56.6357 40.5479 56.7987 40.8201 56.8515 41.309L58.84 41.0944C58.7455 40.2193 58.4117 39.4634 57.8086 38.9097C57.2149 38.3646 56.4543 38.1019 55.6584 38.024L55.4636 40.0145ZM56.8515 41.3089C56.9192 41.9366 56.3321 42.6287 55.5905 42.6488L55.6447 44.6481C57.4455 44.5993 59.0441 42.9883 58.84 41.0946L56.8515 41.3089ZM55.5905 42.6488C54.8725 42.6683 54.2456 41.9833 54.2931 41.3678L52.2991 41.2138C52.1541 43.091 53.8203 44.6976 55.6447 44.6481L55.5905 42.6488ZM46.87 48.5245V47.5395H44.87V48.5245H46.87ZM46.87 47.5325C46.8505 44.7454 46.3028 41.9878 45.2564 39.4097L43.4033 40.1619C44.3542 42.5049 44.8523 45.012 44.87 47.5465L46.87 47.5325ZM45.25 39.3943C44.8208 38.3853 44.2696 37.3195 43.4422 36.5023C42.5812 35.652 41.4528 35.1027 39.9775 35.0956L39.9679 37.0956C40.8906 37.1 41.526 37.4208 42.0368 37.9253C42.5811 38.4628 43.0094 39.2363 43.4097 40.1773L45.25 39.3943ZM39.9775 35.0956C38.5099 35.0886 37.3661 35.6133 36.4888 36.4553C35.6425 37.2675 35.0811 38.3383 34.6599 39.3832L36.5148 40.131C36.8947 39.1886 37.3271 38.4229 37.8737 37.8983C38.3892 37.4035 39.0376 37.0911 39.9679 37.0956L39.9775 35.0956ZM34.6606 39.3814C33.2109 42.9576 32.8819 46.703 33.2269 50.4456L35.2185 50.262C34.8953 46.7564 35.2118 43.3454 36.5141 40.1327L34.6606 39.3814ZM33.2269 50.4454C33.4014 52.3435 34.2292 54.1573 36.2346 55.1475L37.12 53.3541C35.9149 52.7591 35.3497 51.6896 35.2185 50.2623L33.2269 50.4454ZM36.2358 55.1481C38.9031 56.4606 41.5725 56.4409 43.6155 55.169C45.6578 53.8975 46.8591 51.5084 46.87 48.5282L44.87 48.5209C44.8611 50.9712 43.8937 52.6399 42.5585 53.4712C41.2239 54.3021 39.3069 54.4303 37.1188 53.3536L36.2358 55.1481Z" fill="#08A53F" mask="url(#path-1-inside-1_103_63)"/>
<mask id="path-3-outside-2_103_63" maskUnits="userSpaceOnUse" x="94" y="30" width="230" height="20" fill="black">
<rect fill="white" x="94" y="30" width="230" height="20"/>
<path d="M95.0603 48.8188C95.0201 47.651 95 46.3356 95 44.8725C95 43.5034 95.0201 42.0537 95.0603 40.5235C95.1005 38.9933 95.1674 37.4362 95.2612 35.8523C95.355 34.2685 95.4688 32.7248 95.6028 31.2215L99.0988 31.2819C98.9782 32.2215 98.8711 33.1812 98.7773 34.1611C98.697 35.1275 98.63 36.1007 98.5764 37.0805C99.139 36.6913 99.8154 36.2416 100.606 35.7315C101.409 35.2081 102.267 34.6846 103.177 34.1611C104.088 33.6242 104.999 33.1141 105.91 32.6309C106.834 32.1477 107.698 31.7383 108.502 31.4027L109.486 34.8255C108.669 35.1611 107.846 35.5302 107.015 35.9329C106.198 36.3356 105.414 36.7383 104.664 37.1409C103.928 37.5302 103.271 37.906 102.695 38.2685C102.119 38.6174 101.664 38.9262 101.329 39.1946C100.994 39.4497 100.827 39.6376 100.827 39.7584C100.827 39.9329 101.088 40.2282 101.61 40.6443C102.133 41.0604 102.843 41.5503 103.74 42.1141C104.638 42.6779 105.656 43.2685 106.794 43.8859C107.946 44.5034 109.138 45.1074 110.37 45.698L108.502 48.7987C106.975 48.0067 105.568 47.2148 104.283 46.4228C103.01 45.6174 101.872 44.8591 100.867 44.1477C99.8757 43.4362 99.0519 42.8255 98.3956 42.3154C98.3956 42.8121 98.3956 43.3087 98.3956 43.8054C98.3956 44.7047 98.4023 45.5772 98.4157 46.4228C98.4425 47.255 98.4692 48.0336 98.496 48.7584L95.0603 48.8188Z"/>
<path d="M121.214 48.7383C119.955 48.7383 118.809 48.5034 117.778 48.0336C116.747 47.5772 115.856 46.9396 115.106 46.1208C114.356 45.302 113.78 44.3691 113.378 43.3221C112.976 42.2752 112.775 41.1678 112.775 40C112.775 38.9262 112.936 37.8725 113.257 36.8389C113.579 35.7919 114.068 34.8456 114.724 34C115.38 33.1409 116.211 32.4564 117.215 31.9463C118.233 31.4362 119.432 31.1812 120.812 31.1812C122.245 31.1812 123.491 31.4295 124.549 31.9262C125.607 32.4094 126.478 33.0604 127.161 33.8792C127.844 34.698 128.353 35.6242 128.688 36.6577C129.023 37.6913 129.19 38.7517 129.19 39.8389C129.19 41.1409 128.996 42.3356 128.608 43.4228C128.219 44.5101 127.67 45.4564 126.96 46.2617C126.25 47.0537 125.406 47.6644 124.429 48.094C123.451 48.5235 122.379 48.7383 121.214 48.7383ZM121.214 45.3758C122.017 45.3758 122.761 45.1812 123.444 44.7919C124.127 44.3893 124.676 43.7651 125.092 42.9195C125.507 42.0738 125.714 40.9732 125.714 39.6174C125.714 38.4497 125.487 37.4899 125.031 36.7383C124.576 35.9866 123.987 35.4295 123.263 35.0671C122.54 34.7047 121.783 34.5235 120.993 34.5235C120.095 34.5235 119.339 34.6846 118.722 35.0067C118.106 35.3289 117.611 35.7651 117.236 36.3154C116.86 36.8523 116.593 37.4564 116.432 38.1275C116.271 38.7987 116.191 39.4899 116.191 40.2013C116.191 40.8993 116.325 41.5638 116.593 42.1946C116.861 42.8121 117.222 43.3624 117.678 43.8456C118.146 44.3154 118.682 44.6913 119.285 44.9732C119.888 45.2416 120.531 45.3758 121.214 45.3758Z"/>
<path d="M135.037 48.8188L131.601 48.1745C132.244 45.5705 132.914 43.2148 133.61 41.1074C134.32 39 135.05 37.1946 135.801 35.6913C136.551 34.1879 137.314 33.0336 138.091 32.2282C138.881 31.4094 139.672 31 140.462 31C142.056 31 143.523 32.4832 144.862 35.4497C146.202 38.4027 147.34 42.6846 148.278 48.2953L144.721 48.7785C144.561 47.8926 144.387 46.9866 144.199 46.0604C144.012 45.1208 143.817 44.2081 143.616 43.3221C143.295 43.3087 142.947 43.302 142.572 43.302C141.915 43.302 141.219 43.3154 140.482 43.3423C139.759 43.3691 139.042 43.4161 138.332 43.4832C137.636 43.5369 136.986 43.5973 136.383 43.6644C136.129 44.5235 135.881 45.396 135.64 46.2819C135.412 47.1544 135.211 48 135.037 48.8188ZM138.734 37.0604C138.439 37.6913 138.044 38.7114 137.549 40.1208C138.125 40.0537 138.734 40.0067 139.377 39.9799C140.02 39.9396 140.649 39.9195 141.266 39.9195C141.788 39.9195 142.29 39.9329 142.772 39.9597C142.585 39.2752 142.404 38.6644 142.23 38.1275C142.069 37.5906 141.922 37.1678 141.788 36.8591C141.507 36.1342 141.259 35.6242 141.045 35.3289C140.83 35.0201 140.609 34.8658 140.382 34.8658C140.14 34.8658 139.899 35.0268 139.658 35.349C139.417 35.6577 139.109 36.2282 138.734 37.0604Z"/>
<path d="M156.921 48.8591C155.595 48.8591 154.543 48.745 153.766 48.5168C152.989 48.2886 152.413 47.9664 152.038 47.5503C151.663 47.1476 151.415 46.6711 151.295 46.1208C151.188 45.557 151.134 44.953 151.134 44.3087C151.134 43.2349 151.161 42.0067 151.214 40.6242C151.281 39.2416 151.362 37.7584 151.456 36.1745C151.563 34.5772 151.677 32.9262 151.797 31.2215L155.454 31.5839C155.32 32.6174 155.199 33.6779 155.092 34.7651C154.999 35.8389 154.918 36.8859 154.851 37.906C154.784 38.9262 154.731 39.8523 154.69 40.6846C154.65 41.5168 154.617 42.2148 154.59 42.7785C154.577 43.3289 154.57 43.6846 154.57 43.8456C154.57 44.3154 154.623 44.6711 154.731 44.9128C154.838 45.1409 155.052 45.2953 155.374 45.3758C155.695 45.4564 156.164 45.4966 156.78 45.4966C157.557 45.4966 158.434 45.4497 159.412 45.3557C160.39 45.2483 161.381 45.094 162.386 44.8926C163.39 44.6913 164.308 44.4497 165.138 44.1678L165.922 47.6309C165.011 47.8591 164.027 48.0671 162.968 48.255C161.924 48.443 160.879 48.5906 159.834 48.698C158.789 48.8054 157.818 48.8591 156.921 48.8591Z"/>
<path d="M171.168 48.8188L167.732 48.1745C168.375 45.5705 169.044 43.2148 169.741 41.1074C170.451 39 171.181 37.1946 171.931 35.6913C172.681 34.1879 173.445 33.0336 174.222 32.2282C175.012 31.4094 175.802 31 176.592 31C178.186 31 179.653 32.4832 180.993 35.4497C182.332 38.4027 183.471 42.6846 184.408 48.2953L180.852 48.7785C180.691 47.8926 180.517 46.9866 180.33 46.0604C180.142 45.1208 179.948 44.2081 179.747 43.3221C179.425 43.3087 179.077 43.302 178.702 43.302C178.046 43.302 177.349 43.3154 176.613 43.3423C175.889 43.3691 175.173 43.4161 174.463 43.4832C173.766 43.5369 173.116 43.5973 172.514 43.6644C172.259 44.5235 172.011 45.396 171.77 46.2819C171.543 47.1544 171.342 48 171.168 48.8188ZM174.864 37.0604C174.57 37.6913 174.175 38.7114 173.679 40.1208C174.255 40.0537 174.864 40.0067 175.507 39.9799C176.15 39.9396 176.78 39.9195 177.396 39.9195C177.918 39.9195 178.421 39.9329 178.903 39.9597C178.715 39.2752 178.535 38.6644 178.361 38.1275C178.2 37.5906 178.052 37.1678 177.918 36.8591C177.637 36.1342 177.389 35.6242 177.175 35.3289C176.961 35.0201 176.74 34.8658 176.512 34.8658C176.271 34.8658 176.03 35.0268 175.789 35.349C175.548 35.6577 175.24 36.2282 174.864 37.0604Z"/>
<path d="M193.102 48.7785C193.088 48.6309 193.082 48.4698 193.082 48.2953C193.082 48.1208 193.082 47.9195 193.082 47.6913C193.082 47.1141 193.095 46.4295 193.122 45.6376C193.149 44.8322 193.189 43.9799 193.242 43.0805C193.296 42.1678 193.35 41.255 193.403 40.3423C193.457 39.4161 193.51 38.5302 193.564 37.6846C193.631 36.8389 193.691 36.0805 193.745 35.4094C193.45 35.5034 193.189 35.5906 192.961 35.6711L192.439 32.2886C193.952 31.8591 195.359 31.5369 196.658 31.3221C197.971 31.1074 199.156 31 200.214 31C202.371 31 204.018 31.4094 205.157 32.2282C206.296 33.047 206.865 34.2349 206.865 35.7919C206.865 36.6779 206.671 37.4228 206.282 38.0268C205.894 38.6174 205.345 39.1074 204.635 39.4966C206.376 40.3826 207.247 41.8255 207.247 43.8255C207.247 44.7114 207.079 45.4564 206.744 46.0604C206.423 46.651 206.008 47.1275 205.499 47.4899C204.99 47.8523 204.447 48.1208 203.871 48.2953C203.309 48.4832 202.773 48.604 202.264 48.6577C201.768 48.7248 201.38 48.7584 201.098 48.7584C200.402 48.7584 199.658 48.6913 198.868 48.557C198.078 48.4228 197.308 48.2215 196.558 47.953C196.558 48.2215 196.558 48.4765 196.558 48.7181L193.102 48.7785ZM200.295 34.3624C199.812 34.3624 199.303 34.3893 198.768 34.443C198.245 34.4832 197.723 34.5503 197.201 34.6443C197.12 35.6242 197.04 36.7651 196.959 38.0671C197.134 38.0805 197.308 38.0872 197.482 38.0872C197.669 38.0872 197.857 38.0872 198.044 38.0872C201.581 38.0872 203.349 37.3624 203.349 35.9128C203.349 35.4295 203.074 35.0537 202.525 34.7852C201.989 34.5034 201.246 34.3624 200.295 34.3624ZM198.507 41.2685C198.225 41.2685 197.937 41.2685 197.643 41.2685C197.361 41.2685 197.073 41.2752 196.779 41.2886C196.752 41.8792 196.725 42.4698 196.698 43.0604C196.685 43.651 196.665 44.2349 196.638 44.8121C197.388 45.0403 198.125 45.2081 198.848 45.3154C199.571 45.4094 200.194 45.4564 200.717 45.4564C201.828 45.4564 202.625 45.3221 203.108 45.0537C203.59 44.7718 203.831 44.3154 203.831 43.6846C203.831 42.906 203.369 42.3087 202.445 41.8926C201.534 41.4765 200.221 41.2685 198.507 41.2685Z"/>
<path d="M218.559 48.7383C217.299 48.7383 216.154 48.5034 215.123 48.0336C214.091 47.5772 213.201 46.9396 212.451 46.1208C211.7 45.302 211.125 44.3691 210.723 43.3221C210.321 42.2752 210.12 41.1678 210.12 40C210.12 38.9262 210.281 37.8725 210.602 36.8389C210.924 35.7919 211.412 34.8456 212.069 34C212.725 33.1409 213.556 32.4564 214.56 31.9463C215.578 31.4362 216.777 31.1812 218.157 31.1812C219.59 31.1812 220.836 31.4295 221.894 31.9262C222.952 32.4094 223.823 33.0604 224.506 33.8792C225.189 34.698 225.698 35.6242 226.033 36.6577C226.368 37.6913 226.535 38.7517 226.535 39.8389C226.535 41.1409 226.341 42.3356 225.952 43.4228C225.564 44.5101 225.015 45.4564 224.305 46.2617C223.595 47.0537 222.751 47.6644 221.773 48.094C220.796 48.5235 219.724 48.7383 218.559 48.7383ZM218.559 45.3758C219.362 45.3758 220.106 45.1812 220.789 44.7919C221.472 44.3893 222.021 43.7651 222.436 42.9195C222.852 42.0738 223.059 40.9732 223.059 39.6174C223.059 38.4497 222.832 37.4899 222.376 36.7383C221.921 35.9866 221.331 35.4295 220.608 35.0671C219.885 34.7047 219.128 34.5235 218.338 34.5235C217.44 34.5235 216.683 34.6846 216.067 35.0067C215.451 35.3289 214.955 35.7651 214.58 36.3154C214.205 36.8523 213.937 37.4564 213.777 38.1275C213.616 38.7987 213.536 39.4899 213.536 40.2013C213.536 40.8993 213.67 41.5638 213.937 42.1946C214.205 42.8121 214.567 43.3624 215.022 43.8456C215.491 44.3154 216.027 44.6913 216.63 44.9732C217.233 45.2416 217.875 45.3758 218.559 45.3758Z"/>
<path d="M235.576 48.8792C235.483 47.7114 235.416 46.5772 235.376 45.4765C235.349 44.3758 235.335 43.3356 235.335 42.3557C235.335 40.7315 235.369 39.2752 235.436 37.9866C235.503 36.6846 235.57 35.5638 235.637 34.6242C234.485 34.6913 233.366 34.7785 232.281 34.8859C231.196 34.9933 230.192 35.1342 229.268 35.3087L229.308 31.9463C230.875 31.6644 232.482 31.4631 234.13 31.3423C235.777 31.2081 237.425 31.1409 239.073 31.1409C240.251 31.1409 241.376 31.1678 242.448 31.2215C243.533 31.2752 244.571 31.3557 245.562 31.4631L245.542 34.9463C244.605 34.7987 243.587 34.698 242.488 34.6443C241.403 34.5772 240.291 34.5436 239.153 34.5436C239.086 35.4564 239.026 36.4765 238.972 37.604C238.918 38.7181 238.892 39.9128 238.892 41.1879C238.892 42.3289 238.918 43.5302 238.972 44.7919C239.039 46.0537 239.119 47.3825 239.213 48.7785L235.576 48.8792Z"/>
<path d="M261.763 49C260.129 49 258.709 48.6376 257.504 47.9128C256.298 47.2013 255.367 46.1946 254.711 44.8926C254.054 43.5906 253.726 42.0537 253.726 40.2819C253.726 39.6107 253.807 38.8658 253.967 38.047C254.142 37.2148 254.416 36.3893 254.791 35.5705C255.166 34.7383 255.669 33.9799 256.298 33.2953C256.928 32.6107 257.698 32.0604 258.609 31.6443C259.519 31.2148 260.591 31 261.823 31C262.882 31 263.806 31.1342 264.596 31.4027C265.386 31.6577 266.07 31.9866 266.646 32.3893C267.221 32.7785 267.697 33.1879 268.072 33.6174C268.46 34.047 268.769 34.443 268.996 34.8054C269.224 35.1544 269.391 35.4094 269.499 35.5705L266.585 37.8054C266.291 37.255 265.942 36.7181 265.54 36.1946C265.139 35.6577 264.643 35.2148 264.054 34.8658C263.464 34.5168 262.734 34.3423 261.864 34.3423C260.966 34.3423 260.223 34.5436 259.633 34.9463C259.044 35.349 258.575 35.8591 258.227 36.4765C257.892 37.094 257.658 37.7517 257.524 38.4497C257.39 39.1342 257.323 39.7718 257.323 40.3624C257.323 40.9933 257.39 41.6174 257.524 42.2349C257.658 42.8523 257.885 43.4161 258.207 43.9262C258.542 44.4362 258.984 44.8456 259.533 45.1544C260.095 45.4497 260.799 45.5973 261.643 45.5973C262.58 45.5973 263.344 45.4295 263.933 45.094C264.536 44.7584 265.038 44.2886 265.44 43.6846C265.842 43.0671 266.217 42.349 266.565 41.5302L269.86 43.0201C269.271 44.2416 268.608 45.302 267.871 46.2013C267.134 47.1007 266.27 47.7919 265.279 48.2752C264.288 48.7584 263.116 49 261.763 49Z"/>
<path d="M279.075 48.8591C277.748 48.8591 276.697 48.745 275.92 48.5168C275.143 48.2886 274.567 47.9664 274.192 47.5503C273.817 47.1476 273.569 46.6711 273.449 46.1208C273.342 45.557 273.288 44.953 273.288 44.3087C273.288 43.2349 273.315 42.0067 273.368 40.6242C273.435 39.2416 273.516 37.7584 273.609 36.1745C273.717 34.5772 273.83 32.9262 273.951 31.2215L277.608 31.5839C277.474 32.6174 277.353 33.6779 277.246 34.7651C277.152 35.8389 277.072 36.8859 277.005 37.906C276.938 38.9262 276.884 39.8523 276.844 40.6846C276.804 41.5168 276.771 42.2148 276.744 42.7785C276.73 43.3289 276.724 43.6846 276.724 43.8456C276.724 44.3154 276.777 44.6711 276.884 44.9128C276.992 45.1409 277.206 45.2953 277.527 45.3758C277.849 45.4564 278.318 45.4966 278.934 45.4966C279.711 45.4966 280.588 45.4497 281.566 45.3557C282.544 45.2483 283.535 45.094 284.54 44.8926C285.544 44.6913 286.462 44.4497 287.292 44.1678L288.076 47.6309C287.165 47.8591 286.18 48.0671 285.122 48.255C284.077 48.443 283.033 48.5906 281.988 48.698C280.943 48.8054 279.972 48.8591 279.075 48.8591Z"/>
<path d="M297.782 48.9597C296.496 48.9597 295.431 48.7517 294.587 48.3356C293.743 47.9329 293.067 47.3758 292.558 46.6644C292.062 45.9396 291.687 45.1074 291.433 44.1678C291.192 43.2282 291.031 42.2215 290.951 41.1477C290.884 40.0738 290.85 38.9866 290.85 37.8859C290.85 36.6376 290.89 35.4228 290.971 34.2416C291.051 33.047 291.138 32.047 291.232 31.2416L294.929 31.4631C294.795 32.443 294.688 33.3221 294.607 34.1007C294.54 34.8658 294.493 35.5906 294.467 36.2752C294.44 36.9597 294.426 37.6644 294.426 38.3893C294.426 38.953 294.433 39.5638 294.447 40.2215C294.473 40.8658 294.534 41.5101 294.627 42.1544C294.735 42.7852 294.895 43.3624 295.11 43.8859C295.337 44.396 295.652 44.8121 296.054 45.1342C296.469 45.443 296.998 45.5973 297.641 45.5973C298.338 45.5973 298.9 45.443 299.329 45.1342C299.771 44.8121 300.113 44.3893 300.354 43.8658C300.595 43.3289 300.769 42.7383 300.876 42.094C300.983 41.4362 301.044 40.7718 301.057 40.1007C301.084 39.4161 301.097 38.7718 301.097 38.1678C301.097 37.0268 301.064 35.9195 300.997 34.8456C300.93 33.7718 300.843 32.6309 300.735 31.4228L304.432 31.1409C304.54 32.4295 304.62 33.6107 304.673 34.6846C304.727 35.745 304.754 36.7248 304.754 37.6242C304.754 38.8456 304.707 40.0201 304.613 41.1477C304.533 42.2752 304.359 43.3154 304.091 44.2685C303.823 45.2081 303.434 46.0336 302.925 46.745C302.416 47.443 301.74 47.9866 300.896 48.3758C300.066 48.7651 299.028 48.9597 297.782 48.9597Z"/>
<path d="M308.855 48.7785C308.842 48.6309 308.835 48.4698 308.835 48.2953C308.835 48.1208 308.835 47.9195 308.835 47.6913C308.835 47.1141 308.848 46.4295 308.875 45.6376C308.902 44.8322 308.942 43.9799 308.996 43.0805C309.049 42.1678 309.103 41.255 309.157 40.3423C309.21 39.4161 309.264 38.5302 309.317 37.6846C309.384 36.8389 309.445 36.0805 309.498 35.4094C309.203 35.5034 308.942 35.5906 308.714 35.6711L308.192 32.2886C309.706 31.8591 311.112 31.5369 312.411 31.3221C313.724 31.1074 314.91 31 315.968 31C318.124 31 319.772 31.4094 320.91 32.2282C322.049 33.047 322.618 34.2349 322.618 35.7919C322.618 36.6779 322.424 37.4228 322.036 38.0268C321.647 38.6174 321.098 39.1074 320.388 39.4966C322.129 40.3826 323 41.8255 323 43.8255C323 44.7114 322.833 45.4564 322.498 46.0604C322.176 46.651 321.761 47.1275 321.252 47.4899C320.743 47.8523 320.201 48.1208 319.625 48.2953C319.062 48.4832 318.526 48.604 318.017 48.6577C317.522 48.7248 317.133 48.7584 316.852 48.7584C316.155 48.7584 315.412 48.6913 314.622 48.557C313.831 48.4228 313.061 48.2215 312.311 47.953C312.311 48.2215 312.311 48.4765 312.311 48.7181L308.855 48.7785ZM316.048 34.3624C315.566 34.3624 315.057 34.3893 314.521 34.443C313.999 34.4832 313.476 34.5503 312.954 34.6443C312.874 35.6242 312.793 36.7651 312.713 38.0671C312.887 38.0805 313.061 38.0872 313.235 38.0872C313.423 38.0872 313.61 38.0872 313.798 38.0872C317.334 38.0872 319.102 37.3624 319.102 35.9128C319.102 35.4295 318.828 35.0537 318.278 34.7852C317.743 34.5034 316.999 34.3624 316.048 34.3624ZM314.26 41.2685C313.979 41.2685 313.691 41.2685 313.396 41.2685C313.115 41.2685 312.827 41.2752 312.532 41.2886C312.505 41.8792 312.478 42.4698 312.452 43.0604C312.438 43.651 312.418 44.2349 312.391 44.8121C313.141 45.0403 313.878 45.2081 314.602 45.3154C315.325 45.4094 315.948 45.4564 316.47 45.4564C317.582 45.4564 318.379 45.3221 318.861 45.0537C319.343 44.7718 319.584 44.3154 319.584 43.6846C319.584 42.906 319.122 42.3087 318.198 41.8926C317.287 41.4765 315.974 41.2685 314.26 41.2685Z"/>
</mask>
<path d="M95.0603 48.8188C95.0201 47.651 95 46.3356 95 44.8725C95 43.5034 95.0201 42.0537 95.0603 40.5235C95.1005 38.9933 95.1674 37.4362 95.2612 35.8523C95.355 34.2685 95.4688 32.7248 95.6028 31.2215L99.0988 31.2819C98.9782 32.2215 98.8711 33.1812 98.7773 34.1611C98.697 35.1275 98.63 36.1007 98.5764 37.0805C99.139 36.6913 99.8154 36.2416 100.606 35.7315C101.409 35.2081 102.267 34.6846 103.177 34.1611C104.088 33.6242 104.999 33.1141 105.91 32.6309C106.834 32.1477 107.698 31.7383 108.502 31.4027L109.486 34.8255C108.669 35.1611 107.846 35.5302 107.015 35.9329C106.198 36.3356 105.414 36.7383 104.664 37.1409C103.928 37.5302 103.271 37.906 102.695 38.2685C102.119 38.6174 101.664 38.9262 101.329 39.1946C100.994 39.4497 100.827 39.6376 100.827 39.7584C100.827 39.9329 101.088 40.2282 101.61 40.6443C102.133 41.0604 102.843 41.5503 103.74 42.1141C104.638 42.6779 105.656 43.2685 106.794 43.8859C107.946 44.5034 109.138 45.1074 110.37 45.698L108.502 48.7987C106.975 48.0067 105.568 47.2148 104.283 46.4228C103.01 45.6174 101.872 44.8591 100.867 44.1477C99.8757 43.4362 99.0519 42.8255 98.3956 42.3154C98.3956 42.8121 98.3956 43.3087 98.3956 43.8054C98.3956 44.7047 98.4023 45.5772 98.4157 46.4228C98.4425 47.255 98.4692 48.0336 98.496 48.7584L95.0603 48.8188Z" fill="white"/>
<path d="M121.214 48.7383C119.955 48.7383 118.809 48.5034 117.778 48.0336C116.747 47.5772 115.856 46.9396 115.106 46.1208C114.356 45.302 113.78 44.3691 113.378 43.3221C112.976 42.2752 112.775 41.1678 112.775 40C112.775 38.9262 112.936 37.8725 113.257 36.8389C113.579 35.7919 114.068 34.8456 114.724 34C115.38 33.1409 116.211 32.4564 117.215 31.9463C118.233 31.4362 119.432 31.1812 120.812 31.1812C122.245 31.1812 123.491 31.4295 124.549 31.9262C125.607 32.4094 126.478 33.0604 127.161 33.8792C127.844 34.698 128.353 35.6242 128.688 36.6577C129.023 37.6913 129.19 38.7517 129.19 39.8389C129.19 41.1409 128.996 42.3356 128.608 43.4228C128.219 44.5101 127.67 45.4564 126.96 46.2617C126.25 47.0537 125.406 47.6644 124.429 48.094C123.451 48.5235 122.379 48.7383 121.214 48.7383ZM121.214 45.3758C122.017 45.3758 122.761 45.1812 123.444 44.7919C124.127 44.3893 124.676 43.7651 125.092 42.9195C125.507 42.0738 125.714 40.9732 125.714 39.6174C125.714 38.4497 125.487 37.4899 125.031 36.7383C124.576 35.9866 123.987 35.4295 123.263 35.0671C122.54 34.7047 121.783 34.5235 120.993 34.5235C120.095 34.5235 119.339 34.6846 118.722 35.0067C118.106 35.3289 117.611 35.7651 117.236 36.3154C116.86 36.8523 116.593 37.4564 116.432 38.1275C116.271 38.7987 116.191 39.4899 116.191 40.2013C116.191 40.8993 116.325 41.5638 116.593 42.1946C116.861 42.8121 117.222 43.3624 117.678 43.8456C118.146 44.3154 118.682 44.6913 119.285 44.9732C119.888 45.2416 120.531 45.3758 121.214 45.3758Z" fill="white"/>
<path d="M135.037 48.8188L131.601 48.1745C132.244 45.5705 132.914 43.2148 133.61 41.1074C134.32 39 135.05 37.1946 135.801 35.6913C136.551 34.1879 137.314 33.0336 138.091 32.2282C138.881 31.4094 139.672 31 140.462 31C142.056 31 143.523 32.4832 144.862 35.4497C146.202 38.4027 147.34 42.6846 148.278 48.2953L144.721 48.7785C144.561 47.8926 144.387 46.9866 144.199 46.0604C144.012 45.1208 143.817 44.2081 143.616 43.3221C143.295 43.3087 142.947 43.302 142.572 43.302C141.915 43.302 141.219 43.3154 140.482 43.3423C139.759 43.3691 139.042 43.4161 138.332 43.4832C137.636 43.5369 136.986 43.5973 136.383 43.6644C136.129 44.5235 135.881 45.396 135.64 46.2819C135.412 47.1544 135.211 48 135.037 48.8188ZM138.734 37.0604C138.439 37.6913 138.044 38.7114 137.549 40.1208C138.125 40.0537 138.734 40.0067 139.377 39.9799C140.02 39.9396 140.649 39.9195 141.266 39.9195C141.788 39.9195 142.29 39.9329 142.772 39.9597C142.585 39.2752 142.404 38.6644 142.23 38.1275C142.069 37.5906 141.922 37.1678 141.788 36.8591C141.507 36.1342 141.259 35.6242 141.045 35.3289C140.83 35.0201 140.609 34.8658 140.382 34.8658C140.14 34.8658 139.899 35.0268 139.658 35.349C139.417 35.6577 139.109 36.2282 138.734 37.0604Z" fill="white"/>
<path d="M156.921 48.8591C155.595 48.8591 154.543 48.745 153.766 48.5168C152.989 48.2886 152.413 47.9664 152.038 47.5503C151.663 47.1476 151.415 46.6711 151.295 46.1208C151.188 45.557 151.134 44.953 151.134 44.3087C151.134 43.2349 151.161 42.0067 151.214 40.6242C151.281 39.2416 151.362 37.7584 151.456 36.1745C151.563 34.5772 151.677 32.9262 151.797 31.2215L155.454 31.5839C155.32 32.6174 155.199 33.6779 155.092 34.7651C154.999 35.8389 154.918 36.8859 154.851 37.906C154.784 38.9262 154.731 39.8523 154.69 40.6846C154.65 41.5168 154.617 42.2148 154.59 42.7785C154.577 43.3289 154.57 43.6846 154.57 43.8456C154.57 44.3154 154.623 44.6711 154.731 44.9128C154.838 45.1409 155.052 45.2953 155.374 45.3758C155.695 45.4564 156.164 45.4966 156.78 45.4966C157.557 45.4966 158.434 45.4497 159.412 45.3557C160.39 45.2483 161.381 45.094 162.386 44.8926C163.39 44.6913 164.308 44.4497 165.138 44.1678L165.922 47.6309C165.011 47.8591 164.027 48.0671 162.968 48.255C161.924 48.443 160.879 48.5906 159.834 48.698C158.789 48.8054 157.818 48.8591 156.921 48.8591Z" fill="white"/>
<path d="M171.168 48.8188L167.732 48.1745C168.375 45.5705 169.044 43.2148 169.741 41.1074C170.451 39 171.181 37.1946 171.931 35.6913C172.681 34.1879 173.445 33.0336 174.222 32.2282C175.012 31.4094 175.802 31 176.592 31C178.186 31 179.653 32.4832 180.993 35.4497C182.332 38.4027 183.471 42.6846 184.408 48.2953L180.852 48.7785C180.691 47.8926 180.517 46.9866 180.33 46.0604C180.142 45.1208 179.948 44.2081 179.747 43.3221C179.425 43.3087 179.077 43.302 178.702 43.302C178.046 43.302 177.349 43.3154 176.613 43.3423C175.889 43.3691 175.173 43.4161 174.463 43.4832C173.766 43.5369 173.116 43.5973 172.514 43.6644C172.259 44.5235 172.011 45.396 171.77 46.2819C171.543 47.1544 171.342 48 171.168 48.8188ZM174.864 37.0604C174.57 37.6913 174.175 38.7114 173.679 40.1208C174.255 40.0537 174.864 40.0067 175.507 39.9799C176.15 39.9396 176.78 39.9195 177.396 39.9195C177.918 39.9195 178.421 39.9329 178.903 39.9597C178.715 39.2752 178.535 38.6644 178.361 38.1275C178.2 37.5906 178.052 37.1678 177.918 36.8591C177.637 36.1342 177.389 35.6242 177.175 35.3289C176.961 35.0201 176.74 34.8658 176.512 34.8658C176.271 34.8658 176.03 35.0268 175.789 35.349C175.548 35.6577 175.24 36.2282 174.864 37.0604Z" fill="white"/>
<path d="M193.102 48.7785C193.088 48.6309 193.082 48.4698 193.082 48.2953C193.082 48.1208 193.082 47.9195 193.082 47.6913C193.082 47.1141 193.095 46.4295 193.122 45.6376C193.149 44.8322 193.189 43.9799 193.242 43.0805C193.296 42.1678 193.35 41.255 193.403 40.3423C193.457 39.4161 193.51 38.5302 193.564 37.6846C193.631 36.8389 193.691 36.0805 193.745 35.4094C193.45 35.5034 193.189 35.5906 192.961 35.6711L192.439 32.2886C193.952 31.8591 195.359 31.5369 196.658 31.3221C197.971 31.1074 199.156 31 200.214 31C202.371 31 204.018 31.4094 205.157 32.2282C206.296 33.047 206.865 34.2349 206.865 35.7919C206.865 36.6779 206.671 37.4228 206.282 38.0268C205.894 38.6174 205.345 39.1074 204.635 39.4966C206.376 40.3826 207.247 41.8255 207.247 43.8255C207.247 44.7114 207.079 45.4564 206.744 46.0604C206.423 46.651 206.008 47.1275 205.499 47.4899C204.99 47.8523 204.447 48.1208 203.871 48.2953C203.309 48.4832 202.773 48.604 202.264 48.6577C201.768 48.7248 201.38 48.7584 201.098 48.7584C200.402 48.7584 199.658 48.6913 198.868 48.557C198.078 48.4228 197.308 48.2215 196.558 47.953C196.558 48.2215 196.558 48.4765 196.558 48.7181L193.102 48.7785ZM200.295 34.3624C199.812 34.3624 199.303 34.3893 198.768 34.443C198.245 34.4832 197.723 34.5503 197.201 34.6443C197.12 35.6242 197.04 36.7651 196.959 38.0671C197.134 38.0805 197.308 38.0872 197.482 38.0872C197.669 38.0872 197.857 38.0872 198.044 38.0872C201.581 38.0872 203.349 37.3624 203.349 35.9128C203.349 35.4295 203.074 35.0537 202.525 34.7852C201.989 34.5034 201.246 34.3624 200.295 34.3624ZM198.507 41.2685C198.225 41.2685 197.937 41.2685 197.643 41.2685C197.361 41.2685 197.073 41.2752 196.779 41.2886C196.752 41.8792 196.725 42.4698 196.698 43.0604C196.685 43.651 196.665 44.2349 196.638 44.8121C197.388 45.0403 198.125 45.2081 198.848 45.3154C199.571 45.4094 200.194 45.4564 200.717 45.4564C201.828 45.4564 202.625 45.3221 203.108 45.0537C203.59 44.7718 203.831 44.3154 203.831 43.6846C203.831 42.906 203.369 42.3087 202.445 41.8926C201.534 41.4765 200.221 41.2685 198.507 41.2685Z" fill="white"/>
<path d="M218.559 48.7383C217.299 48.7383 216.154 48.5034 215.123 48.0336C214.091 47.5772 213.201 46.9396 212.451 46.1208C211.7 45.302 211.125 44.3691 210.723 43.3221C210.321 42.2752 210.12 41.1678 210.12 40C210.12 38.9262 210.281 37.8725 210.602 36.8389C210.924 35.7919 211.412 34.8456 212.069 34C212.725 33.1409 213.556 32.4564 214.56 31.9463C215.578 31.4362 216.777 31.1812 218.157 31.1812C219.59 31.1812 220.836 31.4295 221.894 31.9262C222.952 32.4094 223.823 33.0604 224.506 33.8792C225.189 34.698 225.698 35.6242 226.033 36.6577C226.368 37.6913 226.535 38.7517 226.535 39.8389C226.535 41.1409 226.341 42.3356 225.952 43.4228C225.564 44.5101 225.015 45.4564 224.305 46.2617C223.595 47.0537 222.751 47.6644 221.773 48.094C220.796 48.5235 219.724 48.7383 218.559 48.7383ZM218.559 45.3758C219.362 45.3758 220.106 45.1812 220.789 44.7919C221.472 44.3893 222.021 43.7651 222.436 42.9195C222.852 42.0738 223.059 40.9732 223.059 39.6174C223.059 38.4497 222.832 37.4899 222.376 36.7383C221.921 35.9866 221.331 35.4295 220.608 35.0671C219.885 34.7047 219.128 34.5235 218.338 34.5235C217.44 34.5235 216.683 34.6846 216.067 35.0067C215.451 35.3289 214.955 35.7651 214.58 36.3154C214.205 36.8523 213.937 37.4564 213.777 38.1275C213.616 38.7987 213.536 39.4899 213.536 40.2013C213.536 40.8993 213.67 41.5638 213.937 42.1946C214.205 42.8121 214.567 43.3624 215.022 43.8456C215.491 44.3154 216.027 44.6913 216.63 44.9732C217.233 45.2416 217.875 45.3758 218.559 45.3758Z" fill="white"/>
<path d="M235.576 48.8792C235.483 47.7114 235.416 46.5772 235.376 45.4765C235.349 44.3758 235.335 43.3356 235.335 42.3557C235.335 40.7315 235.369 39.2752 235.436 37.9866C235.503 36.6846 235.57 35.5638 235.637 34.6242C234.485 34.6913 233.366 34.7785 232.281 34.8859C231.196 34.9933 230.192 35.1342 229.268 35.3087L229.308 31.9463C230.875 31.6644 232.482 31.4631 234.13 31.3423C235.777 31.2081 237.425 31.1409 239.073 31.1409C240.251 31.1409 241.376 31.1678 242.448 31.2215C243.533 31.2752 244.571 31.3557 245.562 31.4631L245.542 34.9463C244.605 34.7987 243.587 34.698 242.488 34.6443C241.403 34.5772 240.291 34.5436 239.153 34.5436C239.086 35.4564 239.026 36.4765 238.972 37.604C238.918 38.7181 238.892 39.9128 238.892 41.1879C238.892 42.3289 238.918 43.5302 238.972 44.7919C239.039 46.0537 239.119 47.3825 239.213 48.7785L235.576 48.8792Z" fill="white"/>
<path d="M261.763 49C260.129 49 258.709 48.6376 257.504 47.9128C256.298 47.2013 255.367 46.1946 254.711 44.8926C254.054 43.5906 253.726 42.0537 253.726 40.2819C253.726 39.6107 253.807 38.8658 253.967 38.047C254.142 37.2148 254.416 36.3893 254.791 35.5705C255.166 34.7383 255.669 33.9799 256.298 33.2953C256.928 32.6107 257.698 32.0604 258.609 31.6443C259.519 31.2148 260.591 31 261.823 31C262.882 31 263.806 31.1342 264.596 31.4027C265.386 31.6577 266.07 31.9866 266.646 32.3893C267.221 32.7785 267.697 33.1879 268.072 33.6174C268.46 34.047 268.769 34.443 268.996 34.8054C269.224 35.1544 269.391 35.4094 269.499 35.5705L266.585 37.8054C266.291 37.255 265.942 36.7181 265.54 36.1946C265.139 35.6577 264.643 35.2148 264.054 34.8658C263.464 34.5168 262.734 34.3423 261.864 34.3423C260.966 34.3423 260.223 34.5436 259.633 34.9463C259.044 35.349 258.575 35.8591 258.227 36.4765C257.892 37.094 257.658 37.7517 257.524 38.4497C257.39 39.1342 257.323 39.7718 257.323 40.3624C257.323 40.9933 257.39 41.6174 257.524 42.2349C257.658 42.8523 257.885 43.4161 258.207 43.9262C258.542 44.4362 258.984 44.8456 259.533 45.1544C260.095 45.4497 260.799 45.5973 261.643 45.5973C262.58 45.5973 263.344 45.4295 263.933 45.094C264.536 44.7584 265.038 44.2886 265.44 43.6846C265.842 43.0671 266.217 42.349 266.565 41.5302L269.86 43.0201C269.271 44.2416 268.608 45.302 267.871 46.2013C267.134 47.1007 266.27 47.7919 265.279 48.2752C264.288 48.7584 263.116 49 261.763 49Z" fill="white"/>
<path d="M279.075 48.8591C277.748 48.8591 276.697 48.745 275.92 48.5168C275.143 48.2886 274.567 47.9664 274.192 47.5503C273.817 47.1476 273.569 46.6711 273.449 46.1208C273.342 45.557 273.288 44.953 273.288 44.3087C273.288 43.2349 273.315 42.0067 273.368 40.6242C273.435 39.2416 273.516 37.7584 273.609 36.1745C273.717 34.5772 273.83 32.9262 273.951 31.2215L277.608 31.5839C277.474 32.6174 277.353 33.6779 277.246 34.7651C277.152 35.8389 277.072 36.8859 277.005 37.906C276.938 38.9262 276.884 39.8523 276.844 40.6846C276.804 41.5168 276.771 42.2148 276.744 42.7785C276.73 43.3289 276.724 43.6846 276.724 43.8456C276.724 44.3154 276.777 44.6711 276.884 44.9128C276.992 45.1409 277.206 45.2953 277.527 45.3758C277.849 45.4564 278.318 45.4966 278.934 45.4966C279.711 45.4966 280.588 45.4497 281.566 45.3557C282.544 45.2483 283.535 45.094 284.54 44.8926C285.544 44.6913 286.462 44.4497 287.292 44.1678L288.076 47.6309C287.165 47.8591 286.18 48.0671 285.122 48.255C284.077 48.443 283.033 48.5906 281.988 48.698C280.943 48.8054 279.972 48.8591 279.075 48.8591Z" fill="white"/>
<path d="M297.782 48.9597C296.496 48.9597 295.431 48.7517 294.587 48.3356C293.743 47.9329 293.067 47.3758 292.558 46.6644C292.062 45.9396 291.687 45.1074 291.433 44.1678C291.192 43.2282 291.031 42.2215 290.951 41.1477C290.884 40.0738 290.85 38.9866 290.85 37.8859C290.85 36.6376 290.89 35.4228 290.971 34.2416C291.051 33.047 291.138 32.047 291.232 31.2416L294.929 31.4631C294.795 32.443 294.688 33.3221 294.607 34.1007C294.54 34.8658 294.493 35.5906 294.467 36.2752C294.44 36.9597 294.426 37.6644 294.426 38.3893C294.426 38.953 294.433 39.5638 294.447 40.2215C294.473 40.8658 294.534 41.5101 294.627 42.1544C294.735 42.7852 294.895 43.3624 295.11 43.8859C295.337 44.396 295.652 44.8121 296.054 45.1342C296.469 45.443 296.998 45.5973 297.641 45.5973C298.338 45.5973 298.9 45.443 299.329 45.1342C299.771 44.8121 300.113 44.3893 300.354 43.8658C300.595 43.3289 300.769 42.7383 300.876 42.094C300.983 41.4362 301.044 40.7718 301.057 40.1007C301.084 39.4161 301.097 38.7718 301.097 38.1678C301.097 37.0268 301.064 35.9195 300.997 34.8456C300.93 33.7718 300.843 32.6309 300.735 31.4228L304.432 31.1409C304.54 32.4295 304.62 33.6107 304.673 34.6846C304.727 35.745 304.754 36.7248 304.754 37.6242C304.754 38.8456 304.707 40.0201 304.613 41.1477C304.533 42.2752 304.359 43.3154 304.091 44.2685C303.823 45.2081 303.434 46.0336 302.925 46.745C302.416 47.443 301.74 47.9866 300.896 48.3758C300.066 48.7651 299.028 48.9597 297.782 48.9597Z" fill="white"/>
<path d="M308.855 48.7785C308.842 48.6309 308.835 48.4698 308.835 48.2953C308.835 48.1208 308.835 47.9195 308.835 47.6913C308.835 47.1141 308.848 46.4295 308.875 45.6376C308.902 44.8322 308.942 43.9799 308.996 43.0805C309.049 42.1678 309.103 41.255 309.157 40.3423C309.21 39.4161 309.264 38.5302 309.317 37.6846C309.384 36.8389 309.445 36.0805 309.498 35.4094C309.203 35.5034 308.942 35.5906 308.714 35.6711L308.192 32.2886C309.706 31.8591 311.112 31.5369 312.411 31.3221C313.724 31.1074 314.91 31 315.968 31C318.124 31 319.772 31.4094 320.91 32.2282C322.049 33.047 322.618 34.2349 322.618 35.7919C322.618 36.6779 322.424 37.4228 322.036 38.0268C321.647 38.6174 321.098 39.1074 320.388 39.4966C322.129 40.3826 323 41.8255 323 43.8255C323 44.7114 322.833 45.4564 322.498 46.0604C322.176 46.651 321.761 47.1275 321.252 47.4899C320.743 47.8523 320.201 48.1208 319.625 48.2953C319.062 48.4832 318.526 48.604 318.017 48.6577C317.522 48.7248 317.133 48.7584 316.852 48.7584C316.155 48.7584 315.412 48.6913 314.622 48.557C313.831 48.4228 313.061 48.2215 312.311 47.953C312.311 48.2215 312.311 48.4765 312.311 48.7181L308.855 48.7785ZM316.048 34.3624C315.566 34.3624 315.057 34.3893 314.521 34.443C313.999 34.4832 313.476 34.5503 312.954 34.6443C312.874 35.6242 312.793 36.7651 312.713 38.0671C312.887 38.0805 313.061 38.0872 313.235 38.0872C313.423 38.0872 313.61 38.0872 313.798 38.0872C317.334 38.0872 319.102 37.3624 319.102 35.9128C319.102 35.4295 318.828 35.0537 318.278 34.7852C317.743 34.5034 316.999 34.3624 316.048 34.3624ZM314.26 41.2685C313.979 41.2685 313.691 41.2685 313.396 41.2685C313.115 41.2685 312.827 41.2752 312.532 41.2886C312.505 41.8792 312.478 42.4698 312.452 43.0604C312.438 43.651 312.418 44.2349 312.391 44.8121C313.141 45.0403 313.878 45.2081 314.602 45.3154C315.325 45.4094 315.948 45.4564 316.47 45.4564C317.582 45.4564 318.379 45.3221 318.861 45.0537C319.343 44.7718 319.584 44.3154 319.584 43.6846C319.584 42.906 319.122 42.3087 318.198 41.8926C317.287 41.4765 315.974 41.2685 314.26 41.2685Z" fill="white"/>
<path d="M95.0603 48.8188C95.0201 47.651 95 46.3356 95 44.8725C95 43.5034 95.0201 42.0537 95.0603 40.5235C95.1005 38.9933 95.1674 37.4362 95.2612 35.8523C95.355 34.2685 95.4688 32.7248 95.6028 31.2215L99.0988 31.2819C98.9782 32.2215 98.8711 33.1812 98.7773 34.1611C98.697 35.1275 98.63 36.1007 98.5764 37.0805C99.139 36.6913 99.8154 36.2416 100.606 35.7315C101.409 35.2081 102.267 34.6846 103.177 34.1611C104.088 33.6242 104.999 33.1141 105.91 32.6309C106.834 32.1477 107.698 31.7383 108.502 31.4027L109.486 34.8255C108.669 35.1611 107.846 35.5302 107.015 35.9329C106.198 36.3356 105.414 36.7383 104.664 37.1409C103.928 37.5302 103.271 37.906 102.695 38.2685C102.119 38.6174 101.664 38.9262 101.329 39.1946C100.994 39.4497 100.827 39.6376 100.827 39.7584C100.827 39.9329 101.088 40.2282 101.61 40.6443C102.133 41.0604 102.843 41.5503 103.74 42.1141C104.638 42.6779 105.656 43.2685 106.794 43.8859C107.946 44.5034 109.138 45.1074 110.37 45.698L108.502 48.7987C106.975 48.0067 105.568 47.2148 104.283 46.4228C103.01 45.6174 101.872 44.8591 100.867 44.1477C99.8757 43.4362 99.0519 42.8255 98.3956 42.3154C98.3956 42.8121 98.3956 43.3087 98.3956 43.8054C98.3956 44.7047 98.4023 45.5772 98.4157 46.4228C98.4425 47.255 98.4692 48.0336 98.496 48.7584L95.0603 48.8188Z" stroke="white" stroke-width="1.5" mask="url(#path-3-outside-2_103_63)"/>
<path d="M121.214 48.7383C119.955 48.7383 118.809 48.5034 117.778 48.0336C116.747 47.5772 115.856 46.9396 115.106 46.1208C114.356 45.302 113.78 44.3691 113.378 43.3221C112.976 42.2752 112.775 41.1678 112.775 40C112.775 38.9262 112.936 37.8725 113.257 36.8389C113.579 35.7919 114.068 34.8456 114.724 34C115.38 33.1409 116.211 32.4564 117.215 31.9463C118.233 31.4362 119.432 31.1812 120.812 31.1812C122.245 31.1812 123.491 31.4295 124.549 31.9262C125.607 32.4094 126.478 33.0604 127.161 33.8792C127.844 34.698 128.353 35.6242 128.688 36.6577C129.023 37.6913 129.19 38.7517 129.19 39.8389C129.19 41.1409 128.996 42.3356 128.608 43.4228C128.219 44.5101 127.67 45.4564 126.96 46.2617C126.25 47.0537 125.406 47.6644 124.429 48.094C123.451 48.5235 122.379 48.7383 121.214 48.7383ZM121.214 45.3758C122.017 45.3758 122.761 45.1812 123.444 44.7919C124.127 44.3893 124.676 43.7651 125.092 42.9195C125.507 42.0738 125.714 40.9732 125.714 39.6174C125.714 38.4497 125.487 37.4899 125.031 36.7383C124.576 35.9866 123.987 35.4295 123.263 35.0671C122.54 34.7047 121.783 34.5235 120.993 34.5235C120.095 34.5235 119.339 34.6846 118.722 35.0067C118.106 35.3289 117.611 35.7651 117.236 36.3154C116.86 36.8523 116.593 37.4564 116.432 38.1275C116.271 38.7987 116.191 39.4899 116.191 40.2013C116.191 40.8993 116.325 41.5638 116.593 42.1946C116.861 42.8121 117.222 43.3624 117.678 43.8456C118.146 44.3154 118.682 44.6913 119.285 44.9732C119.888 45.2416 120.531 45.3758 121.214 45.3758Z" stroke="white" stroke-width="1.5" mask="url(#path-3-outside-2_103_63)"/>
<path d="M135.037 48.8188L131.601 48.1745C132.244 45.5705 132.914 43.2148 133.61 41.1074C134.32 39 135.05 37.1946 135.801 35.6913C136.551 34.1879 137.314 33.0336 138.091 32.2282C138.881 31.4094 139.672 31 140.462 31C142.056 31 143.523 32.4832 144.862 35.4497C146.202 38.4027 147.34 42.6846 148.278 48.2953L144.721 48.7785C144.561 47.8926 144.387 46.9866 144.199 46.0604C144.012 45.1208 143.817 44.2081 143.616 43.3221C143.295 43.3087 142.947 43.302 142.572 43.302C141.915 43.302 141.219 43.3154 140.482 43.3423C139.759 43.3691 139.042 43.4161 138.332 43.4832C137.636 43.5369 136.986 43.5973 136.383 43.6644C136.129 44.5235 135.881 45.396 135.64 46.2819C135.412 47.1544 135.211 48 135.037 48.8188ZM138.734 37.0604C138.439 37.6913 138.044 38.7114 137.549 40.1208C138.125 40.0537 138.734 40.0067 139.377 39.9799C140.02 39.9396 140.649 39.9195 141.266 39.9195C141.788 39.9195 142.29 39.9329 142.772 39.9597C142.585 39.2752 142.404 38.6644 142.23 38.1275C142.069 37.5906 141.922 37.1678 141.788 36.8591C141.507 36.1342 141.259 35.6242 141.045 35.3289C140.83 35.0201 140.609 34.8658 140.382 34.8658C140.14 34.8658 139.899 35.0268 139.658 35.349C139.417 35.6577 139.109 36.2282 138.734 37.0604Z" stroke="white" stroke-width="1.5" mask="url(#path-3-outside-2_103_63)"/>
<path d="M156.921 48.8591C155.595 48.8591 154.543 48.745 153.766 48.5168C152.989 48.2886 152.413 47.9664 152.038 47.5503C151.663 47.1476 151.415 46.6711 151.295 46.1208C151.188 45.557 151.134 44.953 151.134 44.3087C151.134 43.2349 151.161 42.0067 151.214 40.6242C151.281 39.2416 151.362 37.7584 151.456 36.1745C151.563 34.5772 151.677 32.9262 151.797 31.2215L155.454 31.5839C155.32 32.6174 155.199 33.6779 155.092 34.7651C154.999 35.8389 154.918 36.8859 154.851 37.906C154.784 38.9262 154.731 39.8523 154.69 40.6846C154.65 41.5168 154.617 42.2148 154.59 42.7785C154.577 43.3289 154.57 43.6846 154.57 43.8456C154.57 44.3154 154.623 44.6711 154.731 44.9128C154.838 45.1409 155.052 45.2953 155.374 45.3758C155.695 45.4564 156.164 45.4966 156.78 45.4966C157.557 45.4966 158.434 45.4497 159.412 45.3557C160.39 45.2483 161.381 45.094 162.386 44.8926C163.39 44.6913 164.308 44.4497 165.138 44.1678L165.922 47.6309C165.011 47.8591 164.027 48.0671 162.968 48.255C161.924 48.443 160.879 48.5906 159.834 48.698C158.789 48.8054 157.818 48.8591 156.921 48.8591Z" stroke="white" stroke-width="1.5" mask="url(#path-3-outside-2_103_63)"/>
<path d="M171.168 48.8188L167.732 48.1745C168.375 45.5705 169.044 43.2148 169.741 41.1074C170.451 39 171.181 37.1946 171.931 35.6913C172.681 34.1879 173.445 33.0336 174.222 32.2282C175.012 31.4094 175.802 31 176.592 31C178.186 31 179.653 32.4832 180.993 35.4497C182.332 38.4027 183.471 42.6846 184.408 48.2953L180.852 48.7785C180.691 47.8926 180.517 46.9866 180.33 46.0604C180.142 45.1208 179.948 44.2081 179.747 43.3221C179.425 43.3087 179.077 43.302 178.702 43.302C178.046 43.302 177.349 43.3154 176.613 43.3423C175.889 43.3691 175.173 43.4161 174.463 43.4832C173.766 43.5369 173.116 43.5973 172.514 43.6644C172.259 44.5235 172.011 45.396 171.77 46.2819C171.543 47.1544 171.342 48 171.168 48.8188ZM174.864 37.0604C174.57 37.6913 174.175 38.7114 173.679 40.1208C174.255 40.0537 174.864 40.0067 175.507 39.9799C176.15 39.9396 176.78 39.9195 177.396 39.9195C177.918 39.9195 178.421 39.9329 178.903 39.9597C178.715 39.2752 178.535 38.6644 178.361 38.1275C178.2 37.5906 178.052 37.1678 177.918 36.8591C177.637 36.1342 177.389 35.6242 177.175 35.3289C176.961 35.0201 176.74 34.8658 176.512 34.8658C176.271 34.8658 176.03 35.0268 175.789 35.349C175.548 35.6577 175.24 36.2282 174.864 37.0604Z" stroke="white" stroke-width="1.5" mask="url(#path-3-outside-2_103_63)"/>
<path d="M193.102 48.7785C193.088 48.6309 193.082 48.4698 193.082 48.2953C193.082 48.1208 193.082 47.9195 193.082 47.6913C193.082 47.1141 193.095 46.4295 193.122 45.6376C193.149 44.8322 193.189 43.9799 193.242 43.0805C193.296 42.1678 193.35 41.255 193.403 40.3423C193.457 39.4161 193.51 38.5302 193.564 37.6846C193.631 36.8389 193.691 36.0805 193.745 35.4094C193.45 35.5034 193.189 35.5906 192.961 35.6711L192.439 32.2886C193.952 31.8591 195.359 31.5369 196.658 31.3221C197.971 31.1074 199.156 31 200.214 31C202.371 31 204.018 31.4094 205.157 32.2282C206.296 33.047 206.865 34.2349 206.865 35.7919C206.865 36.6779 206.671 37.4228 206.282 38.0268C205.894 38.6174 205.345 39.1074 204.635 39.4966C206.376 40.3826 207.247 41.8255 207.247 43.8255C207.247 44.7114 207.079 45.4564 206.744 46.0604C206.423 46.651 206.008 47.1275 205.499 47.4899C204.99 47.8523 204.447 48.1208 203.871 48.2953C203.309 48.4832 202.773 48.604 202.264 48.6577C201.768 48.7248 201.38 48.7584 201.098 48.7584C200.402 48.7584 199.658 48.6913 198.868 48.557C198.078 48.4228 197.308 48.2215 196.558 47.953C196.558 48.2215 196.558 48.4765 196.558 48.7181L193.102 48.7785ZM200.295 34.3624C199.812 34.3624 199.303 34.3893 198.768 34.443C198.245 34.4832 197.723 34.5503 197.201 34.6443C197.12 35.6242 197.04 36.7651 196.959 38.0671C197.134 38.0805 197.308 38.0872 197.482 38.0872C197.669 38.0872 197.857 38.0872 198.044 38.0872C201.581 38.0872 203.349 37.3624 203.349 35.9128C203.349 35.4295 203.074 35.0537 202.525 34.7852C201.989 34.5034 201.246 34.3624 200.295 34.3624ZM198.507 41.2685C198.225 41.2685 197.937 41.2685 197.643 41.2685C197.361 41.2685 197.073 41.2752 196.779 41.2886C196.752 41.8792 196.725 42.4698 196.698 43.0604C196.685 43.651 196.665 44.2349 196.638 44.8121C197.388 45.0403 198.125 45.2081 198.848 45.3154C199.571 45.4094 200.194 45.4564 200.717 45.4564C201.828 45.4564 202.625 45.3221 203.108 45.0537C203.59 44.7718 203.831 44.3154 203.831 43.6846C203.831 42.906 203.369 42.3087 202.445 41.8926C201.534 41.4765 200.221 41.2685 198.507 41.2685Z" stroke="white" stroke-width="1.5" mask="url(#path-3-outside-2_103_63)"/>
<path d="M218.559 48.7383C217.299 48.7383 216.154 48.5034 215.123 48.0336C214.091 47.5772 213.201 46.9396 212.451 46.1208C211.7 45.302 211.125 44.3691 210.723 43.3221C210.321 42.2752 210.12 41.1678 210.12 40C210.12 38.9262 210.281 37.8725 210.602 36.8389C210.924 35.7919 211.412 34.8456 212.069 34C212.725 33.1409 213.556 32.4564 214.56 31.9463C215.578 31.4362 216.777 31.1812 218.157 31.1812C219.59 31.1812 220.836 31.4295 221.894 31.9262C222.952 32.4094 223.823 33.0604 224.506 33.8792C225.189 34.698 225.698 35.6242 226.033 36.6577C226.368 37.6913 226.535 38.7517 226.535 39.8389C226.535 41.1409 226.341 42.3356 225.952 43.4228C225.564 44.5101 225.015 45.4564 224.305 46.2617C223.595 47.0537 222.751 47.6644 221.773 48.094C220.796 48.5235 219.724 48.7383 218.559 48.7383ZM218.559 45.3758C219.362 45.3758 220.106 45.1812 220.789 44.7919C221.472 44.3893 222.021 43.7651 222.436 42.9195C222.852 42.0738 223.059 40.9732 223.059 39.6174C223.059 38.4497 222.832 37.4899 222.376 36.7383C221.921 35.9866 221.331 35.4295 220.608 35.0671C219.885 34.7047 219.128 34.5235 218.338 34.5235C217.44 34.5235 216.683 34.6846 216.067 35.0067C215.451 35.3289 214.955 35.7651 214.58 36.3154C214.205 36.8523 213.937 37.4564 213.777 38.1275C213.616 38.7987 213.536 39.4899 213.536 40.2013C213.536 40.8993 213.67 41.5638 213.937 42.1946C214.205 42.8121 214.567 43.3624 215.022 43.8456C215.491 44.3154 216.027 44.6913 216.63 44.9732C217.233 45.2416 217.875 45.3758 218.559 45.3758Z" stroke="white" stroke-width="1.5" mask="url(#path-3-outside-2_103_63)"/>
<path d="M235.576 48.8792C235.483 47.7114 235.416 46.5772 235.376 45.4765C235.349 44.3758 235.335 43.3356 235.335 42.3557C235.335 40.7315 235.369 39.2752 235.436 37.9866C235.503 36.6846 235.57 35.5638 235.637 34.6242C234.485 34.6913 233.366 34.7785 232.281 34.8859C231.196 34.9933 230.192 35.1342 229.268 35.3087L229.308 31.9463C230.875 31.6644 232.482 31.4631 234.13 31.3423C235.777 31.2081 237.425 31.1409 239.073 31.1409C240.251 31.1409 241.376 31.1678 242.448 31.2215C243.533 31.2752 244.571 31.3557 245.562 31.4631L245.542 34.9463C244.605 34.7987 243.587 34.698 242.488 34.6443C241.403 34.5772 240.291 34.5436 239.153 34.5436C239.086 35.4564 239.026 36.4765 238.972 37.604C238.918 38.7181 238.892 39.9128 238.892 41.1879C238.892 42.3289 238.918 43.5302 238.972 44.7919C239.039 46.0537 239.119 47.3825 239.213 48.7785L235.576 48.8792Z" stroke="white" stroke-width="1.5" mask="url(#path-3-outside-2_103_63)"/>
<path d="M261.763 49C260.129 49 258.709 48.6376 257.504 47.9128C256.298 47.2013 255.367 46.1946 254.711 44.8926C254.054 43.5906 253.726 42.0537 253.726 40.2819C253.726 39.6107 253.807 38.8658 253.967 38.047C254.142 37.2148 254.416 36.3893 254.791 35.5705C255.166 34.7383 255.669 33.9799 256.298 33.2953C256.928 32.6107 257.698 32.0604 258.609 31.6443C259.519 31.2148 260.591 31 261.823 31C262.882 31 263.806 31.1342 264.596 31.4027C265.386 31.6577 266.07 31.9866 266.646 32.3893C267.221 32.7785 267.697 33.1879 268.072 33.6174C268.46 34.047 268.769 34.443 268.996 34.8054C269.224 35.1544 269.391 35.4094 269.499 35.5705L266.585 37.8054C266.291 37.255 265.942 36.7181 265.54 36.1946C265.139 35.6577 264.643 35.2148 264.054 34.8658C263.464 34.5168 262.734 34.3423 261.864 34.3423C260.966 34.3423 260.223 34.5436 259.633 34.9463C259.044 35.349 258.575 35.8591 258.227 36.4765C257.892 37.094 257.658 37.7517 257.524 38.4497C257.39 39.1342 257.323 39.7718 257.323 40.3624C257.323 40.9933 257.39 41.6174 257.524 42.2349C257.658 42.8523 257.885 43.4161 258.207 43.9262C258.542 44.4362 258.984 44.8456 259.533 45.1544C260.095 45.4497 260.799 45.5973 261.643 45.5973C262.58 45.5973 263.344 45.4295 263.933 45.094C264.536 44.7584 265.038 44.2886 265.44 43.6846C265.842 43.0671 266.217 42.349 266.565 41.5302L269.86 43.0201C269.271 44.2416 268.608 45.302 267.871 46.2013C267.134 47.1007 266.27 47.7919 265.279 48.2752C264.288 48.7584 263.116 49 261.763 49Z" stroke="white" stroke-width="1.5" mask="url(#path-3-outside-2_103_63)"/>
<path d="M279.075 48.8591C277.748 48.8591 276.697 48.745 275.92 48.5168C275.143 48.2886 274.567 47.9664 274.192 47.5503C273.817 47.1476 273.569 46.6711 273.449 46.1208C273.342 45.557 273.288 44.953 273.288 44.3087C273.288 43.2349 273.315 42.0067 273.368 40.6242C273.435 39.2416 273.516 37.7584 273.609 36.1745C273.717 34.5772 273.83 32.9262 273.951 31.2215L277.608 31.5839C277.474 32.6174 277.353 33.6779 277.246 34.7651C277.152 35.8389 277.072 36.8859 277.005 37.906C276.938 38.9262 276.884 39.8523 276.844 40.6846C276.804 41.5168 276.771 42.2148 276.744 42.7785C276.73 43.3289 276.724 43.6846 276.724 43.8456C276.724 44.3154 276.777 44.6711 276.884 44.9128C276.992 45.1409 277.206 45.2953 277.527 45.3758C277.849 45.4564 278.318 45.4966 278.934 45.4966C279.711 45.4966 280.588 45.4497 281.566 45.3557C282.544 45.2483 283.535 45.094 284.54 44.8926C285.544 44.6913 286.462 44.4497 287.292 44.1678L288.076 47.6309C287.165 47.8591 286.18 48.0671 285.122 48.255C284.077 48.443 283.033 48.5906 281.988 48.698C280.943 48.8054 279.972 48.8591 279.075 48.8591Z" stroke="white" stroke-width="1.5" mask="url(#path-3-outside-2_103_63)"/>
<path d="M297.782 48.9597C296.496 48.9597 295.431 48.7517 294.587 48.3356C293.743 47.9329 293.067 47.3758 292.558 46.6644C292.062 45.9396 291.687 45.1074 291.433 44.1678C291.192 43.2282 291.031 42.2215 290.951 41.1477C290.884 40.0738 290.85 38.9866 290.85 37.8859C290.85 36.6376 290.89 35.4228 290.971 34.2416C291.051 33.047 291.138 32.047 291.232 31.2416L294.929 31.4631C294.795 32.443 294.688 33.3221 294.607 34.1007C294.54 34.8658 294.493 35.5906 294.467 36.2752C294.44 36.9597 294.426 37.6644 294.426 38.3893C294.426 38.953 294.433 39.5638 294.447 40.2215C294.473 40.8658 294.534 41.5101 294.627 42.1544C294.735 42.7852 294.895 43.3624 295.11 43.8859C295.337 44.396 295.652 44.8121 296.054 45.1342C296.469 45.443 296.998 45.5973 297.641 45.5973C298.338 45.5973 298.9 45.443 299.329 45.1342C299.771 44.8121 300.113 44.3893 300.354 43.8658C300.595 43.3289 300.769 42.7383 300.876 42.094C300.983 41.4362 301.044 40.7718 301.057 40.1007C301.084 39.4161 301.097 38.7718 301.097 38.1678C301.097 37.0268 301.064 35.9195 300.997 34.8456C300.93 33.7718 300.843 32.6309 300.735 31.4228L304.432 31.1409C304.54 32.4295 304.62 33.6107 304.673 34.6846C304.727 35.745 304.754 36.7248 304.754 37.6242C304.754 38.8456 304.707 40.0201 304.613 41.1477C304.533 42.2752 304.359 43.3154 304.091 44.2685C303.823 45.2081 303.434 46.0336 302.925 46.745C302.416 47.443 301.74 47.9866 300.896 48.3758C300.066 48.7651 299.028 48.9597 297.782 48.9597Z" stroke="white" stroke-width="1.5" mask="url(#path-3-outside-2_103_63)"/>
<path d="M308.855 48.7785C308.842 48.6309 308.835 48.4698 308.835 48.2953C308.835 48.1208 308.835 47.9195 308.835 47.6913C308.835 47.1141 308.848 46.4295 308.875 45.6376C308.902 44.8322 308.942 43.9799 308.996 43.0805C309.049 42.1678 309.103 41.255 309.157 40.3423C309.21 39.4161 309.264 38.5302 309.317 37.6846C309.384 36.8389 309.445 36.0805 309.498 35.4094C309.203 35.5034 308.942 35.5906 308.714 35.6711L308.192 32.2886C309.706 31.8591 311.112 31.5369 312.411 31.3221C313.724 31.1074 314.91 31 315.968 31C318.124 31 319.772 31.4094 320.91 32.2282C322.049 33.047 322.618 34.2349 322.618 35.7919C322.618 36.6779 322.424 37.4228 322.036 38.0268C321.647 38.6174 321.098 39.1074 320.388 39.4966C322.129 40.3826 323 41.8255 323 43.8255C323 44.7114 322.833 45.4564 322.498 46.0604C322.176 46.651 321.761 47.1275 321.252 47.4899C320.743 47.8523 320.201 48.1208 319.625 48.2953C319.062 48.4832 318.526 48.604 318.017 48.6577C317.522 48.7248 317.133 48.7584 316.852 48.7584C316.155 48.7584 315.412 48.6913 314.622 48.557C313.831 48.4228 313.061 48.2215 312.311 47.953C312.311 48.2215 312.311 48.4765 312.311 48.7181L308.855 48.7785ZM316.048 34.3624C315.566 34.3624 315.057 34.3893 314.521 34.443C313.999 34.4832 313.476 34.5503 312.954 34.6443C312.874 35.6242 312.793 36.7651 312.713 38.0671C312.887 38.0805 313.061 38.0872 313.235 38.0872C313.423 38.0872 313.61 38.0872 313.798 38.0872C317.334 38.0872 319.102 37.3624 319.102 35.9128C319.102 35.4295 318.828 35.0537 318.278 34.7852C317.743 34.5034 316.999 34.3624 316.048 34.3624ZM314.26 41.2685C313.979 41.2685 313.691 41.2685 313.396 41.2685C313.115 41.2685 312.827 41.2752 312.532 41.2886C312.505 41.8792 312.478 42.4698 312.452 43.0604C312.438 43.651 312.418 44.2349 312.391 44.8121C313.141 45.0403 313.878 45.2081 314.602 45.3154C315.325 45.4094 315.948 45.4564 316.47 45.4564C317.582 45.4564 318.379 45.3221 318.861 45.0537C319.343 44.7718 319.584 44.3154 319.584 43.6846C319.584 42.906 319.122 42.3087 318.198 41.8926C317.287 41.4765 315.974 41.2685 314.26 41.2685Z" stroke="white" stroke-width="1.5" mask="url(#path-3-outside-2_103_63)"/>
<defs>
<linearGradient id="paint0_linear_103_63" x1="47.1805" y1="24.5335" x2="34.8778" y2="60.7487" gradientUnits="userSpaceOnUse">
<stop stop-color="#08A53F"/>
<stop offset="1" stop-color="#62EA10"/>
</linearGradient>
<linearGradient id="paint1_linear_103_63" x1="47.1805" y1="24.5335" x2="34.8778" y2="60.7487" gradientUnits="userSpaceOnUse">
<stop stop-color="#08A53F"/>
<stop offset="1" stop-color="#62EA10"/>
</linearGradient>
</defs>
</svg>
