<svg width="48" height="48" viewBox="0 0 48 48" fill="none" xmlns="http://www.w3.org/2000/svg">
<path d="M45.544 10.7191C44.3656 12.4775 42.8745 14.0432 41.143 15.2958C41.167 15.6571 41.167 16.0425 41.167 16.428C41.167 28.1107 32.2929 41.5759 16.0837 41.5759C11.1055 41.5759 6.46403 40.1066 2.54401 37.6014C3.24143 37.6737 3.93886 37.7218 4.66034 37.7218C8.7968 37.7218 12.5966 36.3006 15.6027 33.94C13.7638 33.9019 11.9827 33.2895 10.5081 32.1882C9.03352 31.087 7.93918 29.552 7.3779 27.7975C7.90698 27.8939 8.46011 27.9662 9.03729 27.9662C9.83092 27.9662 10.6245 27.8457 11.346 27.653C9.35138 27.2429 7.55895 26.1564 6.27096 24.5767C4.98297 22.997 4.27822 21.0208 4.27555 18.9813V18.8849C5.47801 19.5353 6.82477 19.9448 8.26772 19.993C7.05997 19.1816 6.07048 18.0845 5.38676 16.7989C4.70304 15.5133 4.34617 14.0787 4.3477 12.622C4.3477 11.0081 4.78058 9.49059 5.55016 8.18983C9.90307 13.5374 16.3964 17.0542 23.7314 17.4156C23.5871 16.7652 23.4909 16.0907 23.4909 15.3922C23.4972 13.0517 24.4299 10.8094 26.0845 9.15668C27.739 7.504 29.9803 6.57592 32.3169 6.57593C34.8661 6.57593 37.1508 7.6358 38.7621 9.37015C40.7582 8.96065 42.6581 8.23801 44.3656 7.22631C43.6922 9.27379 42.2974 11.0081 40.4696 12.0921C42.2218 11.9003 43.9337 11.4371 45.544 10.7191Z" fill="#62EA10"/>
</svg>
