<svg width="74" height="54" viewBox="0 0 74 54" fill="none" xmlns="http://www.w3.org/2000/svg">
<path d="M71.3937 5.98575C69.4912 1.7729 66.1108 -0.0334347 61.5612 0.477737C57.238 0.965935 53.7897 3.30067 50.599 6.08052C49.7072 6.85302 49.0646 7.07702 47.8925 6.53426C40.6476 3.18005 33.3376 3.18005 26.0955 6.52851C25.0678 7.00235 24.4308 6.97938 23.5475 6.18965C20.7815 3.70846 17.721 1.66951 14.0717 0.733323C8.89922 -0.561837 4.68649 1.29906 2.54048 6.1638C-0.706829 13.5471 -0.299145 20.893 3.29074 28.0408C4.78558 31.0245 7.17222 32.8136 10.6743 32.492C11.7473 32.3944 12.1239 32.8251 12.373 33.8676C15.1787 45.6418 24.5894 53.3179 36.5509 53.6568C42.3166 53.8201 47.9605 51.9553 52.5252 48.3788C57.0899 44.8022 60.2944 39.7341 61.5952 34.0341C61.833 33.0204 62.0765 32.3628 63.3363 32.4891C66.7337 32.828 69.1345 31.1021 70.6208 28.1959C74.3353 20.9418 74.7231 13.4724 71.3937 5.98575ZM63.9337 11.2497C61.7594 11.1808 59.6615 11.4478 57.7731 12.6511L57.071 13.0503C57.4136 13.2628 57.742 13.1508 58.0732 13.0273C59.9011 12.7965 61.7568 12.9849 63.5033 13.5787C64.1064 13.7998 64.6868 14.1329 64.4518 14.914C64.2168 15.6951 63.5826 15.6636 62.9456 15.4654C60.8355 14.7569 58.5509 14.7954 56.4651 15.5745C54.8259 16.1948 55.1203 14.3655 54.4097 13.7969C53.8435 13.3259 54.254 12.6482 54.7693 12.2232C57.4645 10.0234 60.5646 9.09299 63.9931 9.22796C64.6839 9.25381 65.4087 9.43473 65.3209 10.3767C65.236 11.1894 64.599 11.2813 63.9337 11.2497ZM9.51357 14.8193C9.31823 13.9376 10.1138 13.7452 10.7479 13.5069C12.4381 12.8808 14.2048 12.9727 15.9771 12.7717C14.3039 11.4564 12.4042 11.2497 10.4507 11.2497C9.68061 11.2497 8.65291 11.4134 8.69821 10.2187C8.73784 9.07001 9.7797 9.21647 10.5328 9.2136C13.4867 9.14581 16.3792 10.074 18.7572 11.8527C19.4339 12.3582 20.2747 12.9038 19.516 13.9434C18.9129 14.7676 18.8025 16.2408 17.0472 15.4711C15.2098 14.6584 13.228 14.825 11.3 15.408C10.5837 15.6205 9.7429 15.8588 9.51357 14.8193ZM19.1394 28.1471C19.3206 26.8002 20.1502 25.9932 21.5006 26.0507C22.8511 26.1081 23.6155 26.9811 23.6976 28.3337C23.774 29.5657 22.5651 30.6914 21.3194 30.6311C20.0737 30.5708 18.9724 29.4049 19.1394 28.1471ZM29.2381 37.1615C29.1786 36.3631 29.2381 35.5533 29.2381 34.7463C29.2381 31.4295 29.6713 28.1844 31.1633 25.1805C32.3722 22.7424 34.1869 21.0825 37.0209 21.0998C39.7841 21.0998 41.5705 22.7769 42.7171 25.1202C44.7273 29.2527 45.2199 33.678 44.6083 38.1838C44.178 41.3772 41.9697 43.3243 38.7762 43.7005C37.8039 43.8062 36.8243 43.8245 35.8488 43.755C31.9135 43.5195 29.5467 41.1417 29.2381 37.1615ZM50.2961 28.2906C50.4008 26.9323 51.2021 26.1828 52.561 26.0191C53.852 26.1454 54.6985 26.8375 54.8457 28.2016C54.9816 29.4623 53.8888 30.6139 52.6176 30.6483C51.3464 30.6828 50.1998 29.537 50.2961 28.2906Z" fill="white"/>
<path d="M42.87 35.5244V34.5394C42.8514 31.8786 42.3285 29.2462 41.3299 26.7857C40.5003 24.8358 39.3707 23.107 36.9727 23.0955C34.5748 23.084 33.3885 24.7697 32.5873 26.757C31.2114 30.1514 30.8886 33.7296 31.2227 37.3537C31.3756 39.0165 32.072 40.4581 33.6773 41.2507C38.5327 43.64 42.8502 40.9549 42.87 35.5244Z" fill="white"/>
</svg>
